<?xml version="1.0" encoding="UTF-8"?>
<svg id="Capa_2" data-name="Capa 2" xmlns="http://www.w3.org/2000/svg" viewBox="0 0 548.21 269.58">
  <defs>
    <style>
      .cls-1 {
        fill: #f9b216;
      }

      .cls-2 {
        fill: #e1132d;
      }
    </style>
  </defs>
  <g id="Capa_1-2" data-name="Capa 1">
    <g>
      <g>
        <path class="cls-1" d="m296.38,32.56c0,17.98-14.57,32.55-32.55,32.55s-32.55-14.57-32.55-32.55S245.85,0,263.83,0s32.55,14.57,32.55,32.56"/>
        <path class="cls-2" d="m106.22,90.37c-3.54-1.43-3.31-3.55.24-4.97,6.36-3.06,18.87-12.03,18.87-32.81,0-28.08-21.72-44.84-58.06-44.84H3.07c-1.89,0-3.07,1.18-3.07,3.07v161.22c0,1.89,1.18,3.06,3.07,3.06h68.69c37.06,0,58.76-17.46,58.76-46.97,0-24.07-15.57-34.46-24.31-37.76M38.54,41.43c.29-.19,1.01-.17,1.01-.17h27.72c12.51,0,19.59,5.67,19.59,15.35,0,10.62-7.08,15.82-22.42,15.82h-24.84s-.88.04-1.15-.25c-.25-.26-.21-1.02-.21-1.02v-28.65s-.05-.84.31-1.08m32.74,100.39h-31.76s-.79.02-1.03-.21c-.31-.28-.26-.86-.26-.86v-33.84s-.02-.76.27-1c.29-.24,1.08-.2,1.08-.2h27.44c17.23,0,25.02,6.14,25.02,18.89,0,10.62-7.55,17.23-20.77,17.23"/>
        <path class="cls-2" d="m217.73,56.6c-16.56.47-26.01,4.25-36.17,14.9-2.84,3.07-3.79,2.36-5.93-.71l-6.15-9.46c-.84-1.42-1.88-2.14-3.53-2.14h-16.8c-1.89,0-3.07,1.19-3.07,3.07v109.96c0,1.89,1.17,3.07,3.07,3.07h31.45c1.89,0,3.07-1.19,3.07-3.07v-19.16c0-47.29,8.04-61.95,34.05-63.14,2.13,0,3.07-.93,3.07-3.07v-27.19c0-1.9-1.18-3.07-3.07-3.07"/>
        <path class="cls-2" d="m364.63,146.45c-.7-1.65-2.11-2.12-4.01-1.65h-1.42c-2.13,0-3.07-1.89-3.07-4.49V6.23c0-1.89-1.2-3.07-3.07-3.07h-31.45c-1.89,0-3.07,1.18-3.07,3.07v134.08c0,23.64,15.36,37.6,40.68,37.6,4.26,0,9.46-.95,13.71-2.84,1.65-.72,2.13-2.13,1.42-4.02l-9.7-24.59Z"/>
        <path class="cls-2" d="m429.35,146.45c-.71-1.65-2.12-2.12-4.02-1.65h-1.41c-2.13,0-3.07-1.89-3.07-4.49V6.23c0-1.89-1.19-3.07-3.08-3.07h-31.45c-1.89,0-3.07,1.18-3.07,3.07v134.08c0,23.64,15.36,37.6,40.67,37.6,4.25,0,9.47-.95,13.71-2.84,1.66-.72,2.13-2.13,1.42-4.02l-9.7-24.59Z"/>
        <path class="cls-2" d="m237.69,63.33c-.19.1-.31.27-.31.48v25.2c0,1.89,1.18,3.06,3.08,3.06h10.74c.64.01,1.13-.01,1.38.27.26.29.18,1.05.18,1.55v78.35c0,1.89,1.18,3.07,3.07,3.07h31.21c1.89,0,3.07-1.19,3.07-3.07V63.82c0-.23-.2-.56-.53-.56s-.47.19-.66.35c-5.36,4.85-13.87,9.59-24.96,9.59s-18.45-3.79-25.57-9.73c-.15-.12-.41-.29-.72-.14"/>
        <path class="cls-2" d="m491.23,56.24c-8.99,0-17.26,1.42-26.01,3.78l-9.22,2.6c-2.13.47-2.84,1.66-2.13,3.78l7.33,24.59c.71,1.89,1.89,2.6,3.78,2.13l8.98-2.6c5.2-1.42,10.64-2.36,15.37-2.36,13.48,0,22.22,5.91,23.17,16.08v.47h-22.23c-29.32,0-46.81,13-46.81,34.99,0,23.88,16.79,37.83,44.93,37.83,9.93,0,19.39-3.55,25.53-8.99,4.02-3.31,6.15-2.84,7.57,0l2.13,4.26c.94,1.42,1.89,2.13,3.78,2.13h17.73c1.89,0,3.08-1.18,3.08-3.07v-69.75c0-28.85-21.05-45.87-56.98-45.87m21.28,72.35c-1.42,13-8.28,18.91-20.57,18.91-8.51,0-13.48-3.78-13.48-10.4,0-5.2,4.96-8.99,11.82-8.99h21.87s.22,0,.3.12c.09.13.05.35.05.35"/>
      </g>
      <g>
        <path class="cls-1" d="m37.47,247.23c0,2.07-.89,3.39-3.17,4.94-1.77,1.4-6.42,4.87-14.61,4.87-10.99,0-18.89-7.6-18.89-21.47,0-21.32,10.11-31.65,23.09-31.65,8.19,0,11.14,2.21,13.72,4.94,1.25.96,1.99,2.14,1.99,3.84,0,2.29-1.25,3.84-2.8,4.5-2.66-3.32-7.01-5.53-13.21-5.53-7.82,0-14.68,7.23-14.68,23.09,0,10.62,5.09,14.83,11.88,14.83,5.46,0,10.33-2.07,13.72-5.38,1.25-.07,2.95.88,2.95,3.02Z"/>
        <path class="cls-1" d="m54,227.46l-.15,1.18c2.95-5.09,7.01-9.22,10.99-9.22,3.39,0,5.31,1.99,5.31,5.97,0,5.39-2.29,7.3-5.53,7.3-1.11,0-2.21-.52-2.8-1.03.15-2.07-.3-3.32-2.14-3.32-2.29,0-5.02,3.84-6.64,9.22l-1.55,17.93c-.59.52-2.43.81-4.5.81-1.84,0-3.61-.44-3.32-3.76l1.99-23.02c.15-1.62-.44-2.29-1.48-2.29h-2.51c-.15-.74-.29-1.62-.29-2.43,0-2.8,2.58-4.65,6.42-4.65s6.71,1.33,6.2,7.3Z"/>
        <path class="cls-1" d="m80.34,243.76c.96,4.06,3.61,6.05,7.23,6.05,4.57,0,9.08-1.55,11.07-2.88.66.52,1.18,1.4,1.18,2.88,0,1.7-.59,2.95-1.84,3.91-2.14,1.62-5.76,3.32-11.73,3.32-8.85,0-13.87-6.79-13.87-16.75,0-13.72,8.78-20.88,17.63-20.88,7.75,0,11.43,4.65,11.43,10.11,0,7.45-7.16,12.17-21.1,14.24Zm-.37-5.09c10.99-1.84,14.39-5.02,14.39-8.34,0-2.06-1.11-4.13-5.02-4.13s-8.93,4.35-9.37,12.47Z"/>
        <path class="cls-1" d="m131.1,228.93c-2.95-1.25-4.28-1.99-8.04-1.99-4.28,0-8.78,3.32-8.78,12.69,0,6.35,3.03,9.81,7.38,9.81,3.91,0,6.57-.96,8.56-2.36.81.37,1.33,1.55,1.33,3.1,0,1.99-1.03,3.54-2.8,4.72-1.25.81-4.21,2.14-8.34,2.14-8.7,0-13.72-6.42-13.72-16.45,0-15.79,9.29-21.17,16.89-21.17,4.65,0,6.56.88,8.34,2.21.89.66,1.55,1.84,1.4,3.54,0,1.03-.88,2.51-2.21,3.76Z"/>
        <path class="cls-1" d="m151.02,227.24l-1.77,20.95c-.15,1.4.37,2.07,1.4,2.07h2.14c.22.37.37,1.03.37,1.77,0,2.73-1.84,4.28-6.49,4.28-3.91,0-5.9-1.55-5.39-6.49l1.77-20.36c.15-1.7-.59-2.21-1.55-2.21h-2.07c-.15-.44-.3-1.18-.3-1.99,0-3.76,2.51-5.09,6.27-5.09,3.47,0,6.12,1.18,5.61,7.08Zm-2.88-21.62c2.8,0,4.28,1.33,4.28,4.06,0,3.54-1.7,5.31-5.09,5.31-2.8,0-4.2-1.47-4.2-4.13,0-3.39,1.55-5.24,5.02-5.24Z"/>
        <path class="cls-1" d="m167.33,243.76c.96,4.06,3.62,6.05,7.23,6.05,4.57,0,9.07-1.55,11.07-2.88.66.52,1.18,1.4,1.18,2.88,0,1.7-.59,2.95-1.84,3.91-2.14,1.62-5.75,3.32-11.73,3.32-8.85,0-13.87-6.79-13.87-16.75,0-13.72,8.78-20.88,17.63-20.88,7.75,0,11.43,4.65,11.43,10.11,0,7.45-7.16,12.17-21.1,14.24Zm-.37-5.09c10.99-1.84,14.39-5.02,14.39-8.34,0-2.06-1.11-4.13-5.02-4.13s-8.93,4.35-9.37,12.47Z"/>
        <path class="cls-1" d="m207.17,227.31l-.22,2.36c3.54-6.57,8.11-10.25,13.35-10.25,4.28,0,7.52,2.43,7.52,8.48,0,.96-.07,2.29-.15,3.39l-1.55,17.56c-.15,1.25.37,1.99,1.18,1.99h2.58c.07.3.22.59.22,1.25,0,2.73-2.43,4.2-6.86,4.2-3.91,0-5.53-2.06-5.24-6.12l1.48-16.75c.07-.74.15-1.7.15-2.29,0-2.66-1.55-3.54-3.76-3.54-3.69,0-7.08,3.76-9.74,11.36l-1.4,16.53c-1.03.59-2.51.81-4.65.81-1.99,0-3.69-.81-3.47-4.06l2.07-22.8c.15-1.55-.52-2.21-1.7-2.21h-2.29c-.3-.74-.52-1.55-.52-2.51,0-2.73,2.66-4.57,6.93-4.57,3.76,0,6.49,2.58,6.05,7.16Z"/>
        <path class="cls-1" d="m256.53,249.15c-2.58,4.87-5.97,7.89-10.55,7.89-5.09,0-10.25-4.57-10.25-15.27,0-15.05,8.11-22.35,15.64-22.35,3.32,0,5.68,1.33,7.52,3.47l1.33-15.35c.15-1.84,1.33-2.88,3.39-2.88,2.21,0,3.47.52,4.21,1.03l-3.69,42.27c-.22,1.84.52,2.43,1.7,2.43h2.29c.22.59.37,1.11.37,1.99,0,2.21-1.55,3.91-5.61,3.91-3.84,0-6.57-2.65-6.35-7.16Zm.81-9.15l.81-9.3c-1.18-2.66-3.17-3.91-6.2-3.91-4.06,0-8.48,4.87-8.48,14.09,0,5.83,2.06,8.85,5.83,8.85s6.05-4.06,8.04-9.74Z"/>
        <path class="cls-1" d="m291.35,219.49c7.82,0,13.5,5.16,13.5,15.86,0,14.61-7.6,21.69-16.89,21.69-7.89,0-13.65-5.39-13.65-15.42,0-14.46,7.67-22.13,17.04-22.13Zm-2.73,30.76c5.02,0,8.19-4.06,8.19-14.24,0-6.42-2.58-9.59-6.35-9.59-4.57,0-8.26,4.72-8.26,14.46,0,6.56,2.8,9.37,6.42,9.37Z"/>
        <path class="cls-1" d="m346.61,230.26c-3.1-.89-4.43-1.48-7.52-1.48s-6.94,2.58-6.94,10.25c0,5.24,2.51,7.89,5.76,7.89,3.69,0,5.75-.52,8.11-2.07.96.44,1.7,1.99,1.7,4.21,0,2.51-1.18,4.5-3.24,5.83-1.25.81-4.28,2.14-8.26,2.14-9.08,0-14.09-6.71-14.09-16.67,0-16.3,9.96-21.69,17.63-21.69,4.28,0,6.27.74,8.04,2.14,1.03.74,1.84,2.21,1.62,4.5-.07,1.4-1.18,3.24-2.8,4.94Z"/>
        <path class="cls-1" d="m369.71,218.75c8.12,0,14.02,5.02,14.02,16.16,0,14.61-7.82,22.13-17.34,22.13-8.19,0-14.09-5.46-14.09-15.49,0-15.12,7.89-22.8,17.41-22.8Zm-2.36,29.36c3.54,0,5.68-3.25,5.68-12.39,0-5.39-1.92-7.82-4.5-7.82-3.1,0-5.68,3.61-5.68,12.62,0,5.39,1.99,7.6,4.5,7.6Z"/>
        <path class="cls-1" d="m404.24,227.31c3.32-5.53,7.6-8.63,12.39-8.63,4.13,0,7.45,2.51,7.45,8.48,0,.96,0,1.99-.07,3.17l-1.55,17.04c-.07,1.25.44,1.92,1.33,1.92h2.36c.15.37.3.74.3,1.55,0,3.54-3.17,5.46-8.41,5.46-4.87,0-6.79-2.58-6.42-7.16l1.4-15.86c.07-.44.07-.88.07-1.25,0-1.62-1.25-2.36-2.88-2.36-2.51,0-4.94,2.29-6.86,8.19l-1.48,17.41c-1.25.74-3.32,1.03-6.2,1.03-2.66,0-5.02-1.11-4.65-5.46l1.77-19.85c.15-1.55-.44-2.29-1.77-2.29h-2.14c-.37-1.03-.66-2.07-.66-3.32,0-3.54,3.47-5.97,8.63-5.97,4.06,0,7.53,3.02,7.38,7.89Z"/>
        <path class="cls-1" d="m445.85,228.05l-1.18,14.61c-.22,2.95.52,3.84,2.43,3.84h5.97c.15,1.18.3,2.51.3,3.62,0,3.47-2.51,6.2-11.07,6.2-5.02,0-8.85-2.51-8.12-10.7l1.48-17.56h-4.65c-.44-.89-.66-1.92-.66-3.1,0-3.03.52-5.53,3.98-5.53h2.07l.74-7.82c1.18-.59,3.32-1.11,5.61-1.11,2.66,0,4.5,1.11,4.21,4.21l-.44,4.72h7.89c.59.59.89,1.62.89,2.73,0,1.84-.74,5.9-4.57,5.9h-4.87Z"/>
        <path class="cls-1" d="m472.56,228.05l-1.55,18.22c-.15,1.55.3,2.21,1.33,2.21h2.36c.22.59.37,1.33.37,2.29,0,3.54-2.29,5.53-8.12,5.53-4.87,0-7.23-1.84-6.64-8.26l1.48-17.04c.15-1.77-.59-2.29-1.48-2.29h-2.07c-.22-.59-.3-1.4-.3-2.43,0-5.09,2.95-6.86,7.67-6.86,3.98,0,7.6,1.25,6.94,8.63Zm-4.21-24.05c3.54,0,5.39,1.77,5.39,5.16,0,4.43-2.14,6.64-6.42,6.64-3.61,0-5.38-1.77-5.38-5.16,0-4.28,1.99-6.64,6.42-6.64Z"/>
        <path class="cls-1" d="m499.41,248.63c-2.29,4.94-5.46,7.67-10.11,7.67-5.09,0-10.18-3.91-10.18-15.2,0-15.05,7.82-22.43,16.08-22.43,2.58,0,4.5,1.25,6.05,3.1.37-1.99,1.92-3.1,4.43-3.1,2.95,0,4.72.66,5.61,1.4l-1.4,16.23c-.44,5.16-.22,10.26-.74,15.94-1.18,12.54-9.74,17.34-19.03,17.34-8.48,0-13.28-3.17-13.28-7.23,0-2.36.81-3.98,1.92-5.02,2.51,1.62,6.05,3.76,10.18,3.76,6.27,0,9.74-2.58,10.33-7.67.15-1.62.15-3.17.15-4.8Zm1.03-18c-1.18-1.84-2.58-2.66-4.65-2.66-3.32,0-6.27,5.02-6.27,12.03,0,4.72,1.25,6.27,4.5,6.2,2.51,0,4.13-1.7,5.46-5.16,0-.15.07-.37.07-.52l.89-9.89Z"/>
        <path class="cls-1" d="m532.68,218.75c8.12,0,14.02,5.02,14.02,16.16,0,14.61-7.82,22.13-17.34,22.13-8.19,0-14.09-5.46-14.09-15.49,0-15.12,7.89-22.8,17.41-22.8Zm-2.36,29.36c3.54,0,5.68-3.25,5.68-12.39,0-5.39-1.92-7.82-4.5-7.82-3.1,0-5.68,3.61-5.68,12.62,0,5.39,1.99,7.6,4.5,7.6Z"/>
      </g>
    </g>
  </g>
</svg>