<?xml version="1.0" standalone="no"?>
<!DOCTYPE svg PUBLIC "-//W3C//DTD SVG 20010904//EN"
 "http://www.w3.org/TR/2001/REC-SVG-20010904/DTD/svg10.dtd">
<svg version="1.0" xmlns="http://www.w3.org/2000/svg"
 width="1200.000000pt" height="1200.000000pt" viewBox="0 0 1200.000000 1200.000000"
 preserveAspectRatio="xMidYMid meet">

<g transform="translate(0.000000,1200.000000) scale(0.100000,-0.100000)"
fill="#000000" stroke="none">
<path d="M6152 11529 c-23 -23 -46 -57 -53 -76 l-11 -35 -23 22 c-13 13 -48
30 -77 40 l-53 17 -8 -36 c-19 -91 -19 -108 -2 -140 9 -18 15 -35 13 -37 -3
-2 -20 1 -39 6 -52 15 -147 12 -185 -6 -65 -31 -95 -134 -60 -202 34 -65 100
-93 160 -68 36 15 76 67 76 99 0 24 54 23 96 -4 37 -22 96 -97 88 -111 -3 -4
51 -8 120 -8 98 0 126 3 126 13 0 20 68 95 101 112 47 25 76 20 84 -15 9 -43
55 -87 98 -95 109 -21 192 125 128 228 -32 52 -79 71 -165 64 -39 -3 -82 -9
-94 -13 l-24 -7 17 33 c17 33 17 70 -2 152 l-8 37 -59 -24 c-33 -13 -66 -31
-74 -39 -13 -13 -18 -8 -41 37 -14 28 -40 61 -57 74 l-30 23 -42 -41z m101
-41 c14 -19 19 -42 18 -93 l0 -68 28 44 c38 60 86 99 122 99 35 0 37 -16 14
-104 -15 -58 -32 -86 -125 -206 -27 -36 -57 -84 -66 -107 -15 -38 -20 -43 -49
-43 -28 0 -33 5 -53 53 -12 28 -53 91 -91 139 -72 91 -95 140 -106 221 -6 46
-5 47 20 47 43 0 83 -27 120 -83 l35 -52 0 58 c0 63 17 107 52 131 25 18 48 8
81 -36z m-353 -214 c67 -20 150 -100 198 -190 37 -72 38 -74 14 -74 -11 0 -24
11 -30 24 -19 42 -85 108 -127 127 -26 12 -63 18 -105 18 -48 0 -59 -3 -43 -9
56 -23 54 -92 -3 -116 -129 -54 -205 141 -81 208 55 29 107 33 177 12z m767
-11 c38 -18 59 -47 68 -94 18 -101 -118 -168 -178 -87 -18 24 -18 27 -3 56 9
17 24 33 33 35 10 3 -9 5 -42 6 -100 2 -184 -50 -231 -140 -13 -26 -54 -42
-54 -22 0 19 83 143 122 182 87 87 187 110 285 64z"/>
<path d="M6193 11310 c0 -123 0 -130 9 -72 6 40 6 89 0 135 -9 69 -9 67 -9
-63z"/>
<path d="M5723 11088 c15 -10 54 -10 60 0 3 4 -12 7 -34 7 -22 1 -33 -2 -26
-7z"/>
<path d="M6607 11088 c2 -5 17 -8 33 -8 16 0 31 3 33 8 3 4 -12 7 -33 7 -21 0
-36 -3 -33 -7z"/>
<path d="M5430 11302 l-54 -25 -121 14 c-182 21 -335 18 -415 -10 -89 -30
-166 -85 -217 -154 -59 -81 -84 -166 -90 -303 l-5 -111 -63 81 c-60 78 -62 82
-49 108 19 38 17 110 -6 197 -11 41 -22 76 -24 79 -6 5 -58 -31 -76 -53 -11
-13 -15 -11 -29 17 -14 29 -94 84 -125 87 -10 1 -2 -155 9 -181 6 -15 2 -18
-18 -18 -38 0 -77 -18 -77 -35 0 -8 4 -15 9 -15 5 0 38 -23 73 -51 78 -63 109
-79 165 -88 43 -6 44 -7 77 -82 18 -43 47 -100 65 -128 17 -28 31 -53 31 -56
0 -11 -40 12 -92 55 -89 71 -204 136 -313 176 -55 21 -148 56 -208 79 l-107
42 -6 -24 c-9 -33 3 -87 26 -116 28 -36 25 -40 -22 -33 -57 8 -276 -10 -358
-30 -138 -35 -226 -86 -361 -212 l-87 -80 30 -6 c17 -3 44 -6 61 -6 29 0 26
-4 -74 -107 -173 -178 -239 -292 -247 -427 l-5 -79 38 7 c34 7 37 6 31 -11
-14 -36 -55 -302 -67 -433 -15 -171 -6 -547 16 -690 62 -401 173 -643 394
-859 362 -353 346 -333 338 -426 -3 -33 -9 -69 -13 -79 -6 -16 -4 -17 14 -7
11 6 31 11 44 12 20 0 21 1 5 8 -18 7 -18 8 -1 21 9 8 23 30 31 49 11 25 17
31 26 22 17 -17 57 -14 57 5 0 9 6 14 13 11 15 -5 15 -83 -1 -99 -7 -7 -19 -7
-41 0 -29 10 -31 9 -31 -12 0 -13 -6 -29 -13 -35 -22 -18 -73 -24 -96 -12 -17
10 -21 9 -21 -3 0 -19 31 -36 65 -36 20 0 28 -7 37 -30 7 -22 19 -33 39 -37
33 -6 42 -27 59 -136 22 -135 -7 -217 -88 -247 -35 -13 -41 -19 -29 -28 22
-19 84 -42 112 -42 37 0 32 -23 -20 -87 -40 -49 -45 -60 -45 -106 0 -29 3 -62
6 -75 l7 -23 21 20 c12 12 43 25 68 29 25 5 62 19 81 31 l36 22 10 -38 c34
-121 -16 -283 -97 -314 -30 -12 -64 8 -91 51 l-18 30 -21 -23 c-12 -13 -25
-38 -28 -56 l-7 -34 -15 29 c-38 76 -81 87 -99 27 -6 -21 -23 -67 -38 -102
-32 -76 -28 -115 15 -165 17 -19 30 -36 30 -39 0 -11 -97 15 -135 37 -100 59
-136 244 -62 324 23 24 74 30 109 11 24 -13 32 -4 47 49 20 70 -39 152 -110
152 -40 0 -42 12 -8 53 48 58 59 95 52 176 l-6 71 -54 0 c-62 0 -124 -27 -149
-65 l-17 -26 -17 28 c-39 64 -65 78 -151 82 -82 3 -93 -3 -59 -34 36 -33 48
-92 54 -260 2 -89 12 -196 21 -240 48 -232 165 -401 330 -477 42 -19 67 -23
151 -23 96 0 103 2 177 38 118 58 208 158 264 292 88 209 67 571 -56 965 -11
35 -19 65 -18 65 1 1 14 6 30 13 37 16 36 55 -3 92 -16 15 -30 37 -30 48 0 11
-6 27 -13 34 -8 7 -20 30 -26 51 -7 20 -17 37 -22 37 -13 0 -76 68 -94 101 -8
15 -28 32 -45 38 -18 6 -45 22 -62 36 -16 14 -35 25 -41 26 -7 0 -22 12 -33
27 l-21 27 77 1 c374 7 536 342 383 794 -41 122 -108 249 -177 337 -70 88 -99
139 -111 191 -8 37 -6 36 -39 21 -31 -15 -56 -65 -56 -114 l0 -38 -44 41 c-46
42 -103 72 -139 72 -19 0 -20 -5 -14 -73 7 -93 27 -141 79 -189 l41 -38 -29 0
c-41 -1 -110 -34 -127 -62 -8 -12 -18 -38 -22 -55 l-7 -33 44 0 c66 0 170 -25
228 -55 187 -95 277 -323 199 -506 -25 -56 -44 -65 -117 -54 -26 3 -64 9 -84
12 -21 3 -38 6 -38 8 0 1 9 24 21 50 17 38 19 52 10 72 -10 22 -15 24 -55 18
-57 -9 -156 17 -218 56 -26 17 -70 56 -98 86 -47 51 -122 187 -136 245 -6 26
-5 26 33 18 46 -11 103 2 127 29 17 19 17 21 -9 55 -15 19 -35 38 -46 41 -23
8 -24 15 -4 41 21 28 19 32 -22 40 -112 20 -180 85 -219 208 -14 44 -30 86
-35 92 -7 9 -7 19 1 34 6 11 15 59 21 107 5 47 12 90 15 95 3 5 21 -17 40 -49
52 -87 94 -123 146 -123 24 -1 54 -7 68 -15 14 -8 28 -14 33 -15 4 0 7 36 7
80 0 100 -20 144 -91 200 l-51 40 61 0 c48 0 65 4 81 20 30 30 24 52 -25 94
-140 116 -172 315 -93 566 11 36 25 70 31 75 7 7 8 6 3 -2 -13 -23 -8 -257 8
-330 44 -210 174 -392 349 -487 104 -57 145 -90 162 -129 l12 -29 26 34 c15
19 36 56 48 83 25 57 22 121 -10 184 -12 22 -21 42 -21 44 0 2 26 20 58 40 69
43 135 107 159 156 23 48 28 155 10 206 -17 47 -34 49 -107 12 -34 -17 -54
-38 -81 -83 -36 -60 -69 -86 -124 -99 l-30 -7 22 24 c54 57 68 169 37 294
l-17 66 -19 -30 c-39 -62 -154 -116 -201 -95 -42 19 -60 75 -55 167 4 70 9 91
41 152 21 39 58 90 82 114 41 40 45 42 45 21 0 -12 -15 -58 -34 -100 -19 -43
-35 -89 -36 -102 -4 -45 0 -69 12 -69 26 0 78 54 106 109 16 32 48 85 71 116
26 37 41 69 41 88 0 29 -2 28 -41 -29 -23 -32 -49 -68 -59 -79 -9 -11 -23 -36
-29 -55 -13 -40 -59 -110 -72 -110 -13 0 1 56 37 150 18 47 36 103 40 125 4
22 16 54 27 70 12 17 -21 -9 -73 -56 -123 -112 -167 -188 -190 -329 l-7 -45
-11 28 c-33 79 -6 188 73 292 l37 50 -68 -66 c-38 -36 -82 -71 -97 -79 -43
-21 -76 -65 -123 -165 -78 -166 -87 -202 -88 -365 0 -128 3 -152 23 -205 30
-77 63 -120 108 -143 l36 -19 -24 -21 c-57 -54 -145 -4 -178 102 -64 210 -8
580 120 792 38 62 165 192 254 259 144 109 376 195 527 195 234 0 572 -132
1008 -394 l95 -58 -60 6 c-83 9 -196 40 -355 99 -248 91 -293 102 -410 101
-182 -2 -234 -34 -311 -190 -73 -146 -101 -158 -115 -46 -13 104 7 153 84 205
26 17 73 59 105 92 l58 60 77 -1 c94 0 53 12 -73 22 -98 8 -186 -7 -237 -41
-42 -28 -78 -90 -78 -132 l1 -28 13 30 c33 77 101 127 189 139 68 10 60 -7
-38 -85 -97 -78 -135 -141 -135 -227 0 -54 20 -111 46 -133 21 -18 75 38 125
128 69 125 121 154 272 154 139 0 203 -12 412 -76 221 -68 394 -112 534 -135
l106 -18 -593 -1 -592 -1 2 -2202 3 -2203 27 -98 c103 -375 367 -650 719 -751
137 -39 246 -46 737 -46 l459 0 69 -35 c75 -37 169 -124 202 -188 l20 -37 28
57 c16 31 53 83 82 114 91 99 50 93 667 100 l540 5 93 27 c178 51 323 139 453
273 115 120 186 235 243 392 58 162 55 50 56 2419 l1 2178 -573 -2 -573 -2
125 23 c146 27 343 78 521 135 164 52 269 71 388 71 154 -1 211 -32 276 -149
42 -77 100 -144 118 -138 7 2 22 21 34 43 40 70 25 183 -34 249 -10 11 -50 46
-90 78 -97 77 -98 81 -25 75 79 -5 132 -40 170 -110 15 -28 46 -78 69 -112 24
-34 55 -88 71 -121 29 -60 94 -129 115 -122 25 8 19 77 -13 145 -33 71 -53
142 -40 142 5 0 29 -23 53 -51 119 -136 152 -325 71 -406 -21 -21 -31 -24 -62
-18 -49 9 -113 47 -146 86 -15 17 -28 30 -30 28 -9 -10 -36 -152 -36 -186 0
-59 18 -110 52 -149 l31 -35 -29 7 c-53 12 -89 39 -126 96 -40 60 -73 88 -127
106 -49 17 -49 17 -66 -40 -41 -140 9 -249 161 -348 l71 -46 -24 -48 c-43 -85
-31 -177 35 -258 l30 -38 12 30 c17 41 54 70 152 122 247 129 392 413 375 733
l-6 100 29 -85 c79 -237 55 -422 -72 -549 -28 -28 -55 -51 -59 -51 -18 0 -8
-31 16 -55 20 -21 34 -25 80 -25 l57 0 -56 -50 c-69 -64 -91 -116 -83 -201 3
-33 8 -63 10 -66 3 -3 16 2 29 11 12 9 42 16 65 16 53 0 95 35 147 124 l35 59
11 -27 c5 -15 10 -47 10 -71 0 -25 7 -65 16 -90 10 -31 12 -50 6 -58 -6 -7
-18 -39 -27 -72 -10 -33 -26 -76 -36 -96 -26 -52 -91 -104 -147 -119 -26 -7
-55 -14 -65 -17 -17 -4 -17 -6 2 -39 16 -26 17 -34 6 -34 -16 0 -75 -59 -75
-76 0 -35 74 -64 133 -53 l39 7 -6 -31 c-21 -105 -144 -275 -241 -331 -57 -34
-149 -57 -211 -54 l-49 3 -3 -37 c-2 -20 4 -50 12 -67 19 -37 20 -42 3 -35 -7
2 -32 -2 -56 -11 -50 -17 -104 -19 -130 -5 -58 31 -82 214 -41 322 62 166 202
267 395 284 84 8 90 15 59 80 -18 38 -82 74 -132 74 l-31 0 47 48 c55 54 72
101 72 191 0 52 -3 61 -18 61 -30 0 -120 -50 -146 -81 l-24 -29 -6 30 c-3 17
-9 43 -12 60 -6 30 -49 73 -67 67 -6 -2 -16 -24 -24 -49 -8 -29 -45 -88 -95
-155 -128 -170 -209 -361 -239 -563 -49 -337 132 -580 433 -580 l80 0 -24 -29
c-13 -17 -28 -30 -35 -30 -6 -1 -24 -12 -40 -25 -15 -13 -38 -26 -49 -30 -12
-4 -30 -16 -40 -27 -18 -20 -18 -20 19 1 21 12 40 20 44 17 3 -3 3 -21 -1 -40
-12 -65 -76 -90 -76 -30 l0 28 -38 -40 c-21 -22 -48 -48 -60 -57 -14 -11 -22
-29 -22 -48 0 -20 -5 -30 -15 -30 -9 0 -15 -10 -15 -26 0 -16 -13 -37 -35 -58
-51 -49 -46 -72 23 -112 1 0 -13 -55 -32 -120 -53 -187 -71 -275 -56 -284 6
-4 24 -34 38 -66 20 -47 25 -70 22 -114 -11 -136 -4 -234 18 -276 26 -51 85
-104 115 -104 26 0 65 25 86 53 14 19 15 19 28 2 21 -30 17 -118 -7 -148 -29
-37 -79 -44 -130 -19 l-41 20 24 -31 c69 -90 216 -90 253 0 20 46 13 52 -10 9
-24 -44 -52 -58 -112 -54 l-49 3 35 16 c48 22 66 46 90 114 19 56 44 95 61 95
4 0 10 -19 14 -42 4 -24 16 -60 26 -80 11 -21 19 -57 19 -82 0 -36 -6 -50 -30
-75 -27 -26 -39 -30 -93 -33 l-62 -3 74 -14 c115 -21 205 3 273 73 57 58 73
100 73 186 0 64 -5 83 -28 123 -26 44 -69 77 -100 77 -8 0 -26 -9 -39 -20 -14
-10 -28 -16 -32 -13 -12 12 -6 48 14 81 39 64 122 91 163 55 11 -10 -2 11 -28
47 -68 93 -78 120 -69 196 6 58 8 64 30 64 65 0 133 -56 174 -143 l26 -58 -4
59 c-5 65 12 111 51 136 26 17 112 33 105 20 -53 -110 -52 -103 -59 -284 -10
-233 -28 -322 -91 -442 -43 -82 -110 -145 -198 -187 -64 -31 -86 -36 -165 -39
-73 -3 -102 0 -154 18 -119 40 -181 97 -251 231 -61 118 -73 188 -73 434 0
160 -3 198 -10 160 -5 -27 -9 -129 -10 -225 0 -149 3 -187 21 -253 49 -180
155 -316 299 -385 73 -35 84 -37 173 -37 86 0 101 3 164 33 99 46 181 134 240
254 70 142 86 220 95 448 8 203 12 222 58 271 l24 26 -47 7 c-85 11 -156 -21
-190 -87 l-15 -28 -26 31 c-36 44 -74 60 -136 60 l-55 0 -7 -69 c-9 -92 -1
-121 45 -174 22 -24 36 -47 33 -51 -3 -3 -20 -6 -37 -6 -37 0 -90 -30 -106
-61 -15 -26 -8 -112 10 -133 9 -11 17 -13 30 -6 75 40 150 -25 150 -129 0
-135 -95 -241 -216 -241 l-28 0 33 34 c46 48 51 95 16 177 -15 35 -32 81 -38
102 -7 23 -17 37 -27 37 -18 0 -51 -32 -70 -69 -12 -24 -12 -24 -26 15 -17 50
-45 73 -59 48 -52 -91 -120 -83 -172 19 -31 61 -42 168 -23 235 10 40 13 43
28 29 27 -23 79 -47 104 -47 13 0 37 -9 55 -19 38 -24 43 -16 43 60 0 57 -9
79 -56 132 -45 50 -45 71 2 75 20 1 54 12 76 24 l39 22 -49 22 c-40 18 -53 30
-72 69 -20 42 -22 57 -17 129 4 44 13 104 20 131 11 43 17 50 41 53 20 3 31
12 39 32 8 21 19 29 46 34 55 9 67 20 54 48 -6 13 -16 53 -23 90 -18 103 -29
88 334 436 288 276 422 686 420 1287 0 244 -11 367 -50 584 -14 73 -23 136
-20 138 2 3 14 -1 26 -7 32 -17 42 2 37 75 -9 127 -78 245 -240 411 l-108 112
56 7 c30 3 55 9 54 13 -1 14 -186 174 -234 204 -119 74 -250 107 -462 115 -79
3 -143 8 -143 10 0 2 10 17 22 33 21 29 31 110 16 126 -4 4 -34 -5 -65 -19
-32 -14 -112 -44 -178 -67 -66 -23 -154 -59 -195 -80 -71 -36 -230 -146 -244
-169 -4 -6 -16 -11 -27 -11 -20 0 -20 0 1 30 25 35 110 212 110 229 0 7 19 11
48 11 50 0 83 17 178 92 23 18 48 38 58 43 25 16 3 38 -46 45 -31 4 -42 10
-38 20 2 8 6 54 8 101 l3 87 -47 -24 c-60 -30 -81 -49 -88 -80 l-7 -25 -30 31
c-61 61 -63 60 -87 -48 -26 -115 -27 -129 -6 -182 l16 -40 -39 -43 c-21 -23
-48 -57 -58 -75 -11 -17 -22 -32 -25 -32 -3 0 -6 44 -7 97 -3 159 -50 280
-142 366 -124 116 -294 150 -558 111 -118 -18 -170 -13 -220 17 -18 11 -37 18
-43 14 -28 -17 10 -175 45 -189 10 -4 6 -18 -17 -61 -24 -44 -31 -72 -35 -134
-3 -44 -3 -91 1 -105 6 -26 9 -27 54 -21 66 9 148 50 178 90 l26 34 51 -26
c33 -16 69 -26 101 -27 l49 -1 -2 65 c-3 78 9 114 51 157 57 59 135 50 179
-20 16 -26 19 -43 14 -92 -3 -38 0 -80 8 -113 13 -50 13 -53 -5 -63 -35 -19
-51 -76 -50 -182 l0 -98 -34 28 c-26 22 -32 33 -28 53 23 111 11 210 -27 210
-45 0 -101 -46 -144 -116 -21 -34 -23 -36 -29 -16 -10 30 -63 72 -91 72 -32 0
-39 -29 -21 -85 19 -54 20 -79 5 -108 -33 -64 -108 -107 -214 -122 l-50 -7 32
33 c17 19 36 53 42 76 7 23 19 46 27 51 13 7 12 11 -8 24 -57 38 -121 40 -198
8 -25 -10 -33 -9 -59 9 -35 25 -56 26 -128 5 -36 -10 -81 -15 -128 -12 -61 3
-78 8 -110 32 -36 28 -85 112 -85 149 0 14 9 17 44 17 93 0 129 79 57 127 -19
13 -43 23 -55 22 -16 0 -13 -3 11 -12 50 -18 77 -50 64 -74 -17 -32 -121 -66
-121 -39 0 7 14 16 30 20 22 4 30 11 30 26 0 32 -43 43 -165 43 -116 0 -165
-12 -165 -39 0 -8 14 -21 30 -27 42 -16 40 -38 -2 -30 -106 20 -122 74 -35
114 27 12 35 19 22 19 -25 0 -84 -35 -91 -55 -10 -25 5 -64 29 -77 12 -7 43
-15 69 -18 l47 -5 -18 -53 c-19 -56 -58 -104 -103 -128 -37 -19 -146 -18 -224
3 -65 17 -65 17 -108 -6 -40 -21 -46 -21 -72 -8 -63 31 -125 28 -181 -8 -22
-15 -23 -18 -10 -33 8 -9 18 -32 22 -50 4 -19 20 -49 37 -68 35 -40 26 -43
-57 -20 -151 40 -201 104 -169 218 16 56 14 88 -5 88 -5 0 -7 -9 -4 -20 3 -11
-2 -38 -11 -60 -31 -77 -15 -145 42 -183 77 -50 149 -70 257 -69 55 0 114 5
130 10 29 10 29 10 -15 11 -87 2 -155 50 -181 128 -10 32 -9 38 7 50 28 21 73
9 184 -48 56 -29 108 -49 125 -48 l30 1 -30 7 c-40 10 -88 36 -105 56 -12 15
-12 19 5 31 27 20 71 17 144 -7 48 -16 74 -20 116 -14 131 16 205 99 205 232
0 32 5 45 20 53 33 17 40 3 40 -75 0 -297 -299 -574 -661 -611 -148 -15 -318
48 -401 148 -24 29 -62 72 -86 96 -39 41 -45 44 -82 39 -26 -3 -57 -19 -91
-46 -51 -40 -73 -49 -83 -33 -11 19 -27 150 -27 236 -1 100 11 146 38 146 34
0 47 -39 51 -155 4 -143 4 -144 46 -107 19 17 44 33 55 37 25 8 25 7 6 69 -22
74 -20 151 5 169 l21 14 -21 6 c-16 4 -23 -1 -31 -21 -20 -52 -22 -118 -5
-168 9 -26 15 -48 13 -48 -1 -1 -18 -16 -38 -34 l-35 -32 0 107 c1 114 -12
159 -53 185 -17 10 -17 14 -4 47 9 22 14 61 13 105 -4 94 -4 90 30 130 59 67
138 53 188 -33 22 -38 27 -58 27 -116 l0 -70 47 2 c26 0 71 12 101 26 l53 24
22 -32 c26 -40 108 -81 181 -90 l53 -7 -3 104 c-4 88 -8 112 -31 158 -24 47
-25 56 -13 70 35 39 62 169 38 183 -5 2 -33 -7 -63 -21z m1649 -39 c42 -4 111
1 182 12 95 14 128 15 194 6 136 -19 251 -89 326 -198 48 -69 79 -263 60 -368
-11 -58 -46 -145 -59 -145 -4 0 -6 47 -4 105 5 157 -20 231 -115 337 -24 27
-43 53 -43 58 0 18 -54 72 -93 91 -100 52 -196 -33 -197 -173 l0 -58 -46 0
c-39 0 -51 5 -80 34 -29 29 -34 41 -34 80 0 77 36 126 120 166 32 15 37 20 16
15 -71 -15 -137 -87 -176 -193 -49 -131 -92 -182 -154 -182 -34 0 -46 26 -46
96 0 72 27 132 83 179 l41 35 -30 0 c-55 0 -104 58 -104 124 l0 25 45 -20 c25
-11 76 -23 114 -26z m-1605 10 c-20 -82 -49 -113 -108 -113 l-41 0 31 -19 c88
-53 129 -169 98 -273 -11 -37 -105 -13 -136 34 -8 13 -27 55 -43 93 -42 108
-60 138 -103 177 -36 33 -107 66 -118 56 -2 -3 14 -10 36 -17 53 -16 115 -76
130 -127 11 -36 10 -47 -8 -86 -22 -49 -72 -82 -120 -76 -26 3 -27 6 -33 73
-11 144 -93 214 -193 165 -44 -21 -96 -76 -96 -101 0 -8 -20 -34 -44 -59 -87
-88 -122 -194 -114 -348 l5 -93 -18 28 c-50 74 -62 208 -33 366 14 76 22 96
59 145 116 153 278 210 504 176 119 -18 237 -14 291 9 53 23 61 21 54 -10z
m-1256 -120 c2 -18 -1 -33 -7 -33 -27 0 -41 14 -41 42 0 25 4 29 23 26 17 -2
23 -11 25 -35z m4010 11 c4 -25 -22 -49 -43 -40 -15 5 -21 47 -8 60 14 14 48
1 51 -20z m-3948 -86 c0 -44 -12 -43 -36 4 -10 19 -13 40 -9 57 l7 26 19 -24
c11 -14 19 -39 19 -63z m104 55 c17 -57 25 -142 17 -177 -14 -60 -25 -62 -60
-15 -25 35 -31 53 -31 93 0 78 57 154 74 99z m3668 0 c18 -20 38 -86 38 -123
0 -14 -17 -44 -40 -70 l-39 -45 -10 28 c-14 36 -14 112 0 177 11 53 25 62 51
33z m105 -20 c-4 -20 -16 -46 -27 -57 l-20 -20 0 31 c0 41 19 83 38 83 11 0
13 -8 9 -37z m-3933 -33 c20 -22 36 -47 36 -55 0 -14 -4 -13 -32 1 -40 21 -57
42 -58 72 0 32 13 28 54 -18z m3996 -7 c-16 -28 -77 -70 -87 -60 -8 9 35 74
60 92 31 21 46 2 27 -32z m-3965 -88 c22 -13 55 -39 74 -58 32 -34 32 -35 13
-46 -47 -25 -95 -5 -187 77 -48 43 -51 49 -28 55 31 9 86 -3 128 -28z m4025
18 c7 -7 -77 -79 -128 -109 -33 -21 -50 -25 -77 -20 -19 4 -35 9 -35 12 0 29
81 99 138 120 33 12 88 10 102 -3z m-3506 -55 c-4 -24 -20 -85 -35 -137 -23
-74 -29 -112 -29 -185 0 -50 4 -108 9 -128 12 -52 -3 -48 -39 8 -80 126 -59
359 40 448 52 47 62 46 54 -6z m2875 28 c64 -33 111 -151 111 -276 0 -94 -20
-164 -60 -210 l-30 -35 7 50 c15 108 8 205 -24 315 -33 111 -46 170 -37 170 3
0 17 -6 33 -14z m-1559 -61 c0 -8 -7 -15 -15 -15 -26 0 -18 20 13 29 1 1 2 -6
2 -14z m234 9 c18 -7 12 -24 -10 -24 -8 0 -14 7 -14 15 0 17 2 18 24 9z
m-2459 -61 c22 -11 85 -35 140 -53 132 -43 246 -98 323 -156 34 -25 61 -48 59
-50 -2 -2 -34 9 -73 26 -38 16 -147 49 -241 74 -95 25 -190 55 -213 66 -44 23
-70 63 -70 111 0 30 1 31 18 17 9 -9 35 -25 57 -35z m2402 35 c6 -7 13 -40 17
-72 19 -173 151 -252 330 -197 83 26 107 26 136 3 l23 -19 -33 -23 c-19 -13
-57 -32 -84 -42 -50 -18 -50 -18 -11 -12 22 3 84 28 138 55 80 41 106 49 140
47 35 -2 43 -7 45 -26 2 -12 -8 -42 -22 -66 -32 -54 -91 -86 -162 -87 -44 0
-47 -1 -24 -11 42 -19 237 -15 295 6 68 25 132 66 144 94 16 33 13 107 -4 149
-28 66 9 89 46 31 16 -26 19 -46 17 -94 -4 -58 -3 -60 13 -40 8 11 33 54 54
94 36 69 94 132 122 132 7 0 18 -18 24 -40 10 -32 9 -51 -4 -102 -8 -35 -18
-71 -22 -80 -5 -13 0 -20 21 -28 16 -6 41 -23 56 -37 15 -15 31 -23 35 -20 3
4 9 58 11 120 5 114 19 167 47 167 37 0 51 -93 35 -237 -15 -140 -18 -153 -41
-153 -11 0 -42 18 -70 40 -48 38 -68 45 -114 40 -29 -3 -47 -18 -109 -95 -32
-38 -82 -87 -113 -107 -216 -147 -579 -74 -818 166 -45 45 -74 87 -109 156
-43 87 -48 103 -53 188 -5 75 -3 96 8 103 19 12 25 11 36 -3z m2340 -34 c-7
-40 -37 -78 -80 -101 -16 -8 -103 -34 -195 -58 -92 -24 -203 -57 -246 -74 -44
-17 -81 -30 -82 -28 -1 1 23 21 54 45 81 60 190 113 333 161 68 23 142 52 164
65 54 33 59 32 52 -10z m-4154 -91 c103 -140 203 -303 186 -303 -6 0 -44 33
-84 73 -56 55 -81 91 -113 157 -36 75 -66 160 -57 160 2 0 32 -39 68 -87z
m3537 22 c-32 -92 -89 -192 -144 -248 -50 -52 -96 -86 -96 -70 0 24 235 372
252 373 4 0 -2 -25 -12 -55z m-4280 -73 c0 -5 -23 -14 -51 -20 -174 -41 -363
-152 -521 -309 -93 -92 -157 -181 -232 -328 -74 -145 -115 -204 -143 -204 -19
-1 -21 3 -16 42 15 111 87 234 239 402 52 57 100 108 108 112 23 14 142 127
121 115 -11 -6 -36 -26 -54 -46 -33 -34 -39 -36 -99 -36 l-64 0 88 71 c151
120 279 178 434 197 98 12 190 14 190 4z m2562 -140 c41 -87 62 -116 126 -181
110 -111 207 -160 407 -205 53 -12 -21 -14 -605 -14 -366 0 -651 3 -635 8 17
4 65 15 109 25 229 51 421 219 502 441 25 70 29 75 37 53 6 -13 32 -71 59
-127z m2684 118 c136 -32 210 -71 362 -192 l73 -58 -63 0 c-60 0 -66 2 -99 36
-18 20 -43 40 -54 46 -11 6 10 -15 45 -47 239 -215 393 -419 415 -550 4 -22 9
-48 12 -57 3 -14 -1 -18 -19 -17 -29 0 -71 59 -137 194 -87 175 -183 302 -313
411 -134 113 -304 203 -449 236 -36 8 -46 14 -33 18 30 11 174 -1 260 -20z
m-250 -16 c189 -49 346 -140 495 -288 123 -122 176 -220 224 -411 49 -193 54
-389 14 -521 -33 -106 -121 -156 -178 -102 l-24 21 35 18 c102 53 154 228 129
440 -11 98 -38 182 -92 290 -44 88 -76 129 -116 149 -15 8 -57 41 -92 74 l-63
61 35 -50 c72 -104 93 -174 76 -255 -12 -57 -29 -67 -29 -16 0 50 -33 149 -69
205 -18 27 -55 70 -84 96 -29 26 -70 64 -91 84 -37 34 -38 34 -19 6 11 -16 23
-47 27 -68 4 -21 22 -77 40 -125 19 -48 37 -103 41 -122 l7 -35 -22 20 c-13
11 -35 45 -49 75 -15 30 -48 84 -75 120 -26 36 -63 95 -82 132 -30 59 -39 69
-89 93 -44 22 -74 28 -143 32 -48 2 -107 0 -132 -5 -37 -8 -40 -10 -15 -11 59
-2 104 -21 117 -48 7 -15 33 -42 58 -60 144 -106 154 -123 148 -235 -3 -43
-10 -84 -16 -90 -19 -19 -51 19 -93 109 -66 141 -133 187 -290 200 -100 8
-185 -12 -410 -93 -188 -67 -300 -99 -389 -109 -68 -9 -66 -7 118 99 160 92
290 158 432 219 296 127 468 153 666 101z m-3707 -254 c97 -108 131 -138 196
-173 l70 -38 -75 4 c-44 3 -99 14 -134 27 -69 27 -210 119 -214 141 -2 9 10
30 27 47 43 47 82 44 130 -8z m2530 5 c17 -20 31 -39 31 -43 0 -11 -105 -84
-166 -116 -71 -36 -145 -56 -209 -56 l-50 0 55 31 c92 50 130 81 162 128 66
100 123 117 177 56z m-4304 -217 c-9 -51 12 -202 34 -246 32 -63 74 -92 132
-92 44 0 54 5 92 39 23 22 54 42 68 46 32 8 39 -10 39 -100 0 -71 -25 -132
-66 -164 -25 -19 -36 -22 -78 -16 -112 14 -191 90 -232 220 -7 22 -13 32 -13
21 -2 -39 32 -145 74 -231 44 -93 63 -114 198 -228 32 -27 71 -72 88 -100 17
-29 27 -41 24 -27 -11 41 -71 123 -115 156 l-40 31 82 5 c92 5 164 31 211 76
48 45 54 70 7 28 -146 -131 -343 -107 -433 53 l-30 53 47 -36 c26 -19 66 -41
89 -47 48 -13 227 -5 258 12 11 5 39 41 63 78 44 68 87 111 112 111 19 0 37
-77 31 -136 -6 -56 -32 -114 -72 -162 -37 -44 -138 -92 -194 -92 l-46 0 40
-23 c54 -30 89 -96 80 -152 -6 -42 -43 -117 -60 -121 -5 -2 -23 18 -40 44 -34
52 -94 92 -141 92 -62 0 -208 161 -274 301 -52 112 -73 217 -68 338 6 124 32
203 85 262 43 48 56 49 48 7z m5982 0 c118 -125 127 -398 18 -623 -69 -145
-194 -276 -275 -289 -63 -10 -106 -40 -139 -97 -26 -46 -29 -48 -43 -32 -31
36 -48 83 -48 137 0 45 5 60 27 87 15 17 41 40 58 50 l30 19 -41 0 c-171 0
-309 182 -265 348 11 38 15 42 34 36 33 -10 56 -33 102 -104 60 -93 62 -94
181 -98 132 -5 161 1 224 44 l51 35 -16 -31 c-26 -50 -87 -112 -130 -131 -50
-23 -145 -25 -206 -4 -24 8 -69 34 -99 57 l-55 41 26 -33 c14 -18 49 -47 79
-64 45 -25 67 -31 147 -35 l94 -6 -47 -39 c-44 -37 -104 -118 -104 -140 0 -6
15 12 34 40 19 28 68 77 110 109 120 92 185 198 226 368 24 100 25 134 1 52
-41 -144 -119 -220 -236 -232 -53 -6 -56 -5 -89 30 -49 52 -72 165 -46 232 13
34 39 27 97 -26 37 -34 49 -39 91 -39 110 0 164 87 166 267 0 57 3 103 7 103
3 0 19 -15 36 -32z m-6217 -92 c-44 -129 -73 -288 -78 -432 -7 -219 20 -310
128 -429 38 -41 76 -95 85 -119 20 -52 17 -113 -5 -107 -8 2 -31 6 -49 9 -74
10 -171 142 -206 279 l-15 58 6 -61 c4 -46 1 -75 -15 -122 -12 -34 -21 -87
-21 -117 0 -64 -13 -95 -39 -95 -40 0 -44 21 -37 202 14 352 53 566 145 778
40 94 110 224 117 217 2 -2 -5 -29 -16 -61z m6462 -36 c126 -230 189 -510 203
-903 6 -177 3 -197 -36 -197 -26 0 -36 25 -42 110 -3 41 -13 93 -22 114 -13
30 -15 56 -11 110 l6 71 -20 -73 c-39 -144 -127 -264 -203 -274 -17 -3 -41 -9
-51 -13 -18 -8 -19 -5 -13 47 7 72 24 104 102 189 103 112 131 209 122 424 -6
140 -26 259 -67 393 -11 37 -23 76 -26 87 l-6 20 15 -20 c7 -11 30 -49 49 -85z
m-1102 -2099 c0 -2304 2 -2226 -49 -2373 -69 -200 -215 -396 -380 -507 -87
-60 -229 -124 -331 -152 -82 -22 -104 -23 -610 -28 -588 -7 -559 -3 -644 -81
-25 -23 -58 -62 -73 -86 -16 -24 -30 -44 -33 -44 -3 0 -16 17 -30 37 -32 47
-104 104 -177 140 l-58 28 -550 6 c-522 5 -554 6 -627 27 -353 97 -581 316
-705 678 l-38 109 -3 2198 -2 2197 2155 0 2155 0 0 -2149z m-5542 956 c6 -7
16 -35 23 -62 26 -106 99 -204 174 -232 72 -27 72 -27 25 -31 -62 -5 -113 13
-163 55 -38 32 -38 31 4 -9 36 -34 64 -50 120 -67 99 -31 118 -41 143 -74 29
-39 11 -52 -74 -52 -67 0 -70 1 -111 40 l-42 40 33 -49 c18 -27 46 -83 62
-125 94 -244 238 -361 445 -361 44 0 45 -1 38 -27 -8 -35 -49 -89 -78 -105
-30 -16 -106 -15 -148 2 -19 7 -54 27 -79 43 l-45 29 35 -31 c84 -74 184 -97
291 -67 45 13 68 15 92 7 18 -5 51 -13 75 -16 23 -4 42 -10 42 -14 0 -3 -14
-23 -31 -44 -83 -100 -213 -109 -372 -25 -73 39 -203 159 -262 242 -51 73
-113 195 -147 291 -73 202 -133 606 -96 643 15 15 33 15 46 -1z m786 -19 c11
-58 63 -151 121 -218 67 -77 167 -274 196 -388 36 -142 21 -319 -36 -431 -56
-110 -175 -198 -282 -208 l-48 -4 30 22 c227 172 261 520 67 701 -81 76 -188
118 -299 118 -64 0 -68 14 -19 67 31 34 39 37 98 41 38 2 75 -1 89 -7 17 -9
16 -6 -6 10 -76 57 -134 127 -150 183 -9 31 -15 67 -13 81 l3 25 54 -25 c37
-17 81 -53 139 -113 47 -48 69 -69 50 -46 -58 67 -74 188 -30 214 26 15 29 12
36 -22z m5250 10 c31 -44 13 -142 -37 -198 -17 -19 6 3 53 49 52 52 104 93
135 107 l50 24 3 -40 c6 -78 -49 -162 -163 -247 l-30 -22 39 15 c71 28 168 -3
200 -65 19 -35 10 -41 -58 -41 -100 0 -210 -45 -288 -118 -140 -131 -168 -355
-67 -541 36 -68 62 -98 125 -147 l49 -37 -54 6 c-111 13 -227 100 -285 215
-64 127 -74 322 -22 475 40 119 109 248 180 335 66 82 95 129 116 197 20 65
29 70 54 33z m794 10 c16 -16 15 -83 -3 -225 -40 -300 -116 -528 -237 -706
-57 -83 -167 -190 -245 -236 -161 -94 -280 -94 -375 1 -53 53 -59 68 -25 68
13 0 47 7 76 16 48 14 57 14 102 -1 111 -37 214 -15 301 66 l43 40 -48 -35
c-57 -42 -145 -70 -192 -62 -18 4 -45 16 -59 27 -25 19 -66 87 -66 107 0 5 35
12 78 15 117 8 184 38 263 116 64 64 102 129 165 281 11 24 29 59 41 77 l22
32 -42 -30 c-38 -28 -48 -30 -104 -27 -80 5 -93 16 -64 57 17 24 38 35 94 52
105 31 163 64 197 111 17 22 30 46 30 51 0 6 -13 -10 -29 -36 -44 -68 -148
-112 -211 -89 -23 8 -21 10 26 26 27 9 66 29 85 45 42 35 94 128 109 196 16
71 39 92 68 63z m-545 -1242 c-19 -33 -123 -136 -137 -136 -23 0 -20 28 6 66
18 26 87 68 136 83 2 1 -1 -5 -5 -13z m-5689 -36 c2 0 15 -17 30 -38 24 -36
27 -72 6 -72 -9 0 -121 114 -133 136 -6 11 4 9 43 -6 28 -11 52 -20 54 -20z
m122 -145 c-7 -20 -35 -16 -49 7 -8 12 -7 21 3 33 12 15 15 15 33 -4 12 -11
17 -26 13 -36z m5397 25 c5 -20 -17 -40 -42 -40 -18 0 -12 48 6 59 21 11 29 7
36 -19z m-5310 -48 c20 -18 24 -82 5 -82 -29 1 -68 57 -68 96 0 18 35 10 63
-14z m-76 -55 c5 -36 -15 -87 -36 -87 -8 0 -4 102 5 129 7 22 24 -1 31 -42z
m5356 -24 c3 -35 2 -63 -3 -63 -18 0 -32 33 -32 75 2 92 27 83 35 -12z m-143
2 c0 -17 45 -21 55 -5 9 15 25 12 25 -4 0 -7 11 -29 24 -49 22 -32 23 -36 8
-40 -9 -3 -3 -5 14 -6 55 -2 72 -51 18 -51 -42 0 -84 27 -84 55 0 22 -2 24
-27 14 -42 -16 -53 -5 -53 51 0 27 5 50 10 50 6 0 10 -7 10 -15z m-5020 -62
c15 -19 19 -35 15 -53 -16 -63 -43 -49 -52 28 -7 59 4 67 37 25z m4977 -24
c-5 -39 -3 -49 6 -41 7 5 24 12 40 14 21 4 27 1 27 -13 0 -10 8 -23 19 -28 25
-14 33 -38 21 -62 -14 -26 -34 -24 -54 6 -12 18 -25 25 -47 25 -26 0 -30 3
-26 19 3 14 1 18 -9 14 -17 -6 -37 42 -29 68 8 23 33 49 47 49 7 0 9 -18 5
-51z m-5022 -52 c23 -33 18 -47 -15 -47 -23 0 -33 -6 -42 -25 -15 -34 -46 -33
-54 2 -5 20 -2 30 14 44 12 9 22 26 22 36 0 16 6 19 30 15 17 -2 37 -14 45
-25z m85 -43 c0 -32 -4 -44 -12 -42 -14 5 -23 51 -14 74 11 30 26 12 26 -32z
m4883 14 c5 -40 0 -58 -19 -58 -10 0 -14 13 -14 45 0 54 25 64 33 13z m-4943
-60 c33 -24 99 -163 127 -268 25 -96 23 -204 -6 -258 -35 -68 -97 -129 -149
-148 -26 -10 -53 -22 -59 -27 -10 -7 -13 -2 -13 21 0 40 15 73 62 142 22 32
41 72 44 95 5 35 4 38 -9 23 -24 -30 -66 -41 -93 -23 -30 19 -30 23 1 35 66
25 83 140 45 295 -11 44 -20 89 -20 101 0 40 26 45 70 12z m5044 6 c3 -8 -4
-56 -15 -107 -25 -111 -29 -210 -10 -255 13 -32 62 -68 75 -55 3 4 6 1 6 -5 0
-15 -40 -42 -63 -42 -11 0 -32 14 -49 32 l-29 31 6 -29 c13 -58 18 -68 61
-132 58 -87 73 -168 26 -142 -9 5 -38 18 -63 28 -87 37 -158 153 -159 258 0
127 88 370 150 411 39 27 56 29 64 7z m-4929 -15 c8 -23 -7 -45 -24 -35 -6 4
-11 18 -11 32 0 30 26 32 35 3z m4780 11 c7 -12 -12 -50 -26 -50 -16 0 -22 29
-9 45 14 17 26 19 35 5z m-5571 -479 c29 -29 31 -36 31 -101 l0 -69 21 47 c38
85 92 132 172 148 l30 6 7 -71 c7 -66 5 -74 -21 -118 -15 -27 -45 -73 -67
-103 -36 -50 -37 -52 -9 -26 26 24 36 27 66 22 64 -12 130 -95 112 -141 -4
-13 -10 -12 -39 5 -41 24 -68 17 -108 -26 -35 -38 -45 -60 -53 -116 -17 -113
28 -208 124 -266 30 -18 60 -30 67 -27 7 2 13 0 13 -5 0 -11 128 -11 175 -1
25 6 21 8 -29 13 -51 4 -64 10 -88 37 -34 38 -38 99 -9 147 11 18 23 53 26 78
6 36 11 46 23 44 18 -4 32 -27 64 -112 20 -51 29 -63 66 -81 47 -24 40 -35
-21 -35 -36 1 -62 17 -89 57 -11 17 -18 22 -18 13 0 -42 67 -90 127 -90 39 0
106 35 131 69 l22 30 -35 -15 c-80 -33 -141 -3 -151 76 -3 25 -1 58 5 74 l12
29 32 -30 c42 -40 69 -48 105 -29 93 48 130 175 101 342 -10 60 -9 67 15 116
14 28 26 60 26 71 0 10 5 17 13 15 19 -7 29 -231 17 -369 -12 -138 -36 -222
-87 -307 -72 -118 -146 -177 -258 -206 -204 -54 -410 44 -505 237 -52 108 -71
202 -79 407 -6 172 -9 189 -34 244 l-27 59 46 -6 c34 -3 55 -13 78 -36z"/>
<path d="M7294 11074 c-11 -26 -12 -43 -5 -62 9 -25 9 -24 10 16 1 24 6 52 11
63 6 10 8 19 5 19 -3 0 -13 -16 -21 -36z"/>
<path d="M7071 10984 c-1 -6 -18 -30 -38 -55 -30 -34 -32 -40 -13 -28 33 22
63 64 57 80 -3 8 -6 9 -6 3z"/>
<path d="M5080 11100 c0 -3 7 -25 15 -50 l15 -45 -4 39 c-3 22 -10 44 -16 50
-5 5 -10 8 -10 6z"/>
<path d="M5310 10983 c0 -20 46 -76 69 -85 20 -7 17 0 -19 39 -24 27 -45 50
-47 52 -2 2 -3 0 -3 -6z"/>
<path d="M7349 10593 c-65 -105 -185 -199 -301 -234 -57 -18 -87 -20 -176 -17
-59 3 -116 8 -127 12 -17 6 -17 6 -4 -3 9 -6 49 -16 88 -23 162 -28 329 29
443 151 35 37 73 86 86 109 29 52 22 55 -9 5z"/>
<path d="M8293 10583 c9 -2 23 -2 30 0 6 3 -1 5 -18 5 -16 0 -22 -2 -12 -5z"/>
<path d="M3192 9970 c0 -14 2 -19 5 -12 2 6 2 18 0 25 -3 6 -5 1 -5 -13z"/>
<path d="M3140 9790 c0 -34 43 -168 72 -223 33 -61 116 -155 158 -177 15 -8
-1 15 -40 56 -71 76 -125 168 -164 284 -14 41 -26 68 -26 60z"/>
<path d="M9251 9814 c0 -11 3 -14 6 -6 3 7 2 16 -1 19 -3 4 -6 -2 -5 -13z"/>
<path d="M9220 9713 c-34 -105 -102 -217 -173 -287 -67 -65 -49 -62 27 5 27
24 66 69 86 101 38 58 95 213 89 241 -2 8 -15 -19 -29 -60z"/>
<path d="M2930 9230 c24 -47 84 -116 114 -132 12 -6 0 11 -25 39 -25 27 -59
68 -74 91 -35 53 -41 54 -15 2z"/>
<path d="M9455 9238 c-16 -24 -51 -67 -79 -97 -47 -50 -49 -53 -18 -37 34 17
80 74 113 139 26 49 18 47 -16 -5z"/>
<path d="M4130 7958 c0 -2228 -1 -2175 48 -2318 94 -273 307 -484 572 -568 36
-11 76 -24 90 -28 14 -4 284 -10 600 -13 l575 -6 50 -26 c28 -15 76 -55 109
-88 32 -34 59 -61 61 -59 1 2 16 24 34 50 34 51 78 89 126 110 23 9 161 14
575 18 624 7 618 6 805 100 191 94 335 255 414 460 63 161 59 27 66 2338 l8
2112 -2067 0 -2066 0 0 -2082z m4068 2033 c10 -1 12 -412 10 -2098 l-3 -2098
-23 -80 c-25 -91 -77 -204 -122 -270 -122 -178 -339 -318 -546 -354 -32 -5
-295 -13 -584 -16 l-525 -6 -52 -25 c-48 -23 -89 -60 -112 -101 -8 -14 -16
-10 -55 31 -26 26 -72 59 -104 74 l-57 27 -580 6 c-646 6 -624 4 -780 79 -240
115 -417 338 -469 592 -14 69 -16 295 -16 2158 l0 2080 1723 2 c1517 3 2253 2
2295 -1z"/>
<path d="M6060 9763 c-44 -13 -44 -13 -27 -26 10 -7 25 -48 36 -102 l20 -90
-87 93 c-75 79 -92 92 -120 92 -18 0 -32 -4 -32 -10 0 -5 7 -10 15 -10 21 0
31 -29 50 -144 13 -80 13 -101 3 -107 -21 -13 -5 -18 32 -10 33 7 34 8 14 19
-17 9 -25 30 -38 98 -9 48 -14 89 -12 91 2 2 44 -40 94 -94 50 -53 94 -94 98
-90 4 4 -4 63 -18 131 -16 83 -22 130 -15 141 11 19 7 24 -13 18z"/>
<path d="M6311 9751 c16 -24 -17 -240 -37 -248 -20 -8 -6 -23 21 -23 21 0 23
3 18 39 -3 21 1 72 8 112 l13 74 13 -90 c24 -164 22 -163 72 -46 24 56 41 104
39 107 -3 2 -15 -20 -28 -51 -12 -30 -26 -55 -30 -55 -4 0 -13 42 -20 93 -13
95 -19 107 -58 107 -19 0 -21 -3 -11 -19z"/>
<path d="M6474 9729 c-3 -6 -7 -52 -9 -102 -4 -110 -11 -145 -33 -150 -10 -2
3 -8 28 -14 52 -11 58 -9 40 11 -17 21 5 223 28 249 14 16 13 17 -16 17 -17 0
-34 -5 -38 -11z"/>
<path d="M5645 9646 c-55 -25 -66 -33 -49 -38 15 -4 33 -34 67 -114 29 -69 43
-112 37 -118 -23 -23 -6 -23 43 -2 28 13 65 28 81 35 25 10 28 15 22 44 -4 17
-11 36 -17 42 -7 7 -8 5 -4 -6 10 -27 -12 -66 -44 -77 -34 -12 -41 -7 -65 52
-20 48 -21 45 11 57 23 8 30 7 41 -8 13 -16 13 -16 7 6 -4 14 -14 38 -21 55
l-13 31 -1 -31 c0 -29 -14 -44 -41 -44 -14 0 -51 92 -41 102 5 5 22 12 39 17
24 7 35 5 47 -7 16 -17 21 -7 10 22 -9 23 -29 19 -109 -18z"/>
<path d="M6666 9659 c-59 -46 -91 -160 -62 -217 30 -58 85 -68 137 -25 43 36
69 96 69 161 0 43 -5 57 -25 77 -31 31 -82 33 -119 4z m105 -20 c29 -56 -43
-229 -95 -229 -24 0 -46 30 -46 61 0 42 36 138 62 166 27 29 64 30 79 2z"/>
<path d="M6949 9567 c8 -11 -4 -37 -52 -112 -34 -54 -70 -100 -79 -103 -26 -6
-22 -14 19 -41 l36 -23 -6 22 c-4 16 4 37 25 67 40 59 54 45 34 -35 -18 -66
-15 -81 15 -100 18 -11 20 -10 17 10 -1 13 1 47 6 76 7 44 13 55 37 67 38 20
61 57 57 92 -2 21 -16 36 -52 61 -50 33 -77 42 -57 19z m71 -76 c0 -51 -42
-85 -77 -63 -9 5 -4 21 18 54 33 51 59 55 59 9z"/>
<path d="M5446 9541 c-16 -17 -15 -23 14 -101 17 -46 29 -87 28 -91 -2 -5 -34
16 -73 46 -75 58 -90 63 -121 41 -18 -14 -18 -15 8 -25 39 -15 149 -180 141
-211 l-6 -23 26 19 c31 23 33 30 9 36 -19 5 -134 158 -119 158 3 0 44 -32 92
-70 48 -39 90 -69 92 -67 2 3 -1 17 -8 33 -39 100 -68 184 -64 184 2 0 29 -33
60 -74 39 -51 53 -79 49 -91 -8 -20 -4 -19 43 10 39 23 42 35 11 35 -17 1 -40
24 -87 88 -36 48 -64 95 -64 104 2 23 -10 23 -31 -1z"/>
<path d="M6325 9398 c-4 -20 -1 -77 5 -127 24 -176 2 -269 -90 -387 -55 -70
-112 -170 -126 -224 -7 -25 -16 -54 -20 -65 -8 -18 -9 -17 -15 10 -12 52 -9
159 4 210 7 28 32 81 55 119 23 39 42 74 42 79 0 17 -135 -135 -177 -200 -55
-85 -67 -145 -60 -298 6 -105 5 -117 -8 -95 -15 30 -153 155 -161 147 -3 -3 7
-28 21 -56 38 -72 42 -118 15 -177 -74 -164 -69 -275 14 -353 29 -27 48 -21
24 6 -57 65 -59 132 -7 261 18 47 29 92 29 123 0 27 4 49 9 49 5 0 27 -41 49
-91 37 -85 93 -175 77 -124 -4 11 -7 85 -7 165 0 80 -3 168 -6 195 -9 61 3
156 23 193 13 26 14 23 15 -54 0 -59 7 -100 25 -155 14 -41 28 -100 32 -132 3
-31 7 -56 9 -54 2 2 6 33 9 68 12 143 63 276 149 389 68 88 102 151 111 206
13 70 24 73 25 7 0 -34 -9 -101 -20 -148 -45 -195 -52 -239 -45 -305 8 -78 38
-226 48 -236 4 -4 7 26 7 68 0 48 7 95 19 129 26 75 43 109 51 104 4 -2 10
-33 14 -68 3 -36 17 -97 31 -137 14 -41 25 -95 25 -122 0 -54 14 -57 24 -6 6
32 76 181 82 176 1 -2 10 -37 18 -78 12 -57 28 -94 72 -162 76 -121 82 -173
29 -252 -14 -21 -24 -41 -21 -43 12 -13 67 43 91 91 36 73 28 125 -31 212 -61
89 -88 147 -113 239 -21 82 -79 215 -92 215 -4 0 -1 -21 8 -46 19 -56 13 -126
-17 -184 -12 -23 -24 -40 -26 -37 -10 10 -44 192 -44 237 0 25 6 69 14 96 19
68 28 147 16 139 -6 -3 -10 -14 -10 -23 0 -26 -53 -132 -92 -182 -19 -25 -40
-55 -47 -65 -18 -30 -7 46 23 149 46 156 50 194 31 272 -10 38 -31 101 -46
140 -16 40 -35 107 -43 150 -13 75 -14 77 -21 42z"/>
<path d="M7164 9415 c8 -22 -139 -195 -166 -195 -21 0 -21 0 -2 -21 10 -11 27
-25 38 -31 16 -9 18 -8 12 7 -8 23 139 195 168 195 18 0 17 3 -9 30 -31 32
-51 39 -41 15z"/>
<path d="M5188 9335 c-23 -30 -22 -34 1 -28 15 4 30 -12 70 -71 29 -42 49 -76
45 -76 -3 0 -42 19 -86 41 -49 26 -77 47 -74 54 10 27 -7 22 -35 -10 -32 -36
-36 -47 -15 -39 8 3 69 -22 136 -56 67 -34 124 -59 127 -56 3 2 -17 37 -45 78
-69 104 -100 161 -95 176 8 21 -11 13 -29 -13z"/>
<path d="M7260 9310 l-25 -20 27 0 c16 0 31 -8 37 -19 9 -15 -2 -30 -69 -96
-60 -58 -85 -76 -100 -72 -29 8 -25 -5 16 -44 29 -27 35 -30 30 -13 -5 16 10
36 73 97 43 42 83 77 89 77 21 0 34 -28 22 -49 -14 -28 1 -27 28 2 24 25 28
37 13 37 -14 0 -100 93 -101 108 0 17 -11 15 -40 -8z"/>
<path d="M7446 9116 c3 -8 -34 -59 -87 -120 -50 -59 -89 -109 -87 -111 3 -3
55 13 117 35 61 22 125 40 141 40 35 0 36 2 13 37 l-17 26 -6 -22 c-5 -22 -49
-44 -149 -76 -24 -7 -24 -7 6 31 63 78 91 104 107 98 21 -8 20 -2 -5 40 -20
35 -44 50 -33 22z"/>
<path d="M4971 9054 c-26 -43 -26 -47 -2 -39 25 8 209 -109 213 -136 2 -14 16
-1 51 52 l48 72 -28 23 c-36 30 -49 30 -29 2 21 -30 20 -51 -3 -79 l-19 -23
-101 67 c-72 48 -99 71 -95 82 12 29 -14 14 -35 -21z"/>
<path d="M7583 8876 c8 -19 -213 -118 -230 -104 -19 15 -16 -2 7 -48 14 -29
19 -34 20 -18 0 16 13 27 48 42 69 30 76 12 19 -46 -26 -26 -47 -57 -47 -67 0
-23 20 -59 20 -37 0 7 21 35 47 63 40 43 50 49 74 44 50 -11 99 26 99 76 0 24
-41 109 -53 109 -5 0 -7 -6 -4 -14z m33 -92 c-3 -8 -21 -22 -40 -31 -29 -13
-38 -14 -51 -3 -26 21 -17 37 33 57 39 17 48 18 55 6 5 -8 6 -21 3 -29z"/>
<path d="M4851 8821 c-28 -51 3 -101 70 -116 23 -5 40 0 79 25 48 31 51 32 75
16 45 -29 26 -76 -29 -76 -24 0 -27 -3 -16 -10 31 -20 67 -12 79 18 16 38 1
77 -38 97 -43 22 -80 19 -123 -11 -26 -18 -45 -24 -62 -20 -49 12 -39 66 12
66 29 0 20 14 -15 24 -16 5 -25 2 -32 -13z"/>
<path d="M4787 8623 c-7 -42 -3 -51 15 -36 9 8 45 2 121 -20 86 -23 110 -34
117 -51 7 -18 9 -16 19 19 15 53 14 57 -7 46 -24 -13 -242 46 -242 66 0 29
-18 11 -23 -24z"/>
<path d="M7660 8635 c0 -9 -48 -38 -127 -76 -92 -43 -124 -63 -113 -68 8 -5
67 -12 130 -16 70 -4 123 -12 137 -21 21 -13 22 -13 16 24 -7 46 -12 52 -20
24 -4 -18 -12 -22 -47 -21 -22 0 -63 4 -91 8 l-50 7 79 39 c68 33 81 37 99 26
18 -12 19 -11 14 11 -4 12 -7 35 -7 51 0 15 -4 27 -10 27 -5 0 -10 -7 -10 -15z"/>
<path d="M6181 8467 c-20 -53 -38 -126 -43 -172 -5 -44 -11 -103 -15 -132 -3
-29 -2 -65 2 -80 7 -24 11 -14 31 67 13 52 23 107 24 122 1 61 11 60 55 -6 31
-47 46 -84 55 -133 11 -59 14 -64 22 -43 5 14 8 52 6 86 -3 53 -10 70 -52 132
l-49 71 1 81 c1 45 4 85 7 91 4 5 3 9 -2 9 -4 0 -23 -42 -42 -93z"/>
<path d="M4766 8461 c-10 -11 -20 -44 -23 -77 -6 -54 -5 -58 10 -46 13 12 34
11 124 -4 59 -9 116 -24 126 -32 15 -13 17 -13 17 0 0 9 3 31 7 49 6 33 5 33
-13 17 -18 -16 -34 -16 -101 -2 -36 7 -16 32 30 39 93 14 95 15 99 46 5 30 -1
36 -17 20 -6 -5 -36 -16 -68 -24 -58 -14 -59 -14 -82 9 -30 30 -84 32 -109 5z
m99 -41 c21 -23 13 -54 -12 -46 -10 3 -35 8 -55 12 -42 7 -42 7 -28 35 14 26
71 26 95 -1z"/>
<path d="M7569 8338 c-16 -18 -38 -43 -49 -55 -23 -27 -43 -29 -64 -7 -24 24
-19 42 17 64 l32 20 -33 0 c-25 0 -35 -5 -42 -25 -21 -56 39 -106 110 -90 27
6 80 55 80 75 0 15 40 31 60 25 30 -9 26 -49 -6 -64 -34 -15 -25 -25 15 -16
27 6 31 11 31 40 0 42 -29 65 -83 65 -31 0 -44 -7 -68 -32z"/>
<path d="M6437 8322 c4 -29 -3 -57 -26 -112 -35 -82 -51 -160 -32 -160 6 0 11
10 11 21 0 24 57 129 70 129 12 0 50 -106 50 -140 0 -17 5 -30 10 -30 6 0 10
6 10 13 0 8 16 35 35 62 40 57 51 47 43 -35 -4 -38 -2 -48 7 -40 33 27 38 129
10 202 -9 22 -25 14 -25 -12 0 -11 -14 -36 -32 -56 l-32 -36 -21 64 c-21 61
-71 168 -79 168 -2 0 -2 -17 1 -38z"/>
<path d="M4940 8231 c0 -6 6 -11 13 -11 26 0 49 -37 45 -72 -3 -33 -3 -33 -60
-36 l-58 -3 0 31 c0 22 6 33 23 40 17 7 7 9 -38 8 -40 0 -52 -2 -35 -7 19 -5
26 -14 28 -39 l3 -32 -55 0 -56 0 0 40 c0 35 4 42 28 52 27 11 27 12 4 16 -48
8 -53 -1 -50 -93 2 -68 5 -82 15 -69 9 12 38 17 130 21 118 6 119 6 130 -18
10 -20 12 -7 12 74 1 96 1 97 -23 97 -13 0 -31 3 -40 6 -9 3 -16 1 -16 -5z"/>
<path d="M5920 8145 c0 -63 2 -69 34 -101 36 -36 72 -49 44 -16 -17 20 -41 83
-33 90 3 3 28 -19 57 -48 l53 -53 -87 -27 c-143 -45 -208 -93 -249 -184 -16
-38 -20 -60 -15 -95 12 -87 77 -146 223 -201 45 -17 84 -39 88 -48 4 -9 9 -56
12 -104 l6 -87 -76 -35 c-76 -35 -117 -75 -117 -118 0 -9 -20 -40 -45 -69 -49
-58 -48 -53 -50 -159 -1 -41 -6 -100 -10 -131 -6 -47 -4 -62 15 -99 19 -36 21
-53 15 -104 -8 -76 3 -108 58 -164 l41 -42 -33 -63 c-45 -83 -59 -97 -173
-178 -59 -42 -126 -102 -175 -156 -100 -112 -137 -150 -193 -195 -24 -20 -42
-39 -39 -43 9 -8 201 147 274 220 33 34 94 86 136 117 43 31 80 62 85 69 5 9
9 8 14 -6 5 -15 13 -7 42 41 20 32 46 83 58 112 22 51 33 62 45 42 12 -19 22
-10 17 16 -2 14 -26 49 -53 78 -59 64 -72 96 -63 153 5 31 0 61 -16 112 -22
65 -22 71 -7 114 11 33 14 67 10 119 l-5 73 45 48 c41 43 49 47 67 37 20 -11
21 -10 10 9 -6 12 -15 21 -20 21 -16 0 -11 30 10 60 12 17 44 38 85 54 35 14
82 35 102 46 21 11 44 20 51 20 7 0 48 12 92 26 45 15 89 24 102 21 13 -4 51
-33 86 -65 68 -63 76 -88 43 -131 l-18 -24 -32 23 c-27 19 -41 22 -89 18 -31
-3 -65 -9 -74 -13 -13 -5 -21 0 -29 18 -7 15 -17 23 -25 20 -20 -7 -17 -34 2
-31 10 2 19 -2 20 -7 6 -17 -116 -54 -161 -49 l-40 4 36 -14 c36 -14 92 -10
175 13 21 6 39 9 41 7 2 -1 -3 -18 -11 -37 -9 -22 -11 -40 -6 -49 7 -12 10
-11 15 5 4 11 10 29 15 40 l9 20 1 -20 c0 -18 2 -18 20 5 22 28 29 63 8 42
-16 -16 -28 -15 -28 3 0 23 82 20 111 -4 17 -14 25 -34 32 -87 16 -124 24
-171 26 -141 0 18 6 27 14 24 7 -2 11 -18 9 -42 -3 -25 0 -35 7 -31 6 4 11 16
11 27 0 18 2 19 30 4 16 -8 43 -15 60 -15 25 0 30 -4 30 -23 0 -26 -33 -67
-55 -67 -21 0 -27 17 -15 40 7 14 8 20 0 20 -6 0 -13 -7 -16 -15 -10 -24 -30
-18 -66 21 -53 57 -100 76 -177 72 l-66 -3 -3 33 c-4 40 -22 43 -22 3 0 -38
-19 -44 -135 -44 -83 0 -88 -1 -60 -14 22 -9 75 -12 197 -10 160 2 168 1 195
-21 15 -12 56 -43 90 -69 80 -59 92 -86 64 -147 -11 -26 -27 -49 -37 -53 -10
-3 -55 13 -113 41 l-96 47 -125 -10 c-69 -6 -136 -11 -150 -11 -23 -1 -24 -1
-6 -12 13 -7 60 -9 142 -5 l123 6 90 -44 c49 -24 94 -52 100 -62 7 -14 5 -33
-6 -69 -18 -55 -39 -84 -61 -84 -12 0 -12 2 -1 17 13 15 10 16 -29 9 -38 -6
-44 -4 -49 13 -5 18 -7 19 -27 6 -11 -8 -43 -19 -69 -25 -58 -12 -92 0 -82 31
4 10 2 19 -3 19 -5 0 -12 -9 -15 -20 -6 -25 -34 -26 -60 -2 -19 17 -20 16 -13
-10 5 -20 2 -27 -11 -30 -12 -2 -1 -11 29 -23 27 -11 48 -23 48 -26 0 -3 -17
-10 -37 -16 l-38 -10 43 -2 c43 -1 54 -15 30 -39 -9 -9 -9 -12 4 -12 10 0 17
-13 22 -37 10 -62 7 -83 -14 -110 -29 -37 -26 -88 4 -109 14 -8 30 -31 36 -50
14 -41 35 -54 90 -54 36 0 43 4 58 31 9 18 29 47 45 64 30 37 34 63 13 104
-22 41 -10 214 13 208 9 -2 23 3 30 10 10 11 16 12 21 4 4 -7 12 -1 20 16 13
27 14 27 18 6 7 -44 32 -18 32 32 0 13 -5 35 -11 47 -14 33 4 78 31 78 21 0
99 57 100 73 0 4 -11 7 -25 7 -35 0 -31 15 11 41 l36 22 -20 20 -20 20 28 23
c15 13 34 24 41 24 8 0 2 10 -13 21 -31 23 -37 48 -12 45 9 0 21 7 28 17 9 15
7 21 -7 32 -17 12 -16 14 15 20 24 6 28 10 16 14 -14 5 -10 17 28 81 l44 75 0
-38 c0 -21 -7 -52 -16 -70 -12 -21 -13 -32 -5 -35 20 -7 13 -53 -9 -59 -24 -6
-24 -5 -5 -67 20 -65 19 -112 -4 -161 -23 -51 -61 -85 -103 -95 l-33 -7 28
-11 c47 -20 29 -50 -19 -32 -15 6 -28 9 -30 8 -1 -2 10 -23 27 -47 17 -26 29
-57 29 -76 0 -92 -85 -211 -189 -265 -31 -16 -50 -29 -43 -30 22 0 13 -25 -24
-69 -42 -49 -38 -68 6 -26 17 16 30 24 30 17 0 -19 -57 -77 -110 -113 -43 -29
-57 -47 -92 -119 -38 -78 -103 -182 -178 -287 -16 -23 -30 -45 -30 -48 0 -42
208 220 255 321 28 60 41 76 85 104 58 37 112 111 130 177 8 33 20 49 56 74
80 55 140 180 135 280 -2 47 38 159 58 159 5 0 22 25 37 56 25 51 26 61 21
141 -3 47 -2 93 2 102 16 29 32 324 20 362 -22 69 -35 84 -98 116 -68 36 -84
36 -157 2 -83 -39 -101 -19 -88 100 10 101 14 105 86 126 84 23 131 48 185 98
57 52 73 84 73 145 0 118 -117 214 -321 263 -80 20 -120 23 -266 23 l-172 -1
-16 37 c-9 20 -45 62 -81 94 l-64 57 0 -66z m579 -175 c168 -40 286 -120 309
-210 10 -40 9 -47 -8 -65 -16 -15 -22 -17 -32 -7 -10 10 -7 15 10 28 30 21 28
40 -2 21 -22 -15 -25 -15 -42 5 -48 54 -136 107 -224 134 -85 27 -90 31 -85
52 4 15 2 21 -5 17 -5 -3 -10 -13 -10 -21 0 -8 -10 -14 -26 -14 -24 0 -25 3
-19 33 5 24 4 28 -4 17 -6 -8 -11 -23 -11 -32 0 -15 -10 -18 -65 -18 -75 0
-140 -12 -250 -46 -114 -36 -157 -68 -216 -164 -7 -12 -13 -10 -34 15 -31 38
-31 61 -1 106 47 69 161 125 316 154 83 16 321 13 399 -5z m-24 -116 c89 -23
164 -63 213 -114 39 -41 43 -48 40 -89 -2 -36 -9 -49 -38 -72 -19 -16 -51 -31
-70 -34 l-35 -6 40 22 c54 29 85 59 85 81 0 23 -17 23 -58 -2 -47 -29 -48 -25
-2 18 22 22 40 44 40 51 0 22 -32 24 -58 2 -15 -11 -40 -28 -57 -37 -29 -17
-29 -16 8 25 73 80 25 110 -55 35 -55 -52 -78 -46 -33 7 31 37 30 73 -2 77
-17 3 -31 -9 -58 -47 -36 -49 -66 -70 -49 -33 4 9 8 37 8 62 1 41 -1 45 -24
45 -22 0 -28 -8 -44 -57 -23 -73 -42 -75 -48 -7 -6 62 -30 83 -68 59 -10 -6
-14 -24 -12 -56 3 -68 -7 -73 -37 -18 -20 39 -31 49 -51 49 -32 0 -39 -35 -15
-72 30 -45 2 -47 -42 -3 -65 64 -127 47 -74 -21 22 -29 44 -69 37 -69 -3 0
-21 16 -41 36 -24 23 -43 34 -58 32 -30 -4 -33 -35 -6 -64 l22 -23 -31 11
c-17 7 -34 9 -38 6 -12 -12 6 -43 38 -65 18 -13 28 -23 21 -23 -20 0 -71 49
-77 74 -17 70 65 155 199 205 111 42 301 48 430 15z m-215 -85 c0 -42 -13 -51
-30 -20 -11 22 -13 64 -3 74 14 14 33 -17 33 -54z m120 36 c0 -33 -20 -75 -37
-75 -17 0 -16 11 3 60 18 45 34 52 34 15z m-250 -27 c21 -23 27 -58 10 -58
-10 0 -40 52 -40 70 0 15 7 12 30 -12z m360 9 c0 -16 -56 -84 -63 -77 -7 7 45
90 56 90 4 0 7 -6 7 -13z m-464 -43 c33 -22 51 -54 29 -54 -16 0 -65 46 -65
61 0 13 7 11 36 -7z m554 -14 c-6 -11 -20 -25 -31 -31 -20 -10 -20 -9 2 20 25
34 46 42 29 11z m44 -64 c-21 -19 -41 -32 -43 -30 -2 2 13 19 35 38 21 19 41
32 43 30 2 -2 -13 -19 -35 -38z m-659 4 c16 -16 26 -32 24 -35 -7 -6 -79 44
-79 55 0 19 27 9 55 -20z m465 3 c66 -17 126 -54 135 -83 8 -26 -19 -70 -43
-70 -10 0 -33 11 -52 23 -106 71 -267 73 -373 5 -52 -33 -67 -32 -93 8 -21 31
3 64 68 97 92 45 236 54 358 20z m-490 -79 c0 -2 -9 0 -20 6 -11 6 -20 13 -20
16 0 2 9 0 20 -6 11 -6 20 -13 20 -16z m715 16 c-3 -5 -16 -15 -28 -21 -19 -9
-19 -8 3 10 28 23 34 26 25 11z m-281 -61 c22 -6 52 -23 67 -39 28 -27 28 -30
22 -111 -6 -87 -13 -106 -33 -94 -9 6 -10 29 -6 84 8 93 3 111 -34 111 -31 0
-40 -14 -40 -68 0 -20 -5 -44 -10 -52 -7 -11 -10 1 -10 42 0 76 -13 108 -44
108 -37 0 -51 -26 -52 -99 -1 -85 -2 -91 -14 -91 -6 0 -10 31 -10 73 0 91 -13
114 -53 96 -33 -15 -41 -43 -33 -112 8 -58 1 -87 -19 -87 -8 0 -15 26 -19 81
-6 65 -4 85 8 104 44 67 150 88 280 54z m-86 -129 c-2 -40 -8 -65 -15 -68 -10
-3 -13 13 -13 56 0 68 8 98 22 84 5 -5 8 -37 6 -72z m-100 -4 c3 -64 -7 -96
-29 -96 -10 0 -12 130 -3 155 14 35 29 6 32 -59z m211 16 c-1 -46 -13 -80 -23
-64 -9 16 4 113 15 106 5 -3 9 -22 8 -42z m311 -183 c63 -38 90 -70 90 -107 0
-29 -2 -33 -15 -22 -13 11 -15 8 -15 -14 0 -16 4 -25 10 -21 12 7 14 -18 3
-29 -5 -4 -13 -22 -20 -39 l-11 -32 -1 38 c-2 65 -82 123 -133 96 -17 -9 -23
-9 -26 0 -7 20 -40 12 -61 -15 -22 -28 -29 -60 -10 -48 10 6 8 -8 -7 -51 -7
-19 33 -70 69 -90 33 -17 40 -18 74 -6 21 7 47 21 57 30 17 13 16 11 -3 -17
-40 -58 -89 -67 -155 -29 -72 40 -97 118 -60 188 22 44 119 165 142 178 24 15
33 14 72 -10z m-53 -175 c38 -29 40 -43 13 -101 -24 -55 -55 -57 -107 -9 -35
32 -36 34 -23 65 13 31 53 71 73 71 6 0 25 -11 44 -26z m63 -53 c0 -20 -7 -46
-16 -57 -14 -18 -15 -18 -3 5 6 13 9 41 6 62 -3 22 -1 37 4 33 5 -3 9 -22 9
-43z m-576 -657 c22 -9 10 -23 -14 -17 -11 3 -17 9 -14 14 6 11 8 11 28 3z
m195 -87 c-1 -18 -5 -45 -9 -62 -6 -23 -8 -14 -9 38 -1 43 3 66 9 62 6 -3 9
-21 9 -38z m-119 -69 c0 -39 -4 -68 -10 -68 -6 0 -10 34 -10 83 0 56 3 77 10
67 5 -8 10 -45 10 -82z m52 -54 c9 -9 32 -16 52 -17 22 -1 36 -6 36 -14 0 -10
-20 -13 -75 -13 -74 0 -86 5 -64 27 7 7 14 47 18 90 l5 78 7 -68 c3 -41 12
-74 21 -83z m95 54 c-2 -18 -4 -6 -4 27 0 33 2 48 4 33 2 -15 2 -42 0 -60z
m-87 20 c0 -36 -3 -49 -10 -42 -10 10 -4 94 6 94 2 0 4 -23 4 -52z m27 -40
c-2 -18 -4 -6 -4 27 0 33 2 48 4 33 2 -15 2 -42 0 -60z m37 -112 c57 -24 49
-32 -27 -28 -39 2 -75 8 -79 15 -5 8 -11 7 -22 -2 -8 -7 -23 -11 -33 -8 -14 3
-10 8 17 20 44 20 100 21 144 3z m-150 -78 c-8 -12 -34 11 -34 30 0 13 3 12
20 -3 11 -10 17 -22 14 -27z m110 21 c13 -7 30 -25 37 -41 10 -25 9 -33 -8
-56 -24 -33 -56 -39 -89 -18 -31 21 -33 77 -4 106 23 23 30 24 64 9z"/>
<path d="M6310 7940 c-13 -8 -13 -10 2 -10 9 0 20 5 23 10 8 13 -5 13 -25 0z"/>
<path d="M6381 7934 c0 -11 3 -14 6 -6 3 7 2 16 -1 19 -3 4 -6 -2 -5 -13z"/>
<path d="M6470 7926 c0 -8 8 -13 18 -11 9 1 23 -2 30 -8 9 -7 16 -7 23 0 7 7
0 14 -22 22 -42 14 -49 14 -49 -3z"/>
<path d="M6642 7868 c2 -12 9 -23 16 -26 18 -6 15 35 -4 42 -11 4 -15 0 -12
-16z"/>
<path d="M6685 7851 c-7 -24 19 -53 41 -44 8 3 11 -2 7 -16 -7 -26 13 -28 22
-2 7 22 -14 63 -30 58 -5 -2 -15 3 -21 11 -10 14 -12 13 -19 -7z"/>
<path d="M5829 7833 c-9 -2 -22 -15 -29 -28 -7 -14 -17 -25 -21 -25 -4 0 -3
-13 2 -30 12 -33 34 -42 24 -10 -5 16 -3 19 11 13 12 -4 15 -3 10 6 -5 8 -1
14 11 17 21 6 48 42 38 52 -7 8 -25 9 -46 5z"/>
<path d="M6762 7769 c-7 -11 -11 -24 -8 -27 10 -9 28 15 24 32 -2 14 -5 13
-16 -5z"/>
<path d="M6240 7650 c-12 -8 -11 -10 8 -10 12 0 22 5 22 10 0 13 -11 13 -30 0z"/>
<path d="M6300 7640 c0 -11 7 -20 15 -20 8 0 15 9 15 20 0 11 -7 20 -15 20 -8
0 -15 -9 -15 -20z"/>
<path d="M6417 7643 c-4 -3 -7 -17 -7 -30 0 -18 5 -24 17 -21 10 2 25 -4 34
-12 43 -40 56 -47 73 -38 9 5 16 16 16 24 0 8 -4 12 -10 9 -6 -3 -10 4 -10 17
-1 23 -1 23 -16 3 -16 -20 -16 -20 -10 1 7 24 -13 38 -39 28 -9 -4 -15 0 -15
10 0 16 -21 22 -33 9z"/>
<path d="M6083 7633 c-7 -3 -13 -14 -13 -25 0 -17 -2 -18 -15 -8 -9 7 -17 11
-19 9 -7 -8 13 -49 24 -49 14 0 60 30 60 39 0 15 -26 38 -37 34z"/>
<path d="M6120 7626 c0 -8 3 -17 8 -19 9 -6 33 19 25 27 -12 11 -33 6 -33 -8z"/>
<path d="M6020 7560 c6 -11 18 -20 27 -20 14 0 13 3 -5 20 -12 11 -24 20 -27
20 -3 0 -1 -9 5 -20z"/>
<path d="M6652 7241 c-10 -6 -6 -10 15 -15 15 -4 37 -9 48 -12 18 -5 18 -3 -4
15 -25 23 -39 25 -59 12z"/>
<path d="M6742 7178 c5 -15 28 -23 28 -10 0 5 -7 13 -16 16 -10 4 -14 1 -12
-6z"/>
<path d="M6600 7066 c0 -19 43 -49 64 -44 10 2 1 13 -25 31 -30 22 -39 25 -39
13z"/>
<path d="M6310 5982 c0 -34 -25 -46 -55 -26 -24 16 -25 16 -19 -2 13 -36 27
-46 53 -39 14 4 29 12 33 18 11 17 10 55 -2 62 -5 3 -10 -3 -10 -13z"/>
<path d="M7428 8110 c-12 -48 -29 -162 -25 -166 2 -2 19 -7 38 -10 34 -6 34
-6 12 10 -17 13 -23 27 -23 56 0 21 4 42 10 45 5 3 32 3 60 -1 50 -7 51 -8 48
-37 -2 -24 -9 -33 -28 -37 -21 -5 -16 -8 23 -14 51 -8 73 -3 37 9 -16 5 -20
13 -18 33 3 26 5 27 53 24 28 -2 53 -6 56 -10 4 -4 5 -22 2 -40 -4 -23 -13
-36 -29 -42 -32 -13 -30 -20 6 -20 26 0 30 4 35 38 3 20 9 58 14 85 8 44 0 65
-12 33 -6 -14 -12 -13 -179 14 -56 10 -67 15 -71 33 -3 21 -4 21 -9 -3z"/>
<path d="M4761 7961 c-11 -7 -11 -21 -1 -80 6 -39 9 -78 6 -86 -4 -12 4 -15
37 -15 36 1 39 2 22 12 -25 14 -35 28 -35 49 0 13 23 21 111 38 106 20 112 20
125 4 19 -27 24 -13 12 40 -8 42 -12 46 -22 31 -11 -14 -161 -52 -217 -53 -27
-1 -30 37 -6 54 21 14 21 15 2 15 -11 0 -26 -4 -34 -9z"/>
<path d="M7371 7831 c-26 -73 -26 -91 1 -126 45 -58 174 -86 227 -49 29 21 51
73 51 121 -1 33 -2 36 -13 21 -12 -15 -21 -13 -116 20 -73 25 -105 41 -109 54
-8 31 -18 20 -41 -41z m154 -54 c98 -35 111 -51 74 -88 -18 -18 -29 -21 -71
-16 -94 11 -181 82 -149 121 19 22 43 19 146 -17z"/>
<path d="M4999 7770 c-52 -15 -68 -30 -80 -73 -14 -53 -25 -67 -56 -67 -34 0
-40 26 -13 56 17 17 20 24 9 24 -54 0 -66 -74 -16 -98 21 -10 35 -11 61 -2 43
14 62 35 75 87 16 58 54 79 85 47 22 -21 20 -31 -9 -59 -17 -18 -20 -25 -9
-25 50 0 70 49 37 88 -22 25 -50 32 -84 22z"/>
<path d="M7302 7656 c-16 -35 -15 -36 6 -36 9 0 28 -9 42 -19 21 -17 23 -22
12 -45 -6 -14 -20 -26 -29 -26 -34 0 -63 12 -63 26 0 23 -14 16 -28 -14 -26
-53 -27 -56 -8 -45 13 7 51 2 134 -18 125 -30 156 -34 150 -20 -1 5 -46 48
-98 95 -52 48 -97 96 -100 108 -5 20 -6 20 -18 -6z m144 -154 c-3 -2 -21 1
-40 8 -32 10 -35 14 -25 32 11 20 11 19 40 -8 16 -15 27 -29 25 -32z"/>
<path d="M5040 7581 c-140 -44 -190 -173 -85 -217 84 -35 225 47 225 131 0 64
-71 108 -140 86z m110 -46 c32 -39 -32 -108 -131 -140 -46 -16 -52 -16 -74 -1
-32 21 -31 37 1 76 54 63 174 102 204 65z"/>
<path d="M7153 7405 c-26 -40 -28 -46 -10 -39 12 4 58 -26 154 -103 36 -29 41
-37 33 -53 -8 -16 -15 -18 -35 -10 -29 11 -33 3 -7 -17 30 -23 55 -36 48 -24
-7 11 74 126 93 133 5 1 -2 17 -16 33 l-26 30 7 -29 c5 -20 2 -34 -10 -47 -16
-17 -20 -16 -105 49 -65 49 -89 73 -89 90 0 31 -11 27 -37 -13z"/>
<path d="M5272 7335 c5 -28 -189 -176 -203 -154 -15 23 -10 36 22 63 34 29 49
32 67 14 16 -16 25 -4 17 21 -9 28 -37 34 -78 17 -36 -15 -67 -50 -67 -76 0
-9 18 -39 39 -68 34 -45 40 -49 43 -30 3 23 167 155 199 160 15 3 14 8 -12 38
-23 27 -29 30 -27 15z"/>
<path d="M6301 7284 c0 -7 -10 -14 -21 -17 -23 -6 -35 -47 -24 -84 l8 -28 6
35 c5 34 6 34 14 10 7 -23 9 -21 17 20 5 25 7 52 5 60 -2 8 -4 10 -5 4z"/>
<path d="M6366 7254 c-4 -22 -14 -49 -22 -62 -15 -23 -15 -23 22 -20 41 3 61
25 50 54 -8 18 -9 18 -17 -3 -12 -32 -20 -28 -13 6 3 16 2 37 -4 46 -8 15 -11
11 -16 -21z"/>
<path d="M6430 7173 c0 -22 2 -25 10 -13 13 20 13 40 0 40 -5 0 -10 -12 -10
-27z"/>
<path d="M6455 7139 c-4 -6 -5 -13 -2 -16 7 -7 27 6 27 18 0 12 -17 12 -25 -2z"/>
<path d="M5945 7120 c-8 -13 21 -48 31 -38 3 4 -1 16 -9 28 -10 15 -17 18 -22
10z"/>
<path d="M5980 7116 c0 -9 5 -16 10 -16 6 0 10 4 10 9 0 6 -4 13 -10 16 -5 3
-10 -1 -10 -9z"/>
<path d="M6396 7035 c-3 -31 -11 -65 -16 -75 -11 -20 4 -38 15 -20 12 19 26
11 15 -9 -15 -30 -13 -46 4 -32 11 9 13 30 9 89 -7 100 -18 119 -27 47z"/>
<path d="M6326 6991 c-5 -13 -4 -27 3 -34 16 -16 21 -4 12 29 -8 29 -8 29 -15
5z"/>
<path d="M6286 6956 c3 -9 11 -16 16 -16 13 0 5 23 -10 28 -7 2 -10 -2 -6 -12z"/>
<path d="M5870 6929 c0 -9 9 -27 20 -40 15 -19 19 -20 20 -8 0 9 -9 27 -20 40
-15 19 -19 20 -20 8z"/>
<path d="M6175 6930 c-3 -5 -12 -7 -19 -4 -15 6 -51 -25 -41 -34 3 -4 10 0 15
8 7 11 12 11 23 2 11 -9 19 -7 37 13 19 20 20 25 7 25 -9 0 -18 -4 -22 -10z"/>
<path d="M5910 6920 c0 -15 31 -60 41 -60 11 0 -16 56 -31 65 -5 3 -10 1 -10
-5z"/>
<path d="M5830 6913 c0 -19 11 -43 21 -43 13 0 11 14 -6 36 -8 10 -15 14 -15
7z"/>
<path d="M6440 6889 c0 -11 5 -17 10 -14 6 3 10 13 10 21 0 8 -4 14 -10 14 -5
0 -10 -9 -10 -21z"/>
<path d="M6318 6817 c-5 -10 -8 -40 -7 -65 l1 -47 9 34 c12 40 9 107 -3 78z"/>
<path d="M6272 6795 c-15 -33 -14 -52 2 -90 14 -30 14 -30 12 20 0 28 3 60 7
73 11 31 -7 28 -21 -3z"/>
<path d="M6408 6794 c-3 -5 -8 -22 -12 -37 -4 -15 -10 -26 -15 -23 -4 3 -13
-5 -19 -18 -9 -20 -8 -25 5 -30 35 -14 76 62 55 100 -5 9 -11 13 -14 8z"/>
<path d="M6590 6781 c-7 -15 -7 -21 0 -21 12 0 25 28 17 36 -3 3 -10 -4 -17
-15z"/>
<path d="M5834 6722 c4 -43 11 -60 21 -50 3 2 -2 24 -10 49 l-15 44 4 -43z"/>
<path d="M5866 6752 c-8 -13 11 -62 23 -62 6 0 6 12 1 31 -11 38 -16 44 -24
31z"/>
<path d="M5910 6729 c7 -11 14 -19 16 -16 7 7 -7 37 -17 37 -6 0 -5 -9 1 -21z"/>
<path d="M6166 6678 c-23 -33 -9 -36 22 -5 21 21 23 27 10 27 -9 0 -24 -10
-32 -22z"/>
<path d="M6226 6685 c-11 -8 -16 -18 -12 -22 3 -4 16 3 29 15 24 25 12 29 -17
7z"/>
<path d="M6120 6670 c-6 -11 -7 -20 -2 -20 10 0 32 21 32 32 0 16 -19 8 -30
-12z"/>
<path d="M6412 6669 c-17 -27 -5 -40 14 -15 8 11 14 23 14 28 0 15 -15 8 -28
-13z"/>
<path d="M6457 6631 c-3 -12 -1 -21 3 -21 15 0 23 21 12 32 -6 6 -11 2 -15
-11z"/>
<path d="M6497 6617 c-11 -29 -9 -43 4 -30 6 6 9 19 7 29 -3 18 -4 18 -11 1z"/>
<path d="M6286 6564 c-10 -25 -7 -84 4 -84 6 0 10 23 10 50 0 52 -4 61 -14 34z"/>
<path d="M6357 6550 c-3 -8 -8 -41 -11 -72 -6 -56 -6 -57 16 -49 17 6 24 17
25 42 2 29 1 31 -7 14 -9 -17 -10 -15 -6 10 5 36 -9 79 -17 55z"/>
<path d="M5890 6447 c0 -7 16 -28 35 -47 36 -35 49 -24 19 18 -20 29 -54 48
-54 29z"/>
<path d="M6280 6441 c0 -12 5 -21 10 -21 6 0 10 6 10 14 0 8 -4 18 -10 21 -5
3 -10 -3 -10 -14z"/>
<path d="M5975 6430 c4 -14 13 -31 19 -38 13 -14 49 -6 44 10 -2 5 -6 8 -10 6
-3 -2 -19 8 -33 22 l-27 25 7 -25z"/>
<path d="M6227 6422 c-28 -30 -20 -49 8 -22 25 24 32 40 17 40 -5 0 -16 -8
-25 -18z"/>
<path d="M6400 6409 c0 -5 5 -7 10 -4 6 3 10 8 10 11 0 2 -4 4 -10 4 -5 0 -10
-5 -10 -11z"/>
<path d="M6548 6320 c-3 -19 -1 -29 6 -27 15 5 20 37 8 49 -6 6 -11 -1 -14
-22z"/>
<path d="M5960 6287 c0 -4 52 -114 69 -147 9 -18 80 -60 101 -60 8 0 0 15 -22
38 -19 20 -52 63 -71 94 -20 31 -45 62 -56 68 -12 6 -21 9 -21 7z"/>
<path d="M6508 6150 c-9 -16 -31 -38 -48 -49 -38 -23 -23 -38 18 -17 31 16 56
55 50 80 -2 12 -7 8 -20 -14z"/>
<path d="M5801 6065 c-30 -58 -52 -107 -48 -111 8 -8 83 108 97 152 26 76 2
57 -49 -41z"/>
<path d="M5977 6141 c-13 -64 -8 -112 20 -162 14 -27 28 -47 30 -45 4 4 -10
88 -30 181 -13 58 -13 59 -20 26z"/>
<path d="M5724 6048 c-17 -33 -45 -140 -39 -146 6 -6 26 38 50 109 25 72 18
93 -11 37z"/>
<path d="M6040 6047 c0 -36 25 -83 51 -98 30 -16 36 -3 11 24 -12 13 -22 27
-22 33 0 5 -9 23 -20 39 l-20 30 0 -28z"/>
<path d="M5641 5935 c-11 -36 -21 -71 -21 -77 0 -21 26 25 43 76 19 56 20 66
8 66 -4 0 -18 -29 -30 -65z"/>
<path d="M5981 5903 c0 -21 6 -65 13 -98 l13 -60 8 48 c7 48 -8 132 -26 143
-5 3 -9 -12 -8 -33z"/>
<path d="M5572 5880 c-18 -30 -32 -61 -32 -69 0 -8 -6 -11 -15 -7 -19 7 -43
-29 -50 -75 l-6 -34 23 42 c13 26 28 42 37 40 10 -1 27 21 49 65 42 84 37 113
-6 38z"/>
<path d="M5927 5880 c-3 -19 -9 -66 -12 -105 -3 -38 -9 -81 -12 -94 -4 -15 -2
-22 4 -18 6 4 18 38 28 76 13 54 15 82 8 123 -10 52 -10 53 -16 18z"/>
<path d="M6150 5890 c0 -21 17 -46 25 -38 4 4 0 17 -9 30 -10 14 -16 17 -16 8z"/>
<path d="M6110 5818 c0 -15 5 -30 10 -33 13 -8 13 25 0 45 -8 12 -10 9 -10
-12z"/>
<path d="M6075 5799 c-9 -14 3 -59 16 -59 6 0 6 6 -1 19 -5 11 -7 27 -4 35 7
18 -1 22 -11 5z"/>
<path d="M5862 5753 c-28 -61 -56 -196 -36 -168 29 40 79 215 62 215 -3 0 -14
-21 -26 -47z"/>
<path d="M5806 5718 c-9 -14 -27 -56 -40 -94 -13 -38 -27 -78 -32 -89 -7 -17
-6 -18 8 -7 8 6 32 55 53 107 37 94 42 130 11 83z"/>
<path d="M5691 5571 c-21 -40 -29 -97 -12 -87 11 7 45 116 38 123 -3 3 -15
-13 -26 -36z"/>
<path d="M5611 5498 c-13 -21 -27 -36 -31 -33 -9 5 -48 -42 -69 -82 -21 -41
17 -15 44 31 21 34 25 37 25 18 0 -31 16 -20 41 29 28 56 20 86 -10 37z"/>
<path d="M3198 7950 c50 -41 154 -49 199 -14 16 13 15 13 -10 4 -44 -15 -102
-12 -159 10 -52 19 -53 19 -30 0z"/>
<path d="M3450 7771 c-59 -4 -77 -8 -60 -13 39 -12 112 -8 145 7 17 7 23 13
15 12 -8 0 -53 -3 -100 -6z"/>
<path d="M3540 8705 c13 -14 26 -25 28 -25 3 0 -5 11 -18 25 -13 14 -26 25
-28 25 -3 0 5 -11 18 -25z"/>
<path d="M3606 8630 c127 -146 221 -321 243 -453 9 -51 9 -52 10 -12 3 124
-88 302 -226 444 -36 36 -48 46 -27 21z"/>
<path d="M3470 8551 c30 -10 71 -25 90 -35 l35 -17 -28 25 c-28 26 -84 46
-127 45 -16 0 -6 -6 30 -18z"/>
<path d="M8786 8639 c-90 -95 -152 -180 -195 -266 -34 -66 -65 -190 -58 -232
4 -23 4 -22 6 5 6 129 125 351 272 509 34 36 59 65 56 65 -3 0 -39 -37 -81
-81z"/>
<path d="M8894 8559 c-23 -5 -51 -20 -63 -33 l-23 -24 48 24 c26 13 55 24 63
24 9 0 23 5 31 10 13 9 13 10 0 9 -8 -1 -33 -5 -56 -10z"/>
<path d="M9489 8553 c-13 -16 -12 -17 4 -4 9 7 17 15 17 17 0 8 -8 3 -21 -13z"/>
<path d="M9165 7949 c-45 -21 -135 -25 -167 -8 -14 8 -18 8 -14 0 4 -6 26 -16
49 -22 52 -14 136 2 162 31 21 24 21 24 -30 -1z"/>
<path d="M8855 7766 c33 -16 118 -20 150 -6 14 6 -4 9 -55 9 -41 1 -86 4 -100
6 -22 5 -21 3 5 -9z"/>
<path d="M3768 6975 c4 -16 7 -75 6 -130 0 -80 -4 -109 -22 -147 -12 -27 -19
-48 -16 -48 3 0 19 30 36 66 28 60 30 72 26 142 -3 42 -12 93 -21 112 -15 33
-16 33 -9 5z"/>
<path d="M8609 6953 c-8 -21 -14 -74 -14 -118 0 -68 5 -88 28 -132 14 -28 32
-55 38 -59 6 -3 4 4 -4 17 -41 64 -60 210 -37 288 13 48 5 51 -11 4z"/>
<path d="M2986 6668 c9 -17 20 -52 24 -77 l8 -46 1 45 c1 29 -6 57 -19 78 -25
41 -36 42 -14 0z"/>
<path d="M3233 6575 c-12 -25 -18 -43 -12 -40 13 9 41 64 37 76 -2 5 -13 -12
-25 -36z"/>
<path d="M3119 6523 c-17 -36 -38 -103 -46 -147 -35 -183 32 -378 161 -468 22
-16 18 -9 -15 23 -100 98 -134 196 -127 368 4 96 10 131 35 204 17 48 29 87
26 87 -2 0 -18 -30 -34 -67z"/>
<path d="M5005 10785 c22 -22 58 -75 80 -118 21 -43 42 -80 45 -82 4 -2 5 19
3 48 -3 38 1 62 16 90 25 48 4 43 -28 -7 l-25 -37 -15 29 c-24 43 -52 76 -86
98 -25 16 -24 13 10 -21z"/>
<path d="M5010 10638 c0 -22 65 -114 116 -166 115 -115 281 -170 435 -144 39
7 79 17 88 23 13 9 13 9 -4 3 -11 -4 -68 -9 -126 -12 -81 -3 -121 0 -165 13
-119 34 -216 106 -295 218 -27 39 -49 68 -49 65z"/>
<path d="M9390 6660 c-11 -21 -20 -54 -19 -72 0 -29 2 -26 15 20 7 29 19 62
24 73 6 10 8 19 6 19 -3 0 -15 -18 -26 -40z"/>
<path d="M9131 6622 c-1 -18 28 -80 41 -88 5 -3 1 11 -10 32 -11 22 -22 46
-25 54 -4 11 -6 11 -6 2z"/>
<path d="M9266 6508 c39 -113 51 -246 31 -341 -9 -43 -26 -99 -38 -125 -22
-45 -90 -122 -139 -155 -22 -16 -21 -16 8 0 19 10 56 42 83 70 130 138 156
361 65 567 -14 31 -27 56 -29 56 -3 0 6 -32 19 -72z"/>
<path d="M3001 5210 c35 -46 85 -100 111 -119 26 -20 46 -39 45 -42 -1 -4 -42
-28 -92 -54 -95 -50 -185 -111 -185 -126 0 -6 26 -7 68 -2 37 4 126 7 197 6
203 -2 363 -53 464 -148 67 -63 97 -117 105 -190 18 -162 26 -185 92 -252 66
-67 124 -99 189 -105 38 -3 40 -1 52 32 6 19 12 61 12 93 1 31 3 57 5 57 2 0
34 -13 70 -30 l66 -29 0 -59 c0 -92 18 -171 48 -209 48 -60 189 -115 477 -187
466 -116 1074 -173 1645 -155 855 27 1382 94 1732 221 67 24 143 95 158 147 6
20 13 77 17 128 l6 91 61 26 c34 14 65 26 69 26 5 0 5 -25 2 -55 -4 -30 -4
-71 -1 -90 7 -34 8 -35 54 -35 70 0 142 40 198 108 61 74 70 95 78 174 12 119
42 197 96 250 56 53 163 108 265 134 76 19 292 25 398 11 56 -7 58 -7 47 13
-15 28 -112 99 -194 141 -36 19 -66 36 -66 39 1 3 19 17 40 32 51 36 168 192
146 196 -8 2 -25 -3 -38 -11 -24 -16 -87 -27 -284 -52 -206 -26 -291 -55 -357
-123 -33 -34 -40 -50 -56 -128 -10 -50 -28 -108 -39 -130 -19 -38 -68 -92 -75
-83 -2 2 0 40 4 84 13 139 12 162 -11 168 -37 10 -73 -9 -190 -97 -137 -104
-283 -178 -384 -196 -85 -14 -128 -31 -161 -64 -24 -24 -25 -31 -26 -148 0
-68 -3 -130 -7 -138 -4 -9 -23 -17 -46 -19 -21 -1 -57 -9 -80 -17 -84 -31
-495 -81 -856 -106 -232 -15 -946 -15 -1185 1 -556 36 -984 101 -1047 157 -15
14 -16 30 -11 128 3 67 1 121 -5 137 -13 33 -87 69 -190 94 -94 22 -280 122
-446 239 -37 26 -69 40 -100 43 l-46 6 0 -122 c0 -119 0 -121 -20 -109 -30 19
-57 81 -76 173 -21 101 -35 128 -85 165 -66 48 -142 70 -349 102 -107 16 -226
41 -265 54 -38 14 -79 28 -89 31 -13 4 2 -22 45 -77z m179 -10 c63 -10 158
-25 210 -34 128 -21 189 -40 246 -79 53 -35 64 -61 68 -153 1 -29 8 -59 15
-68 11 -13 11 -16 0 -16 -11 0 -13 -20 -12 -94 l3 -94 -55 53 c-65 64 -185
126 -300 156 -54 14 -130 23 -235 27 l-155 7 45 27 c25 15 83 41 130 58 46 17
86 32 87 34 1 1 -24 21 -56 45 -58 41 -105 93 -131 140 -11 22 -11 23 6 17 11
-4 71 -16 134 -26z m6231 -27 c-11 -22 -127 -132 -159 -153 -23 -15 -21 -17
92 -73 163 -83 164 -85 9 -86 -136 0 -260 -19 -349 -52 -75 -28 -167 -92 -205
-142 -30 -41 -31 -41 -25 -12 20 99 20 101 3 86 -15 -12 -17 -9 -17 28 0 23 5
51 10 62 9 15 7 19 -6 19 -16 0 -15 2 2 21 14 16 15 22 5 28 -10 7 -9 14 5 37
11 15 13 25 7 21 -16 -10 -17 13 -1 48 26 58 174 121 353 150 141 22 215 32
253 34 28 1 31 -1 23 -16z m-5393 -286 c167 -112 345 -198 512 -248 46 -14 70
-37 70 -66 0 -20 -5 -23 -40 -23 -22 0 -73 12 -113 26 -39 15 -98 33 -129 42
-53 13 -62 13 -103 -2 -51 -20 -51 -18 -30 -136 19 -110 19 -150 0 -150 -8 0
-40 12 -71 27 l-56 28 3 161 c4 184 1 192 -79 247 -89 61 -113 89 -119 136 -6
43 -5 44 19 38 14 -4 75 -40 136 -80z m4602 17 c-10 -44 -16 -50 -105 -111
-92 -64 -98 -80 -97 -281 l0 -152 -41 -22 c-23 -11 -54 -24 -70 -29 l-29 -8 6
52 c17 148 18 197 6 227 -23 54 -81 53 -209 -4 -60 -27 -92 -36 -134 -36 -60
0 -74 9 -58 39 11 19 29 27 166 70 122 39 322 144 419 221 69 54 97 70 122 70
32 0 32 0 24 -36z m-4682 -109 c33 -19 67 -46 76 -59 18 -29 21 -62 6 -71 -20
-12 -86 6 -116 31 -16 14 -23 23 -17 19 9 -4 11 -1 7 9 -3 9 -10 16 -15 16 -5
0 -9 5 -9 11 0 6 9 8 23 4 19 -5 20 -4 6 7 -15 12 -35 68 -25 68 3 0 32 -16
64 -35z m4650 -10 c-31 -27 -36 -37 -13 -29 18 7 20 -7 3 -24 -9 -9 -9 -12 2
-12 11 0 11 -3 2 -12 -7 -7 -12 -19 -12 -28 0 -10 -18 -22 -47 -33 -67 -24
-73 -22 -73 17 0 44 37 89 99 121 59 31 73 31 39 0z m-4694 -110 c22 -13 62
-29 89 -36 46 -11 66 -38 30 -40 -17 -1 -17 -2 0 -6 24 -6 16 -26 -14 -34 -24
-7 -24 -7 4 -8 15 -1 27 -5 27 -11 0 -5 -12 -10 -27 -11 l-28 -1 25 -7 c14 -4
25 -12 24 -19 -1 -7 -2 -19 -2 -27 -1 -9 -12 -20 -24 -25 l-23 -9 23 0 c27 -1
28 -9 5 -27 -17 -13 -17 -13 0 -14 25 0 21 -20 -5 -21 l-23 -1 23 -6 c28 -8
25 -28 -3 -24 -18 2 -18 1 2 -10 21 -10 22 -12 5 -24 -16 -12 -15 -13 6 -14
12 0 22 -4 22 -10 0 -5 -8 -10 -17 -10 -15 0 -14 -2 3 -15 18 -14 18 -14 -11
-16 -24 -1 -26 -3 -7 -6 12 -2 20 -9 16 -14 -3 -5 -10 -7 -15 -4 -13 9 -11 -9
4 -24 10 -11 7 -12 -13 -6 -40 12 -77 33 -149 86 -57 41 -71 57 -81 92 -15 53
-25 296 -15 372 l7 57 50 -51 c28 -28 69 -62 92 -76z m4840 -95 c2 -222 -40
-315 -169 -379 -56 -27 -82 -35 -112 -32 -22 2 -14 17 15 28 l27 11 -32 1
c-38 1 -45 21 -9 21 35 0 43 20 9 21 -28 1 -27 1 7 13 l34 13 -34 6 c-37 8
-32 22 10 30 24 4 24 4 -3 6 -18 1 -27 6 -24 14 2 6 16 11 31 10 14 -1 24 2
21 8 -4 5 -17 9 -31 9 -36 0 -29 20 9 21 27 2 28 2 7 6 -40 7 -48 23 -12 23
18 0 32 5 32 10 0 6 -11 10 -25 10 -35 0 -31 15 8 28 l32 10 -33 1 c-36 1 -35
20 1 22 16 1 14 3 -8 8 -32 7 -37 25 -7 27 35 3 36 6 7 19 -27 13 -27 14 -7
15 32 0 27 20 -5 20 -35 0 -21 12 42 35 61 22 148 78 178 114 22 27 22 27 31
7 5 -12 10 -82 10 -156z m-4333 -21 c84 -34 111 -40 155 -37 33 2 53 -1 51 -7
-2 -5 -13 -11 -25 -13 -23 -4 -31 -22 -9 -23 6 0 3 -4 -8 -9 -19 -8 -19 -8 5
-18 19 -8 21 -11 6 -11 -12 -1 -16 -6 -13 -16 4 -8 1 -17 -4 -21 -6 -3 -8 -17
-5 -30 l6 -24 -87 31 c-100 35 -169 69 -230 111 -36 24 -43 34 -43 63 0 59 61
60 201 4z m3864 11 c4 -13 -4 -39 -24 -74 -29 -50 -37 -56 -114 -89 -130 -55
-257 -91 -243 -68 4 6 17 11 29 12 21 0 21 1 2 9 -19 8 -19 8 5 18 24 10 24
11 3 11 -31 1 -40 21 -9 21 14 0 26 5 26 10 0 6 -9 10 -20 10 -27 0 -25 18 3
23 18 4 17 5 -8 7 l-30 3 35 7 35 7 -33 2 c-54 2 -33 25 29 32 30 4 92 23 139
42 100 42 165 49 175 17z m-4025 -120 c0 -21 246 -106 465 -160 393 -97 819
-146 1360 -157 691 -13 1367 57 1915 198 123 32 166 47 210 77 71 47 70 47 70
24 0 -12 -11 -29 -25 -40 -30 -24 -33 -37 -5 -22 14 7 20 7 20 0 0 -5 -4 -10
-8 -10 -5 0 -17 -7 -28 -15 -18 -14 -17 -15 11 -10 27 5 28 4 11 -7 -10 -7
-28 -21 -40 -31 -21 -18 -21 -18 13 -11 42 8 39 -14 -5 -35 -17 -9 -24 -16
-16 -19 8 -2 19 1 25 7 15 15 27 14 27 -2 0 -8 -12 -19 -26 -26 -15 -6 -24
-14 -21 -17 3 -3 15 0 27 6 37 20 33 4 -7 -30 -37 -31 -30 -36 21 -15 36 15
12 -19 -28 -39 -43 -21 -41 -33 3 -18 42 15 40 -2 -4 -30 -46 -30 -49 -52 -4
-28 14 8 19 7 19 -2 -1 -16 -35 -58 -48 -58 -5 0 -12 -6 -15 -13 -10 -28 -321
-113 -551 -152 -357 -60 -689 -85 -1236 -92 -663 -9 -1080 24 -1518 118 -235
51 -562 166 -562 199 0 9 -7 23 -15 30 -20 17 -19 30 3 30 16 1 16 1 0 14 -19
14 -26 42 -8 31 6 -3 10 -2 10 3 0 6 -7 12 -15 16 -8 3 -15 10 -15 15 0 6 7 8
15 5 26 -10 16 12 -10 24 -14 6 -25 16 -25 22 0 13 6 13 31 0 26 -15 26 6 -1
22 -23 15 -27 30 -5 22 8 -4 15 -1 15 5 0 7 -7 14 -15 17 -23 9 -18 26 5 19
24 -8 26 2 3 27 -15 17 -15 18 3 18 16 0 17 2 4 10 -12 8 -13 12 -2 19 11 6 7
14 -17 30 -31 22 -40 41 -21 41 6 0 10 -4 10 -10z"/>
<path d="M3440 5097 c0 -9 10 -17 23 -19 17 -2 23 -11 25 -37 3 -31 2 -33 -20
-27 -13 3 -29 6 -35 6 -7 0 -13 9 -13 19 0 43 -19 28 -25 -20 -8 -55 -1 -72
18 -46 9 13 20 16 45 11 29 -6 32 -10 32 -41 0 -32 -2 -35 -25 -29 -41 11 -30
-21 13 -35 20 -6 43 -16 50 -22 8 -7 12 -5 12 7 0 9 -7 19 -15 22 -9 4 -15 19
-15 40 0 19 2 34 4 34 1 0 17 -5 35 -11 23 -8 31 -17 31 -34 0 -13 5 -27 10
-30 6 -4 10 16 10 54 0 60 -13 89 -23 51 -4 -16 -10 -18 -28 -12 -31 12 -43
34 -35 65 4 18 11 24 21 21 9 -4 15 0 15 9 0 8 -13 17 -29 20 -16 3 -40 9 -55
13 -20 5 -26 2 -26 -9z"/>
<path d="M8970 5077 c-48 -13 -71 -47 -31 -47 30 0 29 -50 -1 -69 -18 -11 -22
-11 -30 3 -18 31 -28 15 -28 -44 0 -47 3 -60 15 -60 9 0 15 9 15 25 0 30 33
51 49 31 14 -17 -1 -61 -23 -69 -9 -4 -16 -13 -16 -22 0 -17 16 -20 25 -5 3 5
24 14 45 20 38 10 57 40 26 40 -13 0 -28 55 -18 65 14 14 50 3 55 -16 11 -41
27 -7 27 57 0 47 -3 65 -12 62 -7 -3 -15 -15 -18 -28 -3 -12 -15 -27 -28 -31
-20 -8 -22 -6 -22 31 0 29 4 40 15 40 8 0 15 7 15 15 0 17 0 17 -60 2z"/>
<path d="M4105 4787 c51 -35 75 -49 75 -43 0 7 -76 56 -87 56 -4 0 1 -6 12
-13z"/>
<path d="M4090 4769 c0 -14 79 -63 87 -55 3 2 -6 10 -19 16 -12 7 -33 22 -45
33 -17 15 -23 17 -23 6z"/>
<path d="M4113 4712 c13 -15 15 -21 6 -24 -9 -3 -7 -7 5 -11 10 -4 15 -3 11 3
-3 6 -1 10 4 10 21 0 11 17 -16 29 -27 12 -27 12 -10 -7z"/>
<path d="M4117 4649 c7 -7 15 -10 18 -7 3 3 -2 9 -12 12 -14 6 -15 5 -6 -5z"/>
<path d="M4535 4600 c3 -5 8 -10 11 -10 2 0 4 5 4 10 0 6 -5 10 -11 10 -5 0
-7 -4 -4 -10z"/>
<path d="M4094 4449 c-3 -5 -2 -14 2 -20 3 -6 1 -15 -6 -19 -9 -6 0 -15 28
-29 47 -24 52 -25 52 -11 0 6 -6 10 -13 10 -7 0 -22 7 -33 15 -18 15 -18 15 6
12 14 -2 19 -2 12 0 -7 3 -10 12 -7 23 4 12 -1 19 -15 23 -11 3 -23 1 -26 -4z"/>
<path d="M8357 4755 c-15 -14 -35 -25 -43 -25 -8 0 -14 -4 -14 -10 0 -6 10 -6
28 1 l27 10 -27 -23 c-20 -16 -25 -27 -19 -37 7 -11 15 -11 45 -1 45 14 47 24
4 15 l-33 -6 24 21 c13 11 29 20 37 20 8 0 14 5 14 10 0 6 -7 10 -17 10 -14 0
-14 2 2 20 25 28 6 24 -28 -5z"/>
<path d="M8005 4619 c-22 -5 -44 -14 -49 -19 -5 -5 18 -2 50 6 87 23 87 33 -1
13z"/>
<path d="M8340 4600 c-9 -6 -10 -10 -3 -10 6 0 15 5 18 10 8 12 4 12 -15 0z"/>
<path d="M8000 4588 c-19 -5 -39 -14 -45 -19 -5 -5 15 -2 45 7 30 9 57 18 59
20 7 7 -22 3 -59 -8z"/>
<path d="M8344 4435 c3 -8 -2 -19 -12 -24 -15 -10 -15 -10 2 -11 20 0 20 0 0
-16 -17 -14 -17 -15 -1 -10 10 3 22 6 26 6 4 0 8 16 9 35 1 26 -3 35 -14 35
-10 0 -14 -6 -10 -15z"/>
<path d="M8335 4354 l-30 -14 35 5 c19 3 39 10 44 15 15 15 -14 12 -49 -6z"/>
<path d="M3980 4480 c0 -5 5 -10 10 -10 6 0 10 5 10 10 0 6 -4 10 -10 10 -5 0
-10 -4 -10 -10z"/>
<path d="M4470 4159 c0 -98 1 -101 29 -130 22 -21 38 -29 63 -28 l33 1 -30 7
-30 6 -3 116 c-2 111 -4 117 -25 123 -12 3 -25 6 -29 6 -5 0 -8 -45 -8 -101z"/>
<path d="M4602 4123 l2 -108 3 100 c3 63 8 102 16 107 8 5 7 8 -5 8 -16 0 -18
-11 -16 -107z"/>
<path d="M4668 4090 c-2 -66 0 -120 4 -120 4 0 9 48 10 107 l3 108 51 -119
c27 -66 55 -121 62 -124 7 -2 12 34 14 117 2 76 -1 121 -7 121 -6 0 -9 -30 -7
-77 2 -43 2 -76 -1 -73 -3 3 -19 39 -36 80 -18 41 -39 81 -48 88 -37 27 -42
16 -45 -108z"/>
<path d="M7831 4155 c-7 -26 -4 -53 12 -117 12 -46 22 -84 23 -86 1 -2 13 0
26 3 l24 6 -30 115 c-17 62 -34 114 -38 114 -4 0 -11 -16 -17 -35z"/>
<path d="M4862 4049 c3 -120 4 -124 26 -127 22 -3 22 -2 22 117 0 67 -4 121
-9 121 -5 0 -17 3 -25 6 -15 6 -16 -7 -14 -117z"/>
<path d="M7622 4125 c-50 -56 -52 -145 -5 -197 25 -28 32 -21 21 20 -13 45 -4
178 12 198 26 30 1 12 -28 -21z"/>
<path d="M7701 4143 c7 -10 15 -20 16 -22 2 -2 3 5 3 17 0 14 -6 22 -16 22
-14 0 -15 -3 -3 -17z"/>
<path d="M4991 4033 c38 -154 39 -157 54 -107 11 35 10 51 -9 120 -25 92 -31
104 -55 104 -17 0 -16 -8 10 -117z"/>
<path d="M5090 4120 c0 -5 7 -7 15 -4 8 4 15 8 15 10 0 2 -7 4 -15 4 -8 0 -15
-4 -15 -10z"/>
<path d="M7535 4120 c3 -5 8 -10 11 -10 2 0 4 5 4 10 0 6 -5 10 -11 10 -5 0
-7 -4 -4 -10z"/>
<path d="M5150 4001 l0 -119 48 -6 c26 -4 55 -9 65 -12 14 -4 17 1 17 28 0 32
0 32 -16 10 -9 -13 -26 -22 -40 -22 -24 0 -25 2 -24 58 1 31 1 85 1 120 -1 59
-2 62 -26 62 l-25 0 0 -119z"/>
<path d="M7418 4013 c2 -59 8 -113 14 -120 12 -14 74 -18 82 -5 3 5 -5 8 -17
8 -21 -1 -22 3 -25 112 l-3 112 -27 0 -27 0 3 -107z"/>
<path d="M5243 4099 c10 -6 22 -20 27 -32 9 -19 9 -19 7 8 -2 24 -7 31 -27 33
-22 2 -23 1 -7 -9z"/>
<path d="M7313 4072 c-6 -21 -7 -47 -3 -58 20 -55 21 -74 3 -75 -16 0 -15 -1
2 -8 11 -4 22 -19 25 -32 4 -16 14 -25 31 -27 l26 -3 -30 120 c-16 67 -33 121
-37 121 -4 0 -12 -17 -17 -38z"/>
<path d="M5320 3980 c0 -119 0 -120 24 -120 21 0 24 5 29 58 4 32 4 68 0 80
-8 33 6 92 22 92 18 0 29 -41 21 -80 -6 -34 0 -37 32 -14 22 15 29 49 14 70
-14 21 -51 34 -96 34 l-46 0 0 -120z"/>
<path d="M7178 4080 c12 -5 27 -20 32 -32 8 -22 9 -21 9 7 1 28 -2 31 -31 32
-30 2 -31 1 -10 -7z"/>
<path d="M5520 4060 c-6 -12 -10 -37 -8 -57 3 -32 9 -40 48 -63 47 -28 62 -59
39 -86 -10 -12 -9 -13 4 -9 23 9 40 59 32 95 -5 22 -17 36 -44 49 -53 28 -68
48 -53 72 7 11 8 19 2 19 -5 0 -14 -9 -20 -20z"/>
<path d="M5602 4061 c7 -9 14 -18 15 -20 2 -2 3 5 3 16 0 11 -7 20 -15 20 -12
0 -12 -3 -3 -16z"/>
<path d="M7120 4060 c-28 -28 -40 -63 -40 -118 0 -51 17 -85 53 -103 18 -9 20
-9 10 2 -17 18 -18 210 -1 227 7 7 9 12 5 12 -4 0 -16 -9 -27 -20z"/>
<path d="M5660 3950 l0 -120 25 0 25 0 0 120 0 120 -25 0 -25 0 0 -120z"/>
<path d="M5762 3948 c3 -123 3 -123 28 -126 l25 -3 -3 118 c-3 116 -8 132 -40
133 -10 0 -12 -28 -10 -122z"/>
<path d="M5858 4048 c8 -8 12 -47 12 -110 0 -81 -3 -99 -17 -108 -17 -11 -17
-11 0 -6 10 3 23 6 28 6 17 0 39 60 39 110 0 55 -19 104 -45 114 -25 9 -30 7
-17 -6z"/>
<path d="M6001 4028 c-8 -25 -7 -46 3 -85 l14 -52 -32 -4 -31 -4 32 -1 c28 -2
33 -6 39 -37 5 -29 11 -35 31 -35 21 0 24 4 19 23 -3 12 -16 68 -28 125 -13
56 -26 102 -30 102 -3 0 -11 -15 -17 -32z"/>
<path d="M6150 3940 c0 -66 4 -120 9 -120 5 0 16 -3 25 -6 14 -5 16 9 16 120
l0 126 -25 0 -25 0 0 -120z"/>
<path d="M6850 3940 l0 -120 25 0 26 0 -2 120 c-1 120 -1 120 -25 120 -24 0
-24 0 -24 -120z"/>
<path d="M6248 4038 c8 -8 12 -46 12 -103 0 -57 -4 -95 -12 -103 -9 -9 -9 -12
3 -12 41 0 72 95 55 165 -7 29 -40 65 -58 65 -9 0 -9 -3 0 -12z"/>
<path d="M6470 3930 l0 -120 25 0 25 0 0 120 0 120 -25 0 -25 0 0 -120z"/>
<path d="M6680 3926 l0 -123 25 5 c25 4 25 5 25 118 0 112 0 114 23 114 13 0
28 -5 35 -12 9 -9 12 -8 12 5 0 14 -10 17 -60 17 l-60 0 0 -124z"/>
<path d="M6578 3940 c3 -69 0 -105 -8 -115 -20 -25 14 -19 36 6 15 17 19 36
19 94 0 58 -4 77 -19 94 -11 12 -22 21 -25 21 -3 0 -4 -45 -3 -100z"/>
<path d="M5234 4012 c-9 -14 -8 -22 2 -37 13 -17 14 -16 14 18 0 42 -1 44 -16
19z"/>
<path d="M7709 3956 c-14 -31 -14 -33 3 -28 12 3 18 14 18 33 0 16 -1 29 -2
29 -2 -1 -10 -16 -19 -34z"/>
<path d="M5416 3928 c9 -55 21 -78 40 -78 13 0 14 8 9 43 -9 53 -22 77 -40 77
-12 0 -14 -9 -9 -42z"/>
<path d="M6760 3945 c-10 -11 -9 -18 4 -30 15 -15 16 -14 16 14 0 35 -3 37
-20 16z"/>
<path d="M7204 3882 c-9 -23 -8 -29 2 -29 9 0 14 12 14 29 0 15 -1 28 -3 28
-1 0 -7 -13 -13 -28z"/>
<path d="M5511 3879 c-1 -19 5 -28 20 -32 19 -5 19 -4 6 11 -8 9 -17 24 -20
32 -3 9 -6 4 -6 -11z"/>
<path d="M7255 3870 c-3 -5 -1 -10 4 -10 6 0 11 5 11 10 0 6 -2 10 -4 10 -3 0
-8 -4 -11 -10z"/>
<path d="M6800 3860 c0 -5 -9 -19 -20 -30 l-20 -20 25 0 c21 0 25 5 25 30 0
17 -2 30 -5 30 -3 0 -5 -4 -5 -10z"/>
<path d="M6943 3843 c-22 -22 -22 -23 -2 -23 11 0 22 7 25 15 11 27 -1 30 -23
8z"/>
<path d="M5940 3820 c0 -5 5 -10 11 -10 5 0 7 5 4 10 -3 6 -8 10 -11 10 -2 0
-4 -4 -4 -10z"/>
<path d="M5915 4545 c-16 -7 -39 -20 -50 -29 -19 -15 -19 -15 9 -16 l29 0 -7
-72 c-4 -46 -12 -77 -21 -84 -25 -19 -18 -21 53 -19 79 3 85 5 52 14 -24 7
-25 10 -30 113 l-5 106 -30 -13z"/>
<path d="M6060 4530 c-26 -26 -25 -48 1 -76 l21 -23 -21 -13 c-28 -17 -28 -62
1 -82 29 -21 69 -20 113 1 41 20 46 47 15 86 -21 26 -21 26 -2 45 25 25 18 68
-11 76 -46 12 -97 6 -117 -14z m84 4 c18 -7 22 -59 5 -69 -5 -4 -21 -4 -35 -1
-20 5 -24 13 -24 41 0 36 15 44 54 29z m6 -146 c25 -42 25 -45 -6 -52 -55 -14
-80 16 -54 65 16 28 38 23 60 -13z"/>
<path d="M6264 4525 c-21 -32 -11 -44 16 -20 13 12 27 15 45 11 52 -13 27 -78
-60 -158 l-30 -27 88 -1 c85 0 87 1 87 24 0 22 -3 23 -52 18 l-53 -5 48 51
c71 77 58 132 -31 132 -33 0 -45 -5 -58 -25z"/>
<path d="M6460 4520 c0 -27 2 -30 19 -20 22 11 84 14 94 3 4 -3 -13 -43 -38
-89 -25 -45 -45 -85 -45 -88 0 -15 37 -4 48 15 13 21 92 196 92 204 0 3 -38 5
-85 5 l-85 0 0 -30z"/>
<path d="M8205 2921 c-11 -5 -53 -14 -93 -21 -40 -7 -71 -18 -69 -23 1 -5 26
-18 55 -29 45 -17 53 -24 62 -56 12 -45 14 -342 1 -342 -5 0 -26 6 -47 14
-107 37 -214 27 -307 -28 -96 -58 -147 -156 -147 -282 0 -122 58 -222 156
-270 48 -23 63 -26 122 -22 37 3 101 17 143 32 41 14 79 26 82 26 4 0 7 -15 7
-34 l0 -33 48 8 c124 23 153 31 149 42 -2 7 -22 15 -45 18 -23 3 -45 9 -49 13
-10 9 -12 144 -13 624 0 348 -1 372 -17 371 -10 0 -27 -4 -38 -8z m-125 -495
c78 -38 85 -61 85 -276 l0 -185 -38 -18 c-48 -24 -140 -32 -192 -18 -52 14
-110 62 -138 114 -19 36 -22 58 -22 147 0 89 3 111 22 146 27 50 84 102 121
110 15 3 32 7 37 9 20 7 81 -7 125 -29z"/>
<path d="M9622 2920 c-12 -5 -51 -15 -87 -21 -73 -12 -86 -33 -29 -44 20 -3
47 -17 60 -30 23 -24 24 -28 24 -200 0 -96 -4 -175 -9 -175 -5 0 -26 6 -47 14
-172 60 -342 -2 -416 -152 -30 -60 -33 -75 -33 -152 1 -100 24 -162 83 -224
80 -83 173 -97 324 -46 49 16 91 30 94 30 2 0 4 -16 4 -35 0 -19 3 -35 8 -35
21 2 184 38 188 43 13 12 -9 27 -40 27 -19 0 -39 6 -45 14 -8 10 -12 146 -12
482 -1 258 -3 479 -6 492 -5 23 -23 27 -61 12z m-118 -494 c77 -42 81 -53 84
-270 l3 -192 -37 -17 c-56 -27 -155 -33 -207 -13 -55 21 -104 68 -131 126 -16
35 -20 65 -20 132 0 76 3 93 29 144 60 115 170 151 279 90z"/>
<path d="M4582 2884 c-44 -31 -15 -114 41 -114 28 0 67 39 67 66 0 26 -40 64
-66 64 -11 0 -30 -7 -42 -16z"/>
<path d="M7382 2884 c-28 -19 -29 -67 -2 -94 26 -26 51 -25 84 1 32 25 33 59
3 87 -27 26 -54 28 -85 6z"/>
<path d="M2567 2873 c-16 -16 19 -33 68 -33 30 0 57 -5 63 -13 7 -8 12 -141
14 -377 3 -348 4 -367 24 -410 37 -79 129 -145 234 -169 64 -15 186 -13 246 3
70 18 149 63 184 103 60 68 65 102 65 481 0 341 0 344 22 362 12 9 40 20 62
24 24 4 41 12 41 19 0 11 -34 14 -161 15 -138 1 -159 -1 -148 -14 6 -8 18 -14
25 -14 35 0 93 -33 103 -58 14 -35 30 -351 26 -519 -4 -170 -21 -229 -80 -288
-54 -54 -118 -75 -231 -75 -101 0 -184 27 -230 76 -53 56 -59 99 -59 481 0
393 -5 373 89 381 39 3 56 9 56 18 0 11 -37 14 -203 14 -112 0 -207 -3 -210
-7z"/>
<path d="M4613 2525 c-25 -27 -57 -49 -82 -56 -47 -14 -53 -34 -13 -44 62 -15
62 -17 62 -255 0 -162 -3 -220 -12 -228 -7 -5 -35 -16 -62 -23 -94 -27 -66
-36 114 -36 93 0 170 3 170 7 0 4 -20 13 -45 20 -24 7 -49 18 -55 25 -6 7 -11
132 -12 320 -2 195 -7 309 -13 311 -5 1 -29 -18 -52 -41z"/>
<path d="M7426 2531 c-22 -22 -61 -49 -87 -61 -56 -23 -61 -35 -21 -43 15 -3
36 -12 47 -21 19 -14 20 -26 20 -230 0 -161 -3 -218 -13 -228 -7 -7 -36 -20
-64 -28 -94 -28 -69 -37 112 -37 93 0 170 3 170 7 0 4 -19 13 -42 19 -24 7
-49 18 -55 23 -10 8 -13 85 -13 324 0 173 -4 314 -8 314 -4 0 -25 -18 -46 -39z"/>
<path d="M6370 2542 c0 -21 -77 -95 -121 -118 -56 -28 -61 -41 -21 -50 50 -10
71 -23 77 -46 3 -13 4 -108 3 -213 l-3 -190 -59 -15 c-110 -28 -77 -35 141
-32 115 2 210 6 213 9 11 10 -28 21 -96 28 -40 4 -77 12 -83 18 -5 7 -11 89
-12 182 -3 157 -2 173 18 210 12 22 33 51 47 64 l26 24 59 -18 c56 -17 62 -17
86 -1 18 12 25 25 25 47 0 35 -39 79 -70 79 -41 0 -101 -41 -148 -102 l-47
-60 -3 96 c-2 76 -6 96 -17 96 -8 0 -15 -4 -15 -8z"/>
<path d="M3825 2487 c-17 -23 -50 -52 -75 -65 -25 -12 -46 -27 -48 -32 -2 -5
14 -16 34 -25 21 -9 42 -21 46 -28 4 -7 8 -98 8 -203 0 -213 1 -209 -68 -220
-26 -4 -42 -12 -42 -20 0 -11 32 -14 166 -14 126 0 165 3 162 12 -3 7 -28 19
-57 28 -28 8 -56 22 -61 30 -5 8 -10 103 -10 212 l0 196 33 28 c85 72 208 86
267 29 16 -15 32 -40 35 -54 3 -14 7 -113 9 -219 3 -186 3 -193 -18 -207 -11
-8 -30 -15 -42 -15 -33 0 -54 -10 -54 -26 0 -11 30 -14 160 -14 135 0 160 2
160 15 0 8 -12 17 -27 20 -16 3 -39 11 -53 18 l-25 13 -5 229 c-4 207 -7 233
-25 264 -66 113 -217 112 -377 0 -14 -11 -29 -19 -32 -19 -3 0 -6 25 -6 55 0
67 -13 70 -55 12z"/>
<path d="M5779 2506 c-81 -22 -143 -79 -185 -171 -39 -84 -45 -215 -15 -296
44 -115 134 -174 266 -174 71 1 87 4 141 34 71 38 127 91 122 116 -3 16 -6 15
-33 -7 -64 -54 -110 -71 -184 -66 -97 5 -154 42 -198 127 -28 54 -33 73 -33
136 0 57 3 74 16 79 9 3 108 6 220 6 227 0 215 -5 188 73 -22 63 -83 123 -147
142 -60 18 -96 18 -158 1z m162 -49 c38 -25 62 -81 48 -109 -9 -17 -68 -25
-234 -30 -80 -3 -80 -3 -77 22 3 37 52 100 92 121 50 27 128 25 171 -4z"/>
<path d="M6864 2501 c-109 -50 -135 -186 -49 -266 17 -17 63 -44 101 -60 95
-40 141 -70 164 -108 74 -121 -65 -228 -192 -148 -35 22 -52 43 -74 90 -39 82
-58 81 -49 -1 12 -119 11 -116 72 -134 70 -20 183 -15 236 10 112 55 131 214
35 303 -13 12 -66 42 -119 66 -108 51 -139 81 -139 137 0 74 67 116 144 90 37
-12 99 -74 111 -109 3 -12 13 -21 21 -21 13 0 14 11 9 68 -4 37 -9 70 -11 73
-7 13 -95 29 -156 29 -40 0 -78 -7 -104 -19z"/>
<path d="M8652 2505 c-84 -26 -159 -99 -197 -189 -13 -30 -13 -36 1 -47 21
-17 65 -1 80 31 7 14 20 47 31 75 22 60 68 95 123 95 74 0 110 -56 110 -172 0
-56 -1 -58 -32 -71 -156 -66 -245 -133 -287 -215 -26 -52 -27 -82 0 -116 18
-23 28 -26 80 -26 69 0 112 16 179 65 l47 34 12 -38 c21 -70 119 -92 168 -38
53 58 70 116 20 69 -26 -24 -66 -29 -85 -10 -9 9 -12 74 -12 233 0 244 -6 272
-66 307 -42 23 -121 30 -172 13z m147 -367 c-1 -115 -9 -138 -62 -176 -61 -44
-116 -53 -146 -23 -57 57 0 160 129 230 77 43 80 42 79 -31z"/>
<path d="M4780 2487 c0 -7 20 -18 45 -25 28 -7 51 -21 61 -37 9 -14 53 -114
99 -222 108 -258 152 -353 163 -353 9 0 111 237 197 457 26 67 54 128 62 134
8 7 39 14 69 17 37 3 54 9 54 18 0 11 -30 14 -155 14 -125 0 -155 -3 -155 -14
0 -8 16 -16 41 -20 71 -11 82 -22 76 -71 -6 -43 -98 -289 -135 -361 l-19 -38
-23 50 c-63 142 -161 387 -157 397 2 7 30 17 62 22 75 13 86 35 18 35 -26 0
-105 3 -175 5 -100 4 -128 2 -128 -8z"/>
<path d="M3805 1529 c-16 -5 -52 -13 -79 -17 -27 -4 -51 -12 -53 -19 -2 -6 18
-19 47 -28 37 -12 54 -24 61 -42 5 -13 9 -101 9 -194 0 -133 -3 -170 -12 -165
-65 27 -128 38 -192 34 -165 -11 -271 -108 -298 -273 -26 -158 73 -322 210
-344 54 -9 156 7 226 35 32 13 61 22 63 20 2 -2 5 -18 5 -35 1 -37 3 -37 116
-15 54 11 82 21 82 30 0 9 -12 14 -33 14 -71 0 -67 -28 -68 500 0 261 -3 483
-6 493 -5 19 -30 21 -78 6z m-141 -470 c21 -6 57 -28 80 -49 l41 -39 0 -198 0
-198 -35 -17 c-143 -69 -303 -1 -346 148 -29 102 -7 226 54 293 55 62 125 83
206 60z"/>
<path d="M4787 1502 c-42 -14 -76 -30 -75 -34 2 -4 23 -18 48 -30 l45 -23 3
-424 c1 -284 -1 -428 -8 -436 -6 -7 -27 -16 -48 -19 -57 -11 -73 -17 -70 -27
3 -8 195 -13 339 -9 27 0 -6 20 -45 25 -77 12 -71 -31 -67 515 l4 490 -24 -1
c-13 0 -59 -13 -102 -27z"/>
<path d="M5905 1499 c-177 -36 -353 -209 -394 -389 -16 -69 -13 -219 5 -281
52 -175 159 -278 349 -335 80 -24 292 -24 384 0 36 9 66 18 68 20 5 5 53 179
53 194 0 25 -19 11 -50 -38 -72 -112 -182 -165 -327 -159 -185 9 -302 122
-339 330 -37 202 14 418 126 529 155 156 414 140 508 -30 37 -68 52 -65 52 9
0 91 -9 105 -82 131 -73 26 -267 36 -353 19z"/>
<path d="M4286 1114 c-145 -46 -242 -266 -192 -436 62 -213 319 -272 495 -113
22 21 41 46 41 56 0 24 -12 24 -33 1 -9 -10 -38 -29 -64 -43 -89 -45 -216 -26
-280 43 -44 47 -73 128 -73 206 l0 72 221 0 222 0 -6 42 c-7 51 -49 113 -104
151 -52 37 -150 46 -227 21z m176 -42 c35 -20 66 -87 51 -110 -12 -19 -84 -29
-231 -31 -92 -1 -93 -1 -87 22 11 36 53 95 80 113 55 36 133 38 187 6z"/>
<path d="M6645 1107 c-27 -13 -67 -43 -88 -67 -40 -44 -90 -137 -81 -152 8
-12 58 -10 76 5 9 6 24 37 33 69 18 65 52 103 105 119 85 26 131 -21 138 -140
l4 -80 -96 -45 c-108 -50 -192 -122 -226 -190 -26 -55 -25 -79 4 -113 22 -26
30 -28 85 -26 63 3 117 24 179 70 34 25 52 24 52 -5 1 -36 48 -72 95 -72 37 0
76 25 103 66 36 55 25 76 -16 29 -25 -29 -53 -32 -76 -9 -14 13 -16 48 -16
232 0 238 -5 264 -63 306 -44 32 -148 34 -212 3z m182 -404 c-7 -96 -14 -106
-103 -149 -59 -28 -91 -23 -119 20 -14 21 -15 31 -5 61 15 47 84 113 156 152
74 40 79 33 71 -84z"/>
<path d="M8103 1112 c-74 -26 -117 -59 -156 -119 -63 -96 -72 -206 -27 -327
57 -149 211 -223 371 -177 65 18 143 79 147 115 l3 27 -51 -35 c-117 -81 -226
-73 -312 22 -76 84 -90 245 -32 359 36 70 80 103 139 103 36 0 52 -7 96 -44
68 -56 100 -65 128 -37 36 36 23 79 -32 107 -50 26 -208 30 -274 6z"/>
<path d="M8703 1105 c-57 -29 -108 -81 -144 -149 -25 -48 -21 -76 11 -76 40 0
58 19 75 77 20 68 66 119 117 128 81 15 128 -43 128 -158 l0 -68 -95 -44
c-159 -74 -269 -207 -233 -281 32 -69 143 -66 250 6 69 46 78 48 78 19 0 -11
13 -34 29 -50 50 -49 128 -33 170 34 30 49 26 63 -10 33 -36 -30 -60 -33 -82
-8 -13 15 -16 54 -19 250 l-3 232 -37 37 c-36 36 -42 38 -110 41 -63 3 -80 0
-125 -23z m187 -381 c0 -95 0 -96 -32 -126 -65 -61 -139 -79 -178 -43 -38 35
-21 102 42 162 32 31 144 103 160 103 4 0 8 -43 8 -96z"/>
<path d="M7090 1085 c0 -9 9 -15 23 -15 12 0 33 -6 47 -13 l25 -13 5 -214 c5
-198 7 -218 27 -257 62 -115 183 -121 330 -17 27 19 51 34 55 34 5 0 8 -25 8
-55 0 -30 1 -55 3 -55 35 6 202 60 204 67 2 5 -22 14 -54 19 l-58 9 -1 250
c-1 138 -2 256 -3 263 -1 9 -32 12 -121 12 -118 0 -159 -13 -82 -25 71 -12
100 -25 106 -48 3 -12 6 -104 6 -204 l0 -182 -42 -29 c-119 -81 -252 -68 -278
27 -6 24 -10 125 -10 238 0 109 1 204 0 211 0 9 -26 12 -95 12 -78 0 -95 -3
-95 -15z"/>
</g>
</svg>
