<?xml version="1.0" encoding="UTF-8"?>
<svg id="Capa_2" data-name="Capa 2" xmlns="http://www.w3.org/2000/svg" viewBox="0 0 615.25 570.54">
  <defs>
    <style>
      .cls-1 {
        fill: #18407b;
      }
    </style>
  </defs>
  <g id="Capa_1-2" data-name="Capa 1">
    <g>
      <g>
        <path class="cls-1" d="m18.14,440.76c-5.64-5.38-8.46-12.75-8.46-22.09v-36.45c0-2.61-.53-4.61-1.59-6-1.06-1.38-2.41-2.28-4.05-2.67-2.69-.71-4.04-1.58-4.04-2.61,0-.87,1.18-1.3,3.55-1.3l5.27.11c2.62.16,4.78.23,6.5.23l5.88-.12c.99-.07,2.29-.11,3.93-.11,2.37,0,3.54.44,3.54,1.3,0,.48-.28.87-.85,1.19-.58.32-1.64.7-3.18,1.19-1.15.32-2.29,1.29-3.44,2.91-1.14,1.62-1.71,3.5-1.71,5.64v33.37c0,9.19,2.33,16.08,6.98,20.66,4.66,4.6,10.91,6.89,18.75,6.89s14.28-2.75,18.32-8.26c4.04-5.5,6.07-13.04,6.07-22.62,0-4.83-.17-13.34-.49-25.53-.08-3.33-.53-6.2-1.35-8.61-.82-2.42-2.04-3.86-3.68-4.34-2.7-.71-4.04-1.5-4.04-2.37s1.18-1.32,3.55-1.32l9.2.12c1.55,0,3.46-.07,5.76-.23l4.16-.11c2.37,0,3.55.43,3.55,1.3,0,1.03-1.34,1.83-4.04,2.38-3.84.71-5.88,3.68-6.12,8.91-.33,4.83-.56,9.75-.68,14.78-.12,5.03-.23,8.41-.31,10.16,0,2.3-.07,5.75-.25,10.34-.16,6.02-1.67,11.42-4.53,16.21-2.86,4.79-6.7,8.5-11.51,11.16-4.83,2.65-10.22,3.98-16.18,3.98-10.7,0-18.87-2.7-24.51-8.08"/>
        <path class="cls-1" d="m85.53,446.22c0-.55.19-.93.61-1.13.41-.19,1.15-.46,2.21-.77,1.72-.4,3.02-.89,3.92-1.48.91-.59,1.35-1.6,1.35-3.03v-25.53c0-2.53-.29-4.47-.86-5.82-.58-1.35-1.79-2.26-3.67-2.73-.83-.23-1.23-.75-1.23-1.54,0-.87.36-1.34,1.1-1.43,2.54-.62,4.68-1.42,6.44-2.37,1.75-.95,3.7-2.18,5.82-3.68.57-.4,1.01-.6,1.34-.6.42,0,.62.28.62.83l-.24,2.49c-.09.64-.17,1.41-.25,2.32-.08.91-.13,1.85-.13,2.79,0,.79.08,1.27.25,1.42,2.95-2.68,6.01-4.69,9.19-5.99,3.19-1.31,6.7-1.96,10.54-1.96s7.21,1.58,9.86,4.75c2.66,3.17,3.98,7.09,3.98,11.76v25.3c0,1.42.44,2.39,1.29,2.91.86.51,2.19,1.05,3.98,1.6.99.32,1.69.62,2.15.89.45.28.68.69.68,1.25,0,.71-.83,1.07-2.46,1.07-2.2,0-3.97-.12-5.27-.36-1.63-.15-3.14-.24-4.53-.24-1.31,0-2.87.09-4.66.24-1.32.23-3.11.36-5.4.36-1.63,0-2.44-.36-2.44-1.07,0-.56.22-.97.66-1.25.46-.28,1.17-.58,2.15-.89,1.79-.55,3.12-1.09,3.97-1.6.86-.52,1.29-1.49,1.29-2.91v-24.94c0-3.41-1-6.1-2.99-8.09-2.01-1.97-4.68-3-8.03-3.08-5.07,0-9.59,1.59-13.6,4.75-.66.64-.99,1.54-.99,2.73v28.63c0,1.42.45,2.44,1.36,3.03.89.6,2.21,1.09,3.92,1.48.98.24,1.7.5,2.14.77.44.28.68.66.68,1.13,0,.87-.83,1.31-2.46,1.31-2.12,0-3.88-.12-5.27-.36-1.79-.15-3.35-.24-4.65-.24s-2.86.09-4.66.24c-1.3.23-3.06.36-5.26.36-1.63,0-2.45-.44-2.45-1.31"/>
        <path class="cls-1" d="m145.32,446.22c0-.55.23-.95.68-1.18.45-.24,1.17-.48,2.15-.72,1.88-.47,3.24-1.01,4.04-1.6.82-.59,1.23-1.56,1.23-2.91v-25.77c0-5.23-1.83-8.12-5.51-8.67-.82-.07-1.24-.6-1.24-1.54,0-.87.38-1.34,1.11-1.42,4.98-1.11,9.26-3.09,12.86-5.94.74-.55,1.31-.83,1.71-.83.5,0,.74.2.74.59,0,.87-.12,2.38-.36,4.52-.09.95-.23,2.71-.43,5.28-.21,2.58-.31,4.65-.31,6.24v27.55c0,1.27.42,2.22,1.28,2.85.86.64,2.19,1.19,3.99,1.66.97.24,1.69.48,2.15.72.45.23.68.63.68,1.18,0,.87-.83,1.31-2.46,1.31-2.05,0-3.76-.12-5.15-.36-1.8-.15-3.39-.23-4.78-.23-1.3,0-2.86.08-4.65.23-1.32.23-3.07.36-5.27.36-1.64,0-2.46-.44-2.46-1.31m7.91-62.05c-1.19-1.15-1.78-2.56-1.78-4.22s.59-3.19,1.78-4.34c1.18-1.15,2.63-1.72,4.34-1.72,1.81,0,3.3.58,4.47,1.72,1.19,1.15,1.79,2.6,1.79,4.34s-.6,3.07-1.79,4.22c-1.17,1.15-2.66,1.72-4.47,1.72-1.71,0-3.16-.57-4.34-1.72"/>
        <path class="cls-1" d="m177.43,447.23c-1.55-1.07-2.85-2.41-3.86-4.03-1.02-1.62-1.54-3.15-1.54-4.58,0-2.45.68-4.39,2.03-5.82,1.34-1.42,3.57-2.77,6.67-4.03l12.51-4.99c1.54-.63,2.49-1.19,2.81-1.66.32-.48.53-1.5.6-3.09l.26-7.6c.07-2.13-.54-3.93-1.84-5.4-1.31-1.46-3.1-2.19-5.4-2.19-1.22,0-2.45.2-3.66.6-1.23.39-2.25.91-3.07,1.54-.81.55-1.22,1.7-1.22,3.44l.12,2.13c0,.64-1.04,1.48-3.12,2.56-2.09,1.07-3.74,1.6-4.97,1.6-.41,0-.73-.1-.97-.3-.25-.19-.37-.45-.37-.77,0-1.26.43-2.63,1.29-4.09.85-1.46,2.05-2.83,3.61-4.09,2.77-2.46,5.91-4.48,9.37-6.06,3.48-1.58,6.43-2.37,8.89-2.37,2.94,0,5.37,1.01,7.29,3.03,1.91,2.01,2.84,4.53,2.76,7.54l-.61,28.5c-.08,1.66.29,3.01,1.1,4.04.82,1.03,1.92,1.54,3.31,1.54,2.05,0,3.55-.44,4.54-1.3.4-.4.73-.6.97-.6.41,0,.74.12.99.36.25.24.36.56.36.95,0,.32-.11.73-.36,1.24-.25.51-.58.97-.99,1.37-1.3,1.26-2.72,2.28-4.23,3.03-1.5.75-2.91,1.13-4.22,1.13-3.76,0-6.75-2.06-8.95-6.18h-.37c-2.69,2.13-5.26,3.7-7.72,4.69-2.45.99-4.98,1.48-7.6,1.48-1.39,0-2.85-.54-4.41-1.6m17.4-6.95c.49-.48.87-1.07,1.11-1.78.24-.72.41-1.74.48-3.09l.24-5.81v-.72c0-.62-.07-1.09-.24-1.36-.16-.28-.45-.42-.85-.42-.49,0-1.31.2-2.46.6-4.08,1.42-7.03,2.93-8.81,4.5-1.81,1.59-2.7,3.13-2.7,4.64,0,1.98.59,3.52,1.77,4.63,1.19,1.11,2.6,1.66,4.24,1.66,2.85,0,5.26-.95,7.22-2.85"/>
        <path class="cls-1" d="m255.49,448.48l.24-3.21c.25-1.58.38-2.97.38-4.16v-.7c-3.11,3.01-6.3,5.16-9.56,6.47-3.27,1.3-6.82,1.96-10.67,1.96-4.16,0-7.53-1.23-10.1-3.68-2.58-2.45-3.86-5.94-3.86-10.45v-24.11c0-1.74-.41-3.12-1.23-4.15-.82-1.03-2.17-1.91-4.04-2.62-1.06-.32-1.59-.95-1.59-1.91,0-1.1.61-1.73,1.83-1.89,2.54-.16,4.54-.36,6.01-.6,1.47-.23,3.51-.66,6.13-1.3l.97-.12c.9,0,1.3.56,1.22,1.66-.49,3.64-.74,6.69-.74,9.14v23.16c0,2.85,1.07,5.36,3.19,7.54,2.12,2.17,4.49,3.26,7.11,3.26,2.44,0,4.42-.13,5.93-.42,1.51-.27,2.97-.93,4.36-1.95,1.47-1.03,2.76-2.24,3.86-3.62s1.65-3.15,1.65-5.28v-21.73c0-2.14-.92-3.66-2.75-4.58-1.85-.91-3.66-1.36-5.46-1.36s-2.57-.67-2.57-2.01c0-1.19.86-1.79,2.57-1.79,3.52-.08,6.32-.26,8.4-.54,2.08-.28,4.31-.72,6.68-1.36.49-.15.89-.24,1.22-.24.42,0,.77.12,1.1.36.33.23.5.55.5.95l-.25,1.07c-.17.88-.34,2.12-.55,3.74-.21,1.62-.31,3.11-.31,4.46v27.43c0,3.96.74,5.93,2.21,5.93l2.82-.23,2.81-.11c1.23,0,1.85.52,1.85,1.54,0,.63-.15,1.05-.44,1.25-.28.19-.71.34-1.28.42-2.77.39-5.23.9-7.36,1.54-2.12.64-4.45,1.47-6.98,2.5-.97.47-1.79.71-2.45.71-.57,0-.86-.32-.86-.95"/>
        <path class="cls-1" d="m284.9,445.22c-2.21-2.42-3.31-5.92-3.31-10.51v-27.55c0-.7-.27-1.19-.8-1.42-.53-.23-1.58-.36-3.12-.36h-.74c-.41,0-.76-.23-1.04-.71-.29-.48-.43-1.03-.43-1.66,0-.15.1-.38.3-.65.21-.28.39-.5.55-.65,4.42-3.01,8.05-6.18,10.91-9.5.32-.4.64-.73.98-1.01.32-.28.69-.42,1.1-.42,1.14,0,1.67.44,1.59,1.31l-.61,5.34v.48c0,.72.25,1.19.74,1.43.48.23,1.22.36,2.19.36h13.97c.33,0,.61.26.85.77.25.51.38,1.13.38,1.84s-.13,1.4-.38,2.08c-.24.67-.52,1.01-.85,1.01h-12.12c-2.21,0-3.58.15-4.11.48-.53.32-.79,1.26-.79,2.85v23.38c0,3.26.69,5.77,2.08,7.54,1.39,1.79,3.39,2.67,6.01,2.67,2.28,0,4.11-.15,5.45-.48,1.35-.31,2.56-.87,3.62-1.66l.48-.24c.57,0,.87.56.87,1.66,0,.48-.73,1.33-2.21,2.56-1.47,1.23-3.29,2.32-5.46,3.26-2.16.95-4.39,1.43-6.68,1.43-4.09,0-7.23-1.21-9.43-3.62"/>
        <path class="cls-1" d="m321.11,445.75c-3.72-2.05-6.66-4.91-8.83-8.55-2.17-3.64-3.24-7.72-3.24-12.23s1.2-8.63,3.61-12.83c2.41-4.19,5.68-7.6,9.81-10.22,4.12-2.61,8.59-3.91,13.41-3.91s8.91,1.09,12.75,3.26c3.84,2.17,6.88,5.11,9.13,8.79,2.26,3.68,3.38,7.62,3.38,11.82,0,4.75-1.07,9.18-3.19,13.3-2.11,4.12-5.26,7.42-9.43,9.92-4.16,2.49-9.19,3.74-15.07,3.74-4.49,0-8.6-1.03-12.31-3.09m27.51-7.01c1.64-3.09,2.45-7.76,2.45-14.01,0-3.8-.74-7.48-2.2-11.04-1.47-3.56-3.52-6.46-6.13-8.67-2.62-2.22-5.6-3.32-8.95-3.32-2.37,0-4.42.36-6.12,1.07-1.73.71-3.28,1.95-4.66,3.68-1.48,1.82-2.5,4.05-3.07,6.71-.57,2.66-.85,5.68-.85,9.09,0,3.96.73,7.7,2.19,11.22,1.48,3.52,3.5,6.38,6.07,8.55,2.58,2.18,5.46,3.26,8.65,3.26,6.13,0,10.34-2.17,12.62-6.53m-16.67-46.91c0-.55.16-1.26.49-2.13.74-1.9,2.15-4.71,4.23-8.43,2.09-3.72,3.81-6.73,5.21-9.02.41-.64.92-1.15,1.54-1.54.61-.4,1.2-.6,1.77-.6,1.64,0,3.04.21,4.23.65,1.18.44,1.77,1.05,1.77,1.84,0,.55-.16,1.07-.48,1.54-.33.48-.57.79-.74.95-1.38,1.98-3.52,4.61-6.38,7.9-2.85,3.28-5.14,5.75-6.86,7.42-1.71,1.66-2.97,2.5-3.8,2.5-.65,0-.98-.36-.98-1.07"/>
        <path class="cls-1" d="m363.44,446.22c0-.55.21-.93.62-1.13.4-.19,1.14-.46,2.2-.77,1.71-.4,3.02-.89,3.92-1.48.9-.59,1.35-1.6,1.35-3.03v-25.53c0-2.53-.29-4.47-.86-5.82-.58-1.35-1.8-2.26-3.68-2.73-.82-.23-1.22-.75-1.22-1.54,0-.87.36-1.34,1.1-1.43,2.53-.62,4.68-1.42,6.43-2.37,1.76-.95,3.7-2.18,5.83-3.68.57-.4,1.01-.6,1.34-.6.42,0,.62.28.62.83l-.25,2.49c-.08.64-.17,1.41-.24,2.32-.09.91-.13,1.85-.13,2.79,0,.79.09,1.27.25,1.42,2.95-2.68,6.01-4.69,9.18-5.99,3.19-1.31,6.7-1.96,10.54-1.96s7.21,1.58,9.86,4.75c2.66,3.17,3.99,7.09,3.99,11.76v25.3c0,1.42.43,2.39,1.3,2.91.85.51,2.17,1.05,3.97,1.6.98.32,1.69.62,2.15.89.44.28.67.69.67,1.25,0,.71-.82,1.07-2.45,1.07-2.21,0-3.97-.12-5.27-.36-1.64-.15-3.14-.24-4.54-.24-1.3,0-2.86.09-4.66.24-1.31.23-3.1.36-5.38.36-1.64,0-2.45-.36-2.45-1.07,0-.56.22-.97.66-1.25.46-.28,1.17-.58,2.15-.89,1.8-.55,3.12-1.09,3.98-1.6.86-.52,1.3-1.49,1.3-2.91v-24.94c0-3.41-1.01-6.1-3.01-8.09-2-1.97-4.69-3-8.03-3.08-5.07,0-9.59,1.59-13.6,4.75-.66.64-.99,1.54-.99,2.73v28.63c0,1.42.46,2.44,1.36,3.03.89.6,2.21,1.09,3.92,1.48.97.24,1.69.5,2.15.77.44.28.66.66.66,1.13,0,.87-.82,1.31-2.45,1.31-2.13,0-3.88-.12-5.27-.36-1.79-.15-3.34-.24-4.65-.24s-2.87.09-4.66.24c-1.31.23-3.07.36-5.28.36-1.63,0-2.45-.44-2.45-1.31"/>
        <path class="cls-1" d="m436.66,445.75c-3.71-2.05-6.66-4.91-8.82-8.55-2.17-3.63-3.25-7.72-3.25-12.23s1.2-8.62,3.62-12.83c2.4-4.2,5.67-7.6,9.81-10.22,4.12-2.61,8.59-3.91,13.41-3.91s8.91,1.09,12.75,3.26c3.83,2.18,6.87,5.11,9.13,8.79,2.24,3.68,3.37,7.62,3.37,11.82,0,4.75-1.06,9.18-3.18,13.3-2.13,4.11-5.27,7.42-9.44,9.91-4.16,2.49-9.19,3.74-15.07,3.74-4.5,0-8.6-1.03-12.32-3.09m27.51-7.01c1.63-3.08,2.45-7.76,2.45-14.01,0-3.79-.73-7.48-2.2-11.04-1.48-3.56-3.52-6.45-6.13-8.67-2.62-2.21-5.6-3.33-8.95-3.33-2.38,0-4.41.36-6.12,1.07-1.72.72-3.27,1.95-4.66,3.68-1.47,1.82-2.5,4.05-3.07,6.71-.58,2.66-.86,5.69-.86,9.09,0,3.95.74,7.69,2.21,11.22s3.49,6.38,6.06,8.55c2.58,2.18,5.46,3.27,8.64,3.27,6.13,0,10.34-2.18,12.63-6.54"/>
        <path class="cls-1" d="m478.99,446.22c0-.47.22-.83.67-1.07.45-.23,1.16-.52,2.15-.83,1.79-.55,3.13-1.09,3.98-1.6.86-.52,1.28-1.49,1.28-2.91v-25.53c0-2.53-.3-4.51-.92-5.94-.6-1.42-1.85-2.3-3.73-2.61-.74-.15-1.1-.67-1.1-1.54,0-.79.32-1.27.98-1.43,2.2-.55,3.96-1.13,5.26-1.71,1.31-.6,2.82-1.49,4.54-2.68l2.69-1.79c.08,0,.24-.07.44-.23.2-.16.42-.24.68-.24.15,0,.32.08.48.24.16.15.25.36.25.59l-.25,2.49c-.08.64-.17,1.41-.24,2.32-.09.91-.13,1.85-.13,2.79,0,.79.09,1.27.25,1.42h.24c5.64-5.3,12.01-7.95,19.12-7.95,3.01,0,5.51.64,7.47,1.9,1.96,1.27,3.56,3.37,4.78,6.3h.37c6.37-5.46,13.03-8.2,19.97-8.2,3.76,0,6.75,1.64,8.95,4.93,2.21,3.29,3.32,7.15,3.32,11.58v25.3c0,1.42.42,2.39,1.28,2.91.86.51,2.18,1.05,3.98,1.6.98.32,1.7.6,2.15.83.45.23.68.6.68,1.07s-.19.82-.55,1.01c-.38.2-1.01.3-1.91.3-2.21,0-3.92-.12-5.14-.36-1.64-.15-3.15-.24-4.54-.24-1.47,0-3.02.09-4.66.24-1.47.23-3.3.36-5.52.36-1.64,0-2.45-.44-2.45-1.31,0-.55.23-.95.68-1.18.44-.24,1.17-.48,2.14-.72,1.72-.4,3.02-.89,3.92-1.48.91-.59,1.35-1.6,1.35-3.03v-24.94c0-2.93-.97-5.54-2.94-7.84-1.96-2.3-4.25-3.44-6.86-3.44-4.34,0-7.88,1.07-10.66,3.19-2.29,1.75-3.43,4.6-3.43,8.56v24.47c0,1.42.49,2.44,1.46,3.03.99.6,2.33,1.09,4.05,1.48,1.88.4,2.82,1.03,2.82,1.9s-.82,1.31-2.45,1.31c-2.21,0-4.01-.12-5.39-.36-1.8-.15-3.36-.24-4.66-.24-1.47,0-3.03.09-4.66.24-1.47.23-3.31.36-5.51.36-1.64,0-2.46-.44-2.46-1.31,0-.47.19-.81.56-1.01.36-.19.77-.38,1.22-.53.45-.16.8-.28,1.04-.36,1.88-.55,3.25-1.09,4.11-1.6.86-.52,1.28-1.49,1.28-2.91v-24.94c0-2.93-.97-5.54-2.94-7.84-1.96-2.3-4.25-3.44-6.87-3.44-4.32,0-7.87,1.07-10.65,3.19-2.21,1.59-3.32,4.44-3.32,8.56v24.47c0,1.42.44,2.39,1.29,2.91.87.51,2.19,1.05,3.99,1.6.24.08.63.2,1.16.36.53.15.94.36,1.23.59.28.23.43.56.43.95,0,.87-.83,1.31-2.46,1.31-2.12,0-3.88-.12-5.27-.36-1.79-.15-3.35-.24-4.65-.24s-2.87.09-4.66.24c-1.31.23-3.07.36-5.27.36-1.64,0-2.45-.44-2.45-1.31"/>
        <path class="cls-1" d="m576.41,447.23c-1.55-1.07-2.84-2.41-3.86-4.03-1.02-1.62-1.53-3.15-1.53-4.58,0-2.45.68-4.39,2.02-5.82,1.34-1.42,3.57-2.77,6.68-4.03l12.5-4.99c1.56-.63,2.49-1.19,2.82-1.66.32-.48.53-1.5.61-3.09l.25-7.6c.08-2.13-.54-3.93-1.84-5.4-1.3-1.46-3.11-2.19-5.39-2.19-1.23,0-2.45.2-3.67.6-1.23.39-2.25.91-3.07,1.54-.82.55-1.23,1.7-1.23,3.44l.12,2.13c0,.64-1.04,1.48-3.12,2.56-2.08,1.07-3.74,1.6-4.97,1.6-.4,0-.73-.1-.97-.3-.25-.19-.37-.45-.37-.77,0-1.26.43-2.63,1.29-4.09.85-1.46,2.06-2.83,3.62-4.09,2.77-2.46,5.89-4.48,9.37-6.06,3.47-1.58,6.43-2.37,8.88-2.37,2.94,0,5.37,1.01,7.29,3.03,1.92,2.01,2.84,4.53,2.76,7.54l-.6,28.5c-.09,1.66.28,3.01,1.1,4.04.81,1.03,1.91,1.54,3.31,1.54,2.04,0,3.55-.44,4.54-1.3.4-.4.72-.6.97-.6.42,0,.74.12.99.36.25.24.36.56.36.95,0,.32-.11.73-.36,1.24-.24.51-.57.97-.99,1.37-1.3,1.26-2.71,2.28-4.22,3.03-1.51.75-2.92,1.13-4.23,1.13-3.76,0-6.74-2.06-8.95-6.18h-.36c-2.7,2.13-5.27,3.7-7.73,4.69-2.45.99-4.99,1.48-7.6,1.48-1.39,0-2.85-.54-4.41-1.6m17.4-6.95c.49-.48.85-1.07,1.11-1.78.24-.72.4-1.74.48-3.09l.24-5.81v-.72c0-.62-.08-1.09-.24-1.36-.16-.28-.45-.42-.86-.42-.49,0-1.31.2-2.45.6-4.08,1.42-7.03,2.93-8.82,4.5-1.8,1.59-2.7,3.13-2.7,4.64,0,1.98.59,3.52,1.78,4.63,1.18,1.11,2.59,1.66,4.23,1.66,2.86,0,5.26-.95,7.23-2.85"/>
        <path class="cls-1" d="m164.77,494.4c-3.58-.16-6.24-.24-7.94-.24-.56,0-1.29.03-2.2.1-.72.1-1.71.14-2.94.14-.95,0-1.42-.21-1.42-.62,0-.26.1-.41.3-.48.19-.06.64-.16,1.32-.28,1.25-.22,2.11-.59,2.58-1.09.48-.5.71-1.33.71-2.47v-21.38c0-1.11-.23-1.91-.71-2.4-.47-.5-1.33-.85-2.58-1.07-.62-.1-1.04-.2-1.27-.31-.23-.11-.34-.3-.34-.54,0-.42.47-.62,1.42-.62l2.8.04c.48.03,1.37.05,2.64.05,1.34,0,3.03-.08,5.05-.24.69-.03,1.32-.06,1.9-.09.56-.03,1.05-.05,1.44-.05,4.25,0,7.77.66,10.54,1.97,2.78,1.32,4.81,3.11,6.1,5.38,1.29,2.26,1.93,4.83,1.93,7.71s-.76,5.75-2.3,8.3c-1.54,2.55-3.61,4.56-6.22,6.06-2.62,1.48-5.46,2.23-8.53,2.23l-2.26-.09Zm8.42-3.38c1.97-1.2,3.5-2.87,4.6-5.01,1.1-2.13,1.64-4.56,1.64-7.29,0-2.91-.66-5.46-1.96-7.64-1.32-2.19-3.02-3.86-5.12-5.02-2.11-1.15-4.32-1.73-6.6-1.73-1.73,0-3.03.05-3.89.15-.87.09-1.55.34-2.03.76-.5.41-.74,1.07-.74,1.99v21.19c0,1.74.66,2.91,1.99,3.52,1.33.6,3.11.91,5.37.91,2.52,0,4.76-.6,6.75-1.81"/>
        <path class="cls-1" d="m192.52,493.88c0-.23.13-.4.4-.52.26-.13.66-.24,1.22-.33,1.28-.22,2.19-.6,2.77-1.12.58-.52.86-1.34.86-2.44v-21.38c0-1.11-.23-1.91-.7-2.4-.48-.49-1.34-.84-2.58-1.06-1.07-.19-1.62-.51-1.62-.96,0-.34.48-.52,1.42-.52,1.24,0,2.75.03,4.51.1l4.17.04,6.72-.04,4.16-.1c.56,0,.85.14.89.43.06.25.2.95.41,2.09.21,1.14.32,2.07.32,2.81,0,.48-.23.71-.68.71-.16,0-.28-.03-.34-.09-.07-.07-.13-.2-.2-.39-.06-.15-.19-.57-.39-1.23-.2-.66-.43-1.13-.68-1.38-.79-.86-1.88-1.29-3.29-1.29h-6.42c-.33,0-.71.15-1.13.46s-.64.66-.64,1.07v10.07c0,.28.09.53.27.73.19.21.39.32.62.32h4.86c.91,0,1.55-.16,1.91-.48.36-.32.67-.93.93-1.85.19-.7.5-1.05.88-1.05.13,0,.27.08.42.22.14.15.22.32.22.55l-.05,1.23-.09,2.09.04,2.52.05,1.13c0,.54-.15.82-.44.82-.48,0-.87-.51-1.13-1.52-.19-.76-.46-1.31-.8-1.64-.36-.33-.83-.5-1.45-.5h-4.56c-.62,0-1.05.08-1.3.23-.25.16-.38.5-.38,1v9.12c0,1.17.25,1.99.76,2.47.51.48,1.34.71,2.48.71h3.62c1.08,0,1.97-.06,2.67-.19.71-.13,1.3-.34,1.8-.62.48-.32.93-.75,1.34-1.3.4-.56.89-1.34,1.45-2.36.22-.4.45-.6.68-.6.42,0,.64.21.64.66,0,.41-.19,1.28-.54,2.59-.37,1.31-.7,2.29-.99,2.92-.03.06-.08.17-.15.34-.07.15-.14.28-.22.36-.08.08-.19.12-.32.12-.66,0-3.52-.05-8.62-.14-2.26-.1-4.5-.15-6.72-.15-.92,0-1.77.05-2.55.15-1.66.09-2.69.14-3.09.14-.95,0-1.42-.17-1.42-.52"/>
        <path class="cls-1" d="m224.95,494.23c-.24-.11-.36-.25-.36-.4,0-.38.36-.65,1.07-.81,1.35-.26,2.34-.63,3-1.14.65-.5.97-1.27.97-2.28v-22.05c0-.76-.07-1.33-.24-1.69-.15-.36-.43-.62-.81-.79-.38-.15-1.02-.32-1.94-.47-1.08-.19-1.61-.51-1.61-.96,0-.34.47-.51,1.42-.51s1.99.03,3.05.09l2.44.04,2.94-.04c1.25-.07,2.32-.09,3.24-.09s1.42.17,1.42.51c0,.45-.54.77-1.62.96-1.54.28-2.66.58-3.34.91-.69.32-1.03.89-1.03,1.7v22.38c0,1.04.25,1.79.74,2.22.49.45,1.5.66,3.04.66h6.07c.82,0,1.56-.11,2.26-.38.68-.26,1.21-.54,1.57-.85.65-.54,1.13-1.03,1.44-1.45.31-.43.68-1.07,1.1-1.93.13-.32.3-.63.49-.95.2-.32.4-.48.59-.48s.34.09.45.27c.09.17.14.37.14.59l-.05.23c-.42,1.52-.72,2.68-.9,3.5-.18.81-.32,1.65-.42,2.54-.07.54-.3.81-.68.81-3.5,0-6.72-.04-9.66-.14-3.34-.07-5.72-.1-7.16-.1-1.01,0-2.26.03-3.73.1-1.47.06-2.44.11-2.89.14-.42,0-.76-.05-1.01-.17"/>
        <path class="cls-1" d="m282.77,492.86c-2.71-1.36-4.89-3.24-6.55-5.68-1.64-2.43-2.47-5.22-2.47-8.36s.87-5.75,2.6-8.2c1.74-2.46,4.05-4.4,6.96-5.83,2.91-1.42,6.03-2.13,9.37-2.13,1.7,0,3.08.09,4.14.26,1.05.17,2.59.5,4.58.97.46.13.8.32,1.01.58.21.25.36.6.42,1.04.25,2.47.41,4.3.44,5.46.03.2-.04.36-.21.5-.19.14-.39.21-.62.21-.43,0-.7-.22-.83-.66-.36-1.36-.77-2.45-1.2-3.26-.44-.81-1.05-1.48-1.84-2.02-.83-.5-1.81-.9-2.97-1.19-1.16-.28-2.41-.42-3.74-.42-2.49,0-4.74.63-6.72,1.89-1.99,1.27-3.57,2.94-4.71,5.02-1.14,2.07-1.71,4.28-1.71,6.62,0,2.64.57,5.15,1.71,7.58,1.14,2.42,2.74,4.39,4.78,5.89,2.05,1.51,4.38,2.26,6.99,2.26,2.26,0,4.15-.5,5.71-1.5,1.55-1,2.91-2.48,4.04-4.44.1-.19.25-.34.45-.45.19-.11.38-.17.54-.17.19,0,.36.06.49.19.13.13.19.32.19.57,0,.38-.15,1.07-.44,2.07-.3,1-.58,1.85-.88,2.54-.26.44-.46.73-.59.86-.13.12-.46.26-.98.42-1.15.45-2.55.79-4.22,1.02-1.66.23-3.35.36-5.05.36-3.07,0-5.97-.67-8.68-2.01"/>
        <path class="cls-1" d="m311.5,494.23c-.26-.11-.4-.26-.4-.46,0-.41.54-.77,1.61-1.09.96-.29,1.77-.69,2.46-1.21.68-.53,1.28-1.34,1.77-2.46,1.74-3.86,3.25-7.36,4.53-10.52,1.3-3.15,2.84-7.09,4.64-11.81.35-.99.58-1.91.68-2.75.1-.03.34-.11.72-.22.37-.11.72-.28,1.05-.49.26-.19.47-.48.61-.87.15-.38.26-.62.32-.75.03-.03.07-.04.12-.03.05.01.09.04.13.07.06.16.12.34.17.52.05.19.11.37.17.52,2.42,7.38,5.33,15.84,8.73,25.37.62,1.74,1.31,2.92,2.07,3.54.74.61,1.72,1.02,2.89,1.21.52.09.91.25,1.19.46.27.2.42.42.42.64,0,.32-.48.48-1.42.48l-2.65-.1c-1.83-.13-3.22-.19-4.17-.19l-5.14.05c-.95,0-1.42-.19-1.42-.57,0-.19.15-.38.46-.54.31-.17.7-.3,1.15-.36,1.99-.32,2.99-1.03,2.99-2.14,0-1.01-.64-3.58-1.91-7.69-.07-.23-.19-.36-.37-.43-.17-.06-.5-.09-.95-.09h-9.26c-.36,0-.64.29-.84.85-.36,1.02-.78,2.34-1.28,3.97-.49,1.62-.73,2.58-.73,2.87,0,.66.28,1.24.81,1.72.54.47,1.22.8,2.04.99.58.16,1,.3,1.24.43.26.13.38.3.38.52,0,.35-.48.52-1.42.52-.59,0-1.08-.02-1.48-.05l-2.99-.05c-.55,0-1.17.03-1.84.07-.66.05-1.17.07-1.49.07-.92.09-1.77.14-2.55.14-.42,0-.77-.06-1.03-.17m20.1-13.47c.19,0,.36,0,.49-.05.13-.03.2-.09.2-.19l-.1-.47-3.83-11.59c-.2-.57-.34-.85-.44-.85-.07,0-.19.27-.39.81l-4.46,11.64-.09.38c0,.16.07.25.21.28.15.05.42.05.81.05h7.6Z"/>
        <path class="cls-1" d="m358.46,491.6c-2.26-2.15-3.38-5.1-3.38-8.84v-14.59c0-1.05-.21-1.85-.64-2.4-.42-.56-.96-.91-1.62-1.07-1.07-.28-1.61-.63-1.61-1.05,0-.34.47-.52,1.42-.52l2.11.05c1.05.07,1.91.09,2.6.09l2.36-.05c.39-.03.91-.05,1.57-.05.95,0,1.42.17,1.42.52,0,.19-.12.36-.35.48-.22.12-.65.28-1.27.47-.46.13-.91.52-1.38,1.16-.46.65-.68,1.41-.68,2.26v13.35c0,3.68.93,6.43,2.79,8.26,1.87,1.85,4.36,2.76,7.5,2.76s5.72-1.1,7.33-3.3c1.62-2.19,2.43-5.22,2.43-9.05,0-1.93-.06-5.34-.2-10.22-.03-1.34-.21-2.48-.54-3.45-.33-.97-.82-1.54-1.48-1.73-1.07-.28-1.62-.6-1.62-.95s.48-.52,1.42-.52l3.68.05c.62,0,1.39-.03,2.31-.09l1.66-.05c.95,0,1.42.17,1.42.52,0,.42-.55.74-1.62.95-1.53.29-2.34,1.48-2.45,3.56-.12,1.93-.21,3.91-.27,5.91-.05,2.01-.09,3.37-.13,4.07,0,.92-.03,2.29-.09,4.13-.07,2.41-.66,4.57-1.81,6.49-1.15,1.91-2.68,3.4-4.6,4.46-1.93,1.06-4.09,1.59-6.48,1.59-4.28,0-7.54-1.07-9.81-3.23"/>
        <path class="cls-1" d="m402.39,492.86c-2.71-1.36-4.89-3.24-6.54-5.68-1.66-2.43-2.48-5.22-2.48-8.36s.87-5.75,2.6-8.2c1.73-2.46,4.05-4.4,6.96-5.83,2.91-1.42,6.03-2.13,9.36-2.13,1.7,0,3.08.09,4.14.26,1.06.17,2.6.5,4.58.97.46.13.8.32,1.01.58.2.25.35.6.41,1.04.26,2.47.41,4.3.44,5.46.03.2-.05.36-.22.5-.18.14-.39.21-.61.21-.43,0-.71-.22-.83-.66-.36-1.36-.77-2.45-1.2-3.26-.44-.81-1.06-1.48-1.84-2.02-.82-.5-1.81-.9-2.97-1.19-1.17-.28-2.41-.42-3.75-.42-2.49,0-4.73.63-6.71,1.89-2,1.27-3.57,2.94-4.71,5.02-1.14,2.07-1.72,4.28-1.72,6.62,0,2.64.58,5.15,1.72,7.58,1.14,2.42,2.74,4.39,4.78,5.89,2.05,1.51,4.38,2.26,6.99,2.26,2.26,0,4.16-.5,5.71-1.5,1.55-1,2.91-2.48,4.05-4.44.09-.19.25-.34.44-.45.19-.11.38-.17.54-.17.2,0,.36.06.49.19.13.13.19.32.19.57,0,.38-.15,1.07-.44,2.07-.29,1-.59,1.85-.89,2.54-.26.44-.46.73-.58.86-.13.12-.46.26-.98.42-1.15.45-2.55.79-4.22,1.02-1.66.23-3.34.36-5.05.36-3.07,0-5.97-.67-8.67-2.01"/>
        <path class="cls-1" d="m431.12,494.23c-.27-.11-.4-.26-.4-.46,0-.41.54-.77,1.61-1.09.95-.29,1.77-.69,2.46-1.21.68-.53,1.27-1.34,1.76-2.46,1.74-3.86,3.25-7.36,4.54-10.52,1.29-3.15,2.83-7.09,4.63-11.81.36-.99.59-1.91.68-2.75.09-.03.34-.11.71-.22.37-.11.73-.28,1.05-.49.26-.19.46-.48.62-.87.14-.38.25-.62.32-.75.03-.03.07-.04.12-.03.05.01.09.04.12.07.07.16.12.34.17.52.05.19.11.37.17.52,2.43,7.38,5.33,15.84,8.73,25.37.63,1.74,1.31,2.92,2.07,3.54.74.61,1.71,1.02,2.89,1.21.52.09.93.25,1.2.46.27.2.42.42.42.64,0,.32-.48.48-1.43.48l-2.64-.1c-1.83-.13-3.22-.19-4.17-.19l-5.15.05c-.95,0-1.42-.19-1.42-.57,0-.19.15-.38.46-.54.32-.17.7-.3,1.15-.36,2-.32,2.99-1.03,2.99-2.14,0-1.01-.64-3.58-1.91-7.69-.07-.23-.18-.36-.37-.43-.17-.06-.5-.09-.95-.09h-9.26c-.36,0-.64.29-.84.85-.36,1.02-.78,2.34-1.27,3.97-.48,1.62-.73,2.58-.73,2.87,0,.66.27,1.24.81,1.72.54.47,1.22.8,2.04.99.59.16,1,.3,1.25.43.25.13.37.3.37.52,0,.35-.48.52-1.42.52-.59,0-1.08-.02-1.48-.05l-2.99-.05c-.56,0-1.17.03-1.84.07-.67.05-1.16.07-1.5.07-.91.09-1.77.14-2.54.14-.43,0-.77-.06-1.03-.17m20.1-13.47c.19,0,.36,0,.49-.05.13-.03.2-.09.2-.19l-.11-.47-3.82-11.59c-.19-.57-.34-.85-.44-.85-.07,0-.19.27-.39.81l-4.46,11.64-.09.38c0,.16.07.25.21.28.15.05.42.05.81.05h7.61Z"/>
        <path class="cls-1" d="m468.36,282.8c-2.18-1-22.42-10.61-32.04-28.4-3.86-7.15-8.31-18.18-8.48-30.99,1.21-8.55.34-18.01.27-19.38,18.65-20.41,15.15-42.66,14.92-44.82,4.81-5.12,14.96-18.26,14.96-37.91,0-26.05-18.31-41.53-18.31-41.53,3.83-3.08,8.61-4.77,13.59-4.77,9.3,0,17.48,5.77,20.32,14.36l3.65,11.04,7.56-8.99c7.58-9.03,11.77-20.42,11.77-32.08,0-28.02-23.53-50.83-52.46-50.83h-96.38s11.28,8.32,11.28,13.32c0,8.2-9.21,18.32-10.82,26.4-3.99,4.28-15.71,18.32-15.71,36.12,0,3.33.17,6.39.52,9.36-3.68,4.36-11.3,14.33-14.14,24.99-2.19-2.41-4.62-4.79-7.28-7.09-.13-7.56-2.77-25.47-22.53-41.75-1.79-36.86-36.04-54.02-58.76-54.02h-74.58c-15.02,0-26.22-7.97-26.33-8.04l-10.7-7.77.32,12.95c.6,24.39,12.85,38.04,23.25,45.26.89,8.33,4.77,27.62,21.46,40.73.49,5.29,2.14,15.13,7.78,25.12,7.33,12.99,22.87,28.51,55.28,28.61l17.69.06c4.95,13.05,14.93,23.89,27.67,30.12-30.76,25.79-50.54,67.2-50.54,106.06,0,5.35.36,10.82,1.03,16.28-30.79-3.71-53.81-28.85-53.81-59.13,0-10.95,3.11-21.32,8.55-30.26l8.88,1.79,5.93-27.7-27.73,8.87,2.88,8.43.09.09c-7.39,11.26-11.6,24.59-11.6,38.78,0,37.84,30.26,69.27,69.09,71.96.75,3.28,1.6,6.44,2.54,9.44v5.78h135.25c3.73-20.73-5.56-35.98-16.54-44.54.24-.56.48-1.1.69-1.66,30.65-1.63,44.26,22.3,41.28,46.2l6.48.03h100.51l.25-6.05c1.1-27.1-17.19-40.91-27.02-44.42m-24.24-261.72c21.77,0,39.49,17.16,39.49,38.26,0,5.36-1.19,10.73-3.46,15.63-6.45-7.89-16.34-12.54-26.86-12.54-8.44,0-16.49,2.98-22.8,8.41l-26.61-25.77-24.59-23.99h64.83Zm-83.45,30.91c.07-3.96,6.23-10.2,9.32-21.96l61.56,59.62h0c14.54,14.08,17.91,34.62,7.2,54.06-1.72-4.95-6.27-12.14-10.51-16.26-3.87-3.74-55.52-53.94-59.95-58.22-5.5-5.34-7.72-10.87-7.61-17.24m-10.05,14.52c1.83,4.21,5.98,9.18,8.5,11.62,0,0,17.73,17.2,30.38,29.5,12.45,12.11,24.81,24.12,29.57,28.71,14.26,13.83,13.87,38.16,5.24,51.5,0,0-1.95-7.54-15.66-20.83l-48.41-46.91c-17.96-17.41-17.41-40.22-9.6-53.59m-13.51,43.19c3.06,7.83,9.05,14.36,13.94,19.28l48.42,46.91c19.26,18.68,23.57,45.86,5.46,63.41-3.39-13.1-10.11-25.32-19.53-35.49l-41.19-40.58c-21.57-20.91-13.2-45.53-7.09-53.53M133.39,24.01c5.54,2.17,13.35,4.38,22.32,4.38h74.58c12.07,0,38.21,8.14,44.51,33.04-7.42-2.7-16.02-4.12-26.18-4.12h-70.74c-4.51,0-15.74-1.66-25.93-7.91-9.69-5.94-15.93-14.48-18.57-25.39m23.5,41.7s10.82,4.17,20.99,4.17h70.74c32.41,0,41.66,16.99,48.54,33-1.99-.7-13.02-4.11-24.81-4.11-.07,0-13.81.04-68.25.04-32.45,0-42.65-18.95-47.21-33.1m69.93,74.4c-33.63-.11-44.8-19.73-48.5-33.02.22.09,10.81,4.3,25.78,4.3q68.15,0,68.15-.04c22.89,0,38.51,12.03,46.36,31.12-6.28-1.69-11.56-2.16-21.74-2.16-1.84,0-70.05-.19-70.05-.19m123.49,180.56h-111.37c-2.9-10.29-4.36-20.98-4.36-31.75,0-37.9,20.84-78.46,51.92-101.16,31.41,8.72,53.27,36.92,53.27,68.8,0,8.87-1.64,17.49-4.89,25.65-5.58-2.26-11.48-3.4-17.55-3.4h0c-3.63,0-6.55,2.82-6.55,6.29s3.07,6.3,6.5,6.3c17.17,0,31.55,12.77,33.04,29.28m50.86.01c-1.51-25.99-23.36-46.21-50.34-46.39,1.27-5.77,1.93-11.73,1.93-17.73,0-38.98-27.17-72.6-66.06-81.77-12.07-2.95-22.44-11.11-28.07-22.01,29.79.09,38.28.09,38.39.09h.25c.52-.02,1.1-.04,1.78-.04,8.11,0,19.46,1.41,25.07,5.37,2.68,4.84,6.42,9.63,10.92,13.91,29.02,27.58,59.13,52.76,59.13,80.15,0,31.01,44.63,45.84,44.63,68.42h-37.61Zm50.64,0c-1.44-17.14-9.07-24.16-17.85-32.24,0,0-26.61-21.33-26.61-33.28,2.97-2.73,6.96-6.75,10.64-11.58,3.5,11.35,10.03,24.24,19.58,33.2,9.85,9.24,20.32,14.9,28.4,18.59,7.02,3.21,16.28,13.99,16.28,25.32h-30.46Zm-38.09-280.14c-3.58,0-6.5-2.83-6.5-6.29s2.91-6.29,6.53-6.29h17.97c3.58,0,6.49,2.82,6.49,6.29s-2.91,6.28-6.52,6.28"/>
      </g>
      <g>
        <g>
          <path class="cls-1" d="m128.47,527.45c-2.94.38-3.57.68-5.91,4.55-2.68,4.34-10.17,16.81-13.36,22.34h-1.36c-.98-7.53-2.55-18.21-3.36-23.19-.51-3.23-1.06-3.4-3.79-3.7l.3-1.19h10.38l-.34,1.19-1.11.17c-1.66.26-2.26.6-2.08,2.13.3,2.94,1.62,11.49,2.68,18.98,3.06-5.02,8.59-14.38,10.64-18.12,1.28-2.34.6-2.77-1.36-3.02l-1.06-.13.34-1.19h9.66l-.26,1.19Z"/>
          <path class="cls-1" d="m135.27,550.21c-2.13,2.85-4.81,4.21-6.08,4.21-1.11,0-1.57-1.11-.77-4.51.68-2.81,1.87-7.36,2.68-10.81.17-.81.13-1.19-.13-1.19-.43,0-1.7.85-2.81,1.91l-.55-1.11c2-2.17,4.89-4,6.25-4,1.06,0,1.11,1.45.34,4.6-.81,3.06-1.83,7.36-2.6,10.38-.3,1.15-.3,1.62,0,1.62.43,0,1.57-.6,3.06-2.17l.6,1.06Zm1.19-22.29c0,1.32-.94,2.47-2.26,2.47-1.06,0-1.87-.77-1.87-1.91s.85-2.51,2.38-2.51c1.15,0,1.74.89,1.74,1.96Z"/>
          <path class="cls-1" d="m145.31,548.76c-.68.64-1.11,1.06-1.11,1.57,0,.68.85,1.45,3.4,2.68,4.68,2.17,5.96,3.57,5.96,5.45,0,3.57-6,6.64-10.3,6.64s-7.96-2.21-7.96-4.94c.04-1.79,2.51-3.66,7.23-6.38-1.11-.68-1.49-1.45-1.45-2.04,0-.72,1.02-1.87,2.94-3.06l1.28.09Zm5.06,11.1c0-.89-.38-1.87-2.04-2.89-1.66-1.02-3.66-2-4.64-2.43-3.36,1.87-4.81,3.45-4.81,4.94,0,2.21,2.85,3.79,6.04,3.79,3.36,0,5.45-1.66,5.45-3.4Zm-10.3-15.95c0-3.32,1.87-6.25,4.21-7.66,1.57-.98,3.49-1.53,4.68-1.53,1.36,0,2.64.34,3.62,1.15,2.43,0,3.96-.47,4.76-.98l.3.98c-1.23,1.49-2.64,1.91-3.96,2.08.13.59.26,1.19.26,1.96,0,3.06-1.49,5.4-2.98,6.6-1.79,1.49-4.17,2.51-6.42,2.47-2.94-.04-4.47-2.38-4.47-5.06Zm10.68-3.49c0-2.64-1.06-4.13-2.94-4.13-2.51,0-4.51,3.28-4.51,7.06,0,2.55,1.23,3.91,2.81,3.91,2.6,0,4.64-3.02,4.64-6.85Z"/>
          <path class="cls-1" d="m167.68,550.21c-2.13,2.85-4.81,4.21-6.08,4.21-1.11,0-1.57-1.11-.77-4.51.68-2.81,1.87-7.36,2.68-10.81.17-.81.13-1.19-.13-1.19-.43,0-1.7.85-2.81,1.91l-.55-1.11c2-2.17,4.89-4,6.25-4,1.06,0,1.11,1.45.34,4.6-.81,3.06-1.83,7.36-2.6,10.38-.3,1.15-.3,1.62,0,1.62.43,0,1.57-.6,3.06-2.17l.6,1.06Zm1.19-22.29c0,1.32-.94,2.47-2.26,2.47-1.06,0-1.87-.77-1.87-1.91s.85-2.51,2.38-2.51c1.15,0,1.74.89,1.74,1.96Z"/>
          <path class="cls-1" d="m180.06,550.04c-2.13,2.85-4.93,4.38-6.17,4.38-1.06,0-1.7-.85-.85-4.93,1.53-7.28,3.19-14.98,4.55-21.53.34-1.7.21-1.87-1.32-2-.47-.04-1.23-.13-1.57-.13l.26-1.11c1.83-.21,4-.64,5.19-1.06.77-.3,1.02-.34,1.28-.34.38,0,.38.38.17,1.36-1.91,8.17-4,17.87-5.4,24.97-.26,1.19-.21,1.57.13,1.57.38,0,1.57-.6,3.11-2.26l.64,1.06Z"/>
          <path class="cls-1" d="m202.52,550.08c-2.08,2.81-4.72,4.34-5.91,4.34s-1.7-.98-.94-4.85l.6-2.94c-1.57,2.6-3.83,4.72-5.11,5.74-1.36,1.11-2.98,2.04-4.38,2.04-1.49,0-2.72-1.83-2.72-5.28,0-4,1.83-8.42,4.72-11.06,2.21-2.04,5.28-3.36,8.13-3.36,2.17,0,4.13.64,4.94.72-.77,2.68-2.26,9.23-3.06,14.04-.21,1.19-.13,1.66.21,1.66.51,0,1.4-.55,2.94-2.13l.59,1.06Zm-7.7-3.53c.94-1.19,2.04-3.32,2.47-5.1.43-1.62.81-3.15.94-4.17-.6-.3-2-.68-3.23-.68-5.02,0-7.36,6.47-7.36,12,0,1.7.47,2.81,1.32,2.81,1.32,0,3.19-1.32,5.87-4.85Z"/>
          <path class="cls-1" d="m225.71,550.21c-2.08,2.72-4.77,4.25-5.96,4.25s-1.79-1.02-.94-5.06l.51-2.38c-2.47,3.62-6.47,7.45-9.49,7.45-1.66,0-3.23-1.49-3.23-5.49,0-3.79,1.74-8.47,4.98-11.19,1.83-1.62,5.15-3.02,7.11-3.02.98,0,2.26.13,3.11.55l1.49-7.32c.34-1.7.04-1.87-1.53-2-.42-.04-1.32-.09-1.62-.09l.25-1.15c2-.21,4.13-.68,5.4-1.11.64-.17.98-.3,1.23-.3.34,0,.43.38.21,1.28-1.96,8.38-3.96,17.23-5.4,25.1-.21,1.15-.04,1.62.26,1.62.51,0,1.57-.64,3.11-2.26l.51,1.11Zm-7.32-4.08c.85-1.19,1.53-2.47,2-4.51l.85-3.66c-.6-.68-2.04-1.32-4.08-1.32-4.89,0-6.98,7.02-6.98,11.4,0,2.38.64,3.62,1.79,3.62,1.74,0,4.25-2.38,6.42-5.53Z"/>
          <path class="cls-1" d="m299.55,527.45c-3.66.34-3.87.47-4.42,4-.89,6.08-1.49,11.1-2.21,16.68-.55,4.13-.17,4.3,3.4,4.59l-.3,1.19h-11.15l.3-1.19c3.4-.34,3.66-.47,4.3-4.59.89-6.17,1.7-11.83,2.64-17.87h-.13c-4.68,7.83-11.79,19.7-13.91,23.66h-.98c-.68-4.38-3.36-15.1-5.02-23.23h-.08l-2.81,11.66c-1.02,4.3-1.49,6.25-1.7,7.7-.3,1.87.13,2.38,3.4,2.68l-.3,1.19h-10l.3-1.19c2.89-.21,3.62-.81,4.21-2.6.77-2.21,1.66-5.15,2.81-9.66l2.04-8.17c1.06-4.17,1.02-4.34-3.11-4.85l.34-1.19h7.15c1.4,6.55,3.66,14.47,5.28,21.61l13.19-21.61h7.06l-.3,1.19Z"/>
          <path class="cls-1" d="m308.9,550.21c-2.13,2.85-4.81,4.21-6.08,4.21-1.11,0-1.57-1.11-.77-4.51.68-2.81,1.87-7.36,2.68-10.81.17-.81.13-1.19-.13-1.19-.43,0-1.7.85-2.81,1.91l-.55-1.11c2-2.17,4.89-4,6.25-4,1.06,0,1.11,1.45.34,4.6-.81,3.06-1.83,7.36-2.6,10.38-.3,1.15-.3,1.62,0,1.62.43,0,1.57-.6,3.06-2.17l.6,1.06Zm1.19-22.29c0,1.32-.94,2.47-2.26,2.47-1.06,0-1.87-.77-1.87-1.91s.85-2.51,2.38-2.51c1.15,0,1.75.89,1.75,1.96Z"/>
          <path class="cls-1" d="m332.9,550.08c-2.26,2.98-4.85,4.34-6.08,4.34-1.15,0-1.74-1.02-.94-4.51.77-3.02,1.49-6.04,2.13-8.72.68-2.77.51-3.7-.55-3.7-1.4,0-4.68,2.38-7.57,6.81-.77,1.15-1.11,2.26-1.45,3.57-.42,1.66-.98,3.96-1.32,5.7-1.06.21-2.21.55-3.02.85l-.3-.3c1.19-4.64,2.43-9.83,3.49-14.55.3-1.32.13-1.7-.21-1.7-.47,0-1.53.94-2.6,1.96l-.6-1.11c1.96-2.47,4.17-4,5.57-4,1.23,0,1.57,1.49.68,5.19l-.6,2.51c3.79-4.94,7.61-7.7,10.17-7.7,1.4,0,2.72.98,1.36,6.68-.55,2.34-1.36,5.62-2,8.3-.26,1.15-.26,1.66.04,1.66.38,0,1.62-.68,3.15-2.3l.64,1.02Z"/>
          <path class="cls-1" d="m342.46,554.42c-2.04,0-4.81-1.19-4.81-6.34,0-3.96,1.7-8.68,5.06-11.15,1.91-1.36,3.91-2.21,5.74-2.21,2.42,0,3.79,1.53,3.79,3.4,0,4.25-6.25,6.25-11.02,7.11-.04.51-.09,1.36-.09,1.79,0,2.47.68,4.85,3.32,4.85,1.91,0,4.21-1.19,6.3-3.36l.64,1.06c-3.45,4-6.81,4.85-8.94,4.85Zm-1.06-10.59c6.17-1.11,7.62-3.06,7.66-5.02,0-1.45-.85-2.26-2.21-2.26-1.28,0-4.21.94-5.45,7.28Z"/>
          <path class="cls-1" d="m374.92,550.21c-2.09,2.72-4.77,4.25-5.96,4.25s-1.79-1.02-.94-5.06l.51-2.38c-2.47,3.62-6.47,7.45-9.49,7.45-1.66,0-3.23-1.49-3.23-5.49,0-3.79,1.74-8.47,4.98-11.19,1.83-1.62,5.15-3.02,7.11-3.02.98,0,2.26.13,3.11.55l1.49-7.32c.34-1.7.04-1.87-1.53-2-.42-.04-1.32-.09-1.62-.09l.26-1.15c2-.21,4.13-.68,5.4-1.11.64-.17.98-.3,1.23-.3.34,0,.42.38.21,1.28-1.96,8.38-3.96,17.23-5.4,25.1-.21,1.15-.04,1.62.26,1.62.51,0,1.57-.64,3.11-2.26l.51,1.11Zm-7.32-4.08c.85-1.19,1.53-2.47,2-4.51l.85-3.66c-.59-.68-2.04-1.32-4.08-1.32-4.89,0-6.98,7.02-6.98,11.4,0,2.38.64,3.62,1.79,3.62,1.74,0,4.25-2.38,6.42-5.53Z"/>
          <path class="cls-1" d="m398.57,550.04c-2.09,2.89-4.85,4.34-6.04,4.34-1.11,0-1.62-1.02-.94-4.55.34-1.62.55-2.55.77-3.49-1.74,2.38-3.79,4.59-5.91,6.25-1.32.98-2.85,1.79-4.13,1.79-1.36,0-2.89-.89-1.7-6.13.64-2.64,1.4-5.79,2.13-8.76.34-1.28.3-1.66-.04-1.66-.47,0-1.7.89-2.77,1.96l-.6-1.06c2.04-2.26,4.81-4,6.13-4,1.19,0,1.23,1.32.47,4.6-.72,2.81-1.49,5.87-2.08,8.47-.64,2.89-.38,3.7.47,3.7,1.49,0,4-2.21,6.17-4.98,1.28-1.62,2.47-3.66,3.11-6.17.25-.98.68-2.72,1.02-4.55.85-.26,2.17-.72,3.06-1.11h.47c-1.28,4.94-2.85,11.4-3.49,15.06-.13,1.02,0,1.45.3,1.45.38,0,1.4-.51,2.98-2.17l.64,1.02Z"/>
          <path class="cls-1" d="m416.31,549.74c-2.6,2.98-5.66,4.68-8.6,4.68s-4.81-2.26-4.81-6.3c0-3.53,1.45-7.57,4.34-10.21,2-1.87,4.77-3.19,6.77-3.19,1.87,0,3.28.98,3.32,1.96.04.81-.6,1.91-1.45,2.21-.38.17-.64.13-.98-.26-.98-1.19-1.91-1.83-3.23-1.83-3.23,0-5.19,5.36-5.19,10.38,0,3.11,1.19,4.68,3.15,4.68,2.26,0,4.77-1.91,6.04-3.23l.64,1.11Z"/>
          <path class="cls-1" d="m438.76,550.08c-2.08,2.81-4.72,4.34-5.91,4.34s-1.7-.98-.94-4.85l.6-2.94c-1.57,2.6-3.83,4.72-5.11,5.74-1.36,1.11-2.98,2.04-4.38,2.04-1.49,0-2.72-1.83-2.72-5.28,0-4,1.83-8.42,4.72-11.06,2.21-2.04,5.28-3.36,8.13-3.36,2.17,0,4.13.64,4.93.72-.77,2.68-2.26,9.23-3.06,14.04-.21,1.19-.13,1.66.21,1.66.51,0,1.4-.55,2.94-2.13l.6,1.06Zm-7.7-3.53c.94-1.19,2.04-3.32,2.47-5.1.43-1.62.81-3.15.94-4.17-.6-.3-2-.68-3.23-.68-5.02,0-7.36,6.47-7.36,12,0,1.7.47,2.81,1.32,2.81,1.32,0,3.19-1.32,5.87-4.85Z"/>
          <path class="cls-1" d="m456.16,549.74c-2.6,2.98-5.66,4.68-8.6,4.68s-4.81-2.26-4.81-6.3c0-3.53,1.45-7.57,4.34-10.21,2-1.87,4.77-3.19,6.77-3.19,1.87,0,3.28.98,3.32,1.96.04.81-.6,1.91-1.45,2.21-.38.17-.64.13-.98-.26-.98-1.19-1.91-1.83-3.23-1.83-3.23,0-5.19,5.36-5.19,10.38,0,3.11,1.19,4.68,3.15,4.68,2.26,0,4.77-1.91,6.04-3.23l.64,1.11Z"/>
          <path class="cls-1" d="m468.58,550.21c-2.13,2.85-4.81,4.21-6.08,4.21-1.11,0-1.57-1.11-.76-4.51.68-2.81,1.87-7.36,2.68-10.81.17-.81.13-1.19-.13-1.19-.42,0-1.7.85-2.81,1.91l-.55-1.11c2-2.17,4.89-4,6.25-4,1.06,0,1.11,1.45.34,4.6-.81,3.06-1.83,7.36-2.6,10.38-.3,1.15-.3,1.62,0,1.62.42,0,1.57-.6,3.06-2.17l.6,1.06Zm1.19-22.29c0,1.32-.94,2.47-2.26,2.47-1.06,0-1.87-.77-1.87-1.91s.85-2.51,2.38-2.51c1.15,0,1.75.89,1.75,1.96Z"/>
          <path class="cls-1" d="m489.94,541.36c0,4.42-2.21,8.98-5.96,11.36-1.53.94-3.32,1.7-5.23,1.7-4.04,0-5.7-3.23-5.7-6.64,0-5.87,3.15-10.08,6.85-11.91,1.36-.68,3.1-1.15,4.38-1.15,3.57,0,5.66,2.34,5.66,6.64Zm-13.27,5.96c0,3.19,1.19,5.32,3.53,5.32,4.04,0,6.17-6.51,6.17-11.11,0-3.53-1.53-5.02-3.57-5.02-4.25,0-6.13,6.42-6.13,10.81Zm5.57-15.91l5.74-7.4c.89-.08,3.28.3,3.87.55l.04.43-8.68,7.11-.98-.68Z"/>
          <path class="cls-1" d="m246.37,541.36c0,4.42-2.21,8.98-5.96,11.36-1.53.94-3.32,1.7-5.23,1.7-4.04,0-5.7-3.23-5.7-6.64,0-5.87,3.15-10.08,6.85-11.91,1.36-.68,3.1-1.15,4.38-1.15,3.57,0,5.66,2.34,5.66,6.64Zm-13.27,5.96c0,3.19,1.19,5.32,3.53,5.32,4.04,0,6.17-6.51,6.17-11.11,0-3.53-1.53-5.02-3.57-5.02-4.25,0-6.13,6.42-6.13,10.81Z"/>
          <path class="cls-1" d="m513.67,550.08c-2.26,2.98-4.85,4.34-6.08,4.34-1.15,0-1.74-1.02-.94-4.51.76-3.02,1.49-6.04,2.13-8.72.68-2.77.51-3.7-.55-3.7-1.41,0-4.68,2.38-7.57,6.81-.77,1.15-1.11,2.26-1.45,3.57-.43,1.66-.98,3.96-1.32,5.7-1.06.21-2.21.55-3.02.85l-.3-.3c1.19-4.64,2.42-9.83,3.49-14.55.3-1.32.13-1.7-.21-1.7-.47,0-1.53.94-2.6,1.96l-.6-1.11c1.96-2.47,4.17-4,5.57-4,1.23,0,1.57,1.49.68,5.19l-.6,2.51c3.79-4.94,7.62-7.7,10.17-7.7,1.4,0,2.72.98,1.36,6.68-.55,2.34-1.36,5.62-2,8.3-.26,1.15-.26,1.66.04,1.66.38,0,1.62-.68,3.15-2.3l.64,1.02Z"/>
        </g>
        <rect class="cls-1" x="94.41" y="513.51" width="426.43" height="1.64"/>
        <rect class="cls-1" x="94.41" y="568.91" width="426.43" height="1.64"/>
      </g>
    </g>
  </g>
</svg>