<?xml version="1.0" encoding="UTF-8"?>
<svg id="Capa_2" data-name="Capa 2" xmlns="http://www.w3.org/2000/svg" viewBox="0 0 633.74 1029.34">
  <defs>
    <style>
      .cls-1 {
        fill: #fff;
        fill-rule: evenodd;
      }
    </style>
  </defs>
  <g id="Capa_1-2" data-name="Capa 1">
    <path class="cls-1" d="m171.38,386.12h290.98v343.5H171.38v-343.5Zm86.11-197.77h118.75l89.41,154.88H168.07l89.41-154.88Zm-129,276.06v239.35l-86.28,38.49v-168.66l86.28-109.19Zm376.76,239.35v-239.35l86.28,109.19v168.66l-86.28-38.49Zm-171.23-229.46c-4.37-4.36-10.43-7.04-17.15-7.04s-12.78,2.69-17.14,7.04l.04.04c-4.38,4.38-7.08,10.42-7.08,17.1s2.71,12.74,7.08,17.1c4.37,4.38,10.42,7.08,17.1,7.08s12.74-2.71,17.1-7.08l.05.05c4.34-4.37,7.03-10.43,7.03-17.15s-2.69-12.77-7.03-17.14Zm-17.15-49.25c18.27,0,34.84,7.44,46.86,19.45l.09.08c12,12.02,19.44,28.59,19.44,46.86s-7.44,34.86-19.44,46.87v.09c-12.02,12.01-28.62,19.44-46.95,19.44s-34.94-7.43-46.94-19.44c-12.02-12.02-19.45-28.62-19.45-46.95s7.43-34.93,19.45-46.94h.08c12.02-12.01,28.59-19.45,46.87-19.45Zm93.02,520.52v-143.31h42.88v143.31h-42.88Zm-114.46,83.76v-227.07h42.87v227.07h-42.87Zm-114.47-83.76v-143.31h42.88v143.31h-42.88Zm-52.47-173.08h376.76v-22.67l98.82,44.09,29.67,13.24v-247.91l-4.61-5.84-123.88-156.76v-70.36L316.87,0l-188.38,326.28v70.36L4.61,553.4l-4.61,5.84v247.91l29.67-13.24,98.82-44.09v22.67Z"/>
  </g>
</svg>